<svg width="225" height="224" viewBox="0 0 225 224" fill="none" xmlns="http://www.w3.org/2000/svg">
<path d="M196.485 112.349L199.963 114.301C199.755 114.602 199.539 114.983 199.314 115.443C199.089 115.921 198.887 116.419 198.711 116.937C198.551 117.475 198.45 117.956 198.408 118.381C198.357 118.894 198.386 119.326 198.494 119.676C198.6 120.044 198.751 120.327 198.946 120.524C199.158 120.724 199.371 120.834 199.583 120.855C199.795 120.876 200.022 120.756 200.262 120.494C200.518 120.251 200.782 119.929 201.054 119.527C201.344 119.127 201.644 118.71 201.955 118.276C202.367 117.727 202.799 117.154 203.251 116.555C203.701 115.975 204.192 115.434 204.724 114.933C205.256 114.431 205.839 114.042 206.474 113.766C207.127 113.491 207.833 113.391 208.594 113.466C209.583 113.582 210.44 113.944 211.166 114.551C211.891 115.177 212.424 116.016 212.767 117.068C213.127 118.122 213.24 119.33 213.105 120.692C213.016 121.594 212.791 122.51 212.431 123.439C212.087 124.387 211.642 125.192 211.094 125.852L207.972 124.097C208.265 123.482 208.485 122.968 208.633 122.554C208.78 122.158 208.887 121.793 208.956 121.461C209.042 121.13 209.105 120.761 209.146 120.354C209.2 119.806 209.11 119.359 208.876 119.014C208.66 118.671 208.384 118.483 208.048 118.45C207.8 118.426 207.558 118.527 207.321 118.753C207.082 118.998 206.837 119.313 206.584 119.699C206.348 120.104 206.064 120.532 205.734 120.981C205.299 121.581 204.847 122.18 204.377 122.777C203.906 123.391 203.396 123.939 202.848 124.421C202.3 124.902 201.71 125.273 201.077 125.532C200.46 125.81 199.78 125.913 199.037 125.839C198.028 125.739 197.146 125.357 196.39 124.693C195.65 124.048 195.103 123.164 194.75 122.039C194.397 120.914 194.293 119.609 194.44 118.123C194.486 117.663 194.571 117.162 194.696 116.621C194.819 116.097 194.97 115.567 195.148 115.031C195.342 114.514 195.552 114.017 195.778 113.539C196.002 113.079 196.238 112.682 196.485 112.349Z" fill="#FFEAE0"/>
<path d="M205.613 147.517L202.925 145.149C203.34 144.609 203.663 144.152 203.894 143.778C204.12 143.421 204.301 143.087 204.437 142.776C204.591 142.47 204.729 142.123 204.854 141.733C205.069 141.056 205.06 140.325 204.825 139.541C204.601 138.779 204.156 138.068 203.489 137.408C202.839 136.753 201.99 136.258 200.939 135.924C200.126 135.665 199.36 135.551 198.641 135.583C197.933 135.638 197.294 135.798 196.724 136.064C196.155 136.33 195.67 136.68 195.271 137.112C194.883 137.567 194.603 138.065 194.431 138.608C194.231 139.234 194.127 139.854 194.118 140.467C194.126 141.085 194.195 141.658 194.326 142.185L190.312 142.837C190.181 142.31 190.117 141.72 190.12 141.068C190.117 140.433 190.165 139.786 190.263 139.127C190.356 138.484 190.496 137.867 190.685 137.274C191.133 135.868 191.747 134.674 192.527 133.691C193.318 132.73 194.236 131.987 195.28 131.462C196.319 130.953 197.446 130.668 198.659 130.607C199.873 130.546 201.132 130.723 202.436 131.139C203.757 131.56 204.898 132.166 205.859 132.957C206.837 133.754 207.597 134.677 208.139 135.727C208.698 136.782 209.025 137.922 209.12 139.147C209.215 140.371 209.06 141.618 208.656 142.889C208.472 143.465 208.224 144.039 207.911 144.611C207.615 145.188 207.265 145.73 206.861 146.235C206.475 146.746 206.059 147.174 205.613 147.517Z" fill="#FFEAE0"/>
<path d="M196.185 160.784L197.505 158.529L193.364 156.103L192.016 158.404C191.764 158.833 191.628 159.259 191.609 159.68C191.595 160.125 191.695 160.534 191.91 160.907C192.115 161.295 192.417 161.606 192.816 161.839C193.276 162.109 193.714 162.241 194.128 162.237C194.543 162.233 194.918 162.102 195.254 161.846C195.596 161.613 195.906 161.259 196.185 160.784ZM203.249 156.268L199.394 162.849C198.711 164.015 197.903 164.973 196.969 165.724C196.025 166.49 194.992 166.936 193.868 167.06C192.735 167.2 191.54 166.902 190.282 166.165C189.331 165.608 188.627 164.928 188.17 164.125C187.705 163.337 187.441 162.503 187.38 161.622L179.192 161.462L182.036 156.607L188.442 156.96C188.577 156.73 188.712 156.5 188.847 156.27C188.981 156.039 189.116 155.809 189.251 155.579L190.073 154.176L185.149 151.291L187.602 147.104L203.249 156.268Z" fill="#FFEAE0"/>
<path d="M172.292 168.439C173.631 167.063 175.089 166.163 176.668 165.739C178.246 165.316 179.811 165.326 181.364 165.77C182.904 166.226 184.292 167.056 185.528 168.258C186.865 169.56 187.765 170.994 188.226 172.559C188.701 174.136 188.735 175.707 188.329 177.272C187.923 178.862 187.088 180.306 185.823 181.606C184.447 183.02 182.976 183.933 181.41 184.344C179.832 184.768 178.279 184.758 176.752 184.313C175.225 183.869 173.837 183.039 172.588 181.825C171.25 180.523 170.344 179.083 169.87 177.506C169.383 175.941 169.343 174.363 169.749 172.774C170.155 171.209 171.002 169.765 172.292 168.439ZM175.215 171.247C174.633 171.846 174.259 172.524 174.093 173.28C173.915 174.049 173.982 174.859 174.296 175.71C174.609 176.561 175.199 177.407 176.065 178.251C176.792 178.957 177.559 179.456 178.368 179.747C179.177 180.062 179.976 180.146 180.766 179.997C181.544 179.86 182.249 179.467 182.881 178.817C183.439 178.244 183.788 177.554 183.928 176.747C184.08 175.953 184.006 175.125 183.705 174.261C183.404 173.423 182.859 172.62 182.069 171.851C181.343 171.144 180.569 170.627 179.747 170.299C178.926 169.996 178.126 169.912 177.349 170.049C176.559 170.198 175.848 170.597 175.215 171.247Z" fill="#FFEAE0"/>
<path d="M154.068 188.08L151.609 185.131L162.517 178.035L172.406 193.235L168.337 195.881L160.528 183.878L154.068 188.08Z" fill="#FFEAE0"/>
<path d="M139.233 194.509L137.364 191.154L149.401 186.208L156.293 202.98L151.804 204.825L146.361 191.58L139.233 194.509Z" fill="#FFEAE0"/>
<path d="M125.239 193.752C126.042 194.956 127.169 196.027 128.619 196.967L128.886 199.003C128.404 198.887 127.955 198.739 127.537 198.561C127.104 198.403 126.695 198.223 126.31 198.023L128.164 212.168L125.996 212.453L124.138 198.28C123.818 198.573 123.478 198.851 123.118 199.113C122.743 199.396 122.337 199.655 121.902 199.891L121.639 197.882C122.798 196.6 123.619 195.274 124.102 193.901L125.239 193.752Z" fill="#FFEAE0"/>
<path d="M108.915 196.172L106.835 199.575C106.542 199.356 106.17 199.126 105.719 198.884C105.249 198.641 104.759 198.421 104.248 198.226C103.716 198.046 103.239 197.927 102.816 197.869C102.305 197.799 101.873 197.812 101.519 197.907C101.147 198 100.859 198.14 100.654 198.327C100.447 198.532 100.329 198.74 100.3 198.952C100.271 199.163 100.383 199.394 100.636 199.644C100.869 199.909 101.181 200.185 101.572 200.471C101.961 200.776 102.367 201.091 102.789 201.418C103.322 201.85 103.879 202.303 104.46 202.777C105.024 203.248 105.546 203.759 106.027 204.309C106.508 204.86 106.875 205.457 107.128 206.102C107.379 206.764 107.452 207.474 107.349 208.231C107.196 209.215 106.803 210.058 106.169 210.761C105.517 211.462 104.659 211.964 103.595 212.267C102.528 212.588 101.317 212.655 99.9605 212.47C99.0622 212.348 98.1555 212.089 97.2404 211.695C96.3053 211.316 95.5179 210.841 94.8783 210.269L96.7489 207.214C97.3518 207.53 97.8574 207.769 98.2657 207.932C98.6564 208.093 99.0166 208.214 99.3465 208.295C99.6739 208.394 100.04 208.471 100.445 208.526C100.991 208.601 101.441 208.528 101.794 208.307C102.145 208.103 102.343 207.834 102.389 207.5C102.422 207.253 102.33 207.007 102.113 206.762C101.877 206.515 101.572 206.258 101.195 205.991C100.799 205.74 100.382 205.44 99.9453 205.094C99.3617 204.637 98.7805 204.163 98.2017 203.671C97.6053 203.177 97.0766 202.647 96.6155 202.082C96.1545 201.517 95.8063 200.913 95.571 200.271C95.3158 199.644 95.2386 198.96 95.3397 198.22C95.4768 197.216 95.8913 196.349 96.5833 195.618C97.2552 194.903 98.1597 194.389 99.2967 194.078C100.434 193.767 101.742 193.712 103.222 193.914C103.68 193.977 104.177 194.08 104.713 194.226C105.232 194.368 105.756 194.538 106.285 194.736C106.794 194.949 107.284 195.178 107.753 195.421C108.204 195.662 108.592 195.913 108.915 196.172Z" fill="#FFEAE0"/>
<path d="M73.3121 203.937L75.7813 201.342C76.3046 201.777 76.7488 202.117 77.1138 202.362C77.4621 202.602 77.789 202.795 78.0946 202.944C78.3942 203.109 78.7362 203.261 79.1207 203.4C79.7895 203.641 80.5201 203.66 81.3126 203.455C82.0822 203.26 82.8097 202.843 83.495 202.202C84.1742 201.578 84.7012 200.747 85.0758 199.711C85.3658 198.908 85.5086 198.147 85.5042 197.427C85.477 196.718 85.3413 196.073 85.0972 195.494C84.853 194.914 84.5224 194.416 84.1055 194.001C83.6657 193.596 83.1783 193.297 82.6433 193.104C82.0247 192.88 81.4093 192.752 80.7971 192.72C80.1789 192.705 79.6041 192.752 79.0728 192.863L78.575 188.826C79.1064 188.716 79.6979 188.675 80.3496 188.702C80.9845 188.724 81.6294 188.796 82.2843 188.919C82.9224 189.037 83.5341 189.201 84.1192 189.412C85.507 189.914 86.677 190.573 87.6294 191.39C88.5591 192.217 89.2664 193.163 89.7515 194.227C90.2199 195.285 90.4613 196.421 90.4758 197.636C90.4904 198.851 90.265 200.102 89.7997 201.39C89.3284 202.694 88.679 203.811 87.8515 204.74C87.018 205.687 86.0663 206.411 84.9965 206.913C83.9206 207.431 82.7691 207.714 81.542 207.762C80.3148 207.81 79.0743 207.608 77.8204 207.154C77.2519 206.949 76.6879 206.679 76.1283 206.344C75.5626 206.027 75.0349 205.656 74.545 205.233C74.049 204.827 73.6381 204.395 73.3121 203.937Z" fill="#FFEAE0"/>
<path d="M60.3807 193.982L62.5821 195.39L65.1689 191.347L62.9226 189.909C62.5033 189.641 62.0837 189.489 61.6638 189.452C61.2194 189.421 60.8068 189.506 60.4259 189.705C60.03 189.895 59.7075 190.185 59.4584 190.574C59.171 191.023 59.0213 191.455 59.0094 191.87C58.9975 192.284 59.1131 192.664 59.3564 193.01C59.5751 193.361 59.9165 193.685 60.3807 193.982ZM64.6153 201.218L58.1909 197.108C57.0528 196.379 56.127 195.534 55.4135 194.571C54.685 193.598 54.2805 192.548 54.2001 191.42C54.1046 190.283 54.4497 189.1 55.2354 187.872C55.8294 186.944 56.5366 186.267 57.3571 185.842C58.1626 185.408 59.0065 185.178 59.8887 185.151L60.3707 176.975L65.1104 180.008L64.5059 186.395C64.7306 186.539 64.9552 186.683 65.1798 186.827C65.4045 186.97 65.6291 187.114 65.8537 187.258L67.224 188.134L70.2994 183.327L74.3876 185.943L64.6153 201.218Z" fill="#FFEAE0"/>
<path d="M53.6806 169.831C55.0033 171.223 55.8456 172.715 56.2075 174.309C56.5694 175.902 56.4983 177.466 55.994 179C55.4775 180.521 54.5943 181.876 53.3444 183.064C51.9914 184.35 50.5239 185.193 48.9418 185.593C47.3469 186.005 45.7758 185.977 44.2284 185.511C42.6558 185.043 41.2449 184.152 39.9957 182.838C38.6362 181.407 37.7816 179.902 37.432 178.321C37.07 176.727 37.1409 175.176 37.6445 173.668C38.1481 172.159 39.0313 170.804 40.2941 169.604C41.6471 168.318 43.1211 167.469 44.716 167.057C46.2987 166.632 47.8763 166.653 49.4488 167.12C50.9962 167.587 52.4068 168.491 53.6806 169.831ZM50.7609 172.643C50.1853 172.037 49.5227 171.637 48.7732 171.442C48.0114 171.234 47.1994 171.27 46.3372 171.549C45.475 171.829 44.6058 172.386 43.7295 173.219C42.995 173.917 42.4668 174.664 42.1447 175.461C41.7976 176.257 41.683 177.052 41.8012 177.847C41.907 178.63 42.2723 179.349 42.8969 180.007C43.4481 180.587 44.1238 180.962 44.9243 181.133C45.7118 181.317 46.5428 181.275 47.4173 181.008C48.2666 180.74 49.0907 180.227 49.8896 179.468C50.6241 178.769 51.1714 178.016 51.5315 177.208C51.8664 176.399 51.9809 175.604 51.875 174.821C51.7569 174.026 51.3855 173.3 50.7609 172.643Z" fill="#FFEAE0"/>
<path d="M34.7815 150.907L37.8229 148.563L44.4956 159.735L28.9274 169.033L26.4389 164.866L38.7331 157.524L34.7815 150.907Z" fill="#FFEAE0"/>
<path d="M28.9523 135.94L32.3748 134.199L36.8666 146.412L19.8477 152.671L18.1725 148.116L31.6124 143.173L28.9523 135.94Z" fill="#FFEAE0"/>
<path d="M30.2084 121.917C28.9751 122.674 27.8613 123.759 26.8671 125.172L24.8225 125.361C24.957 124.884 25.1213 124.441 25.3154 124.03C25.4902 123.603 25.6852 123.201 25.9003 122.824L11.6942 124.137L11.4929 121.96L25.7256 120.644C25.445 120.313 25.1805 119.963 24.9321 119.593C24.6643 119.207 24.4207 118.792 24.2011 118.348L26.2192 118.162C27.4555 119.369 28.7501 120.24 30.1029 120.775L30.2084 121.917Z" fill="#FFEAE0"/>
<path d="M28.4057 105.49L25.0838 103.283C25.3142 102.999 25.5584 102.635 25.8164 102.193C26.0775 101.734 26.3154 101.252 26.5302 100.748C26.7305 100.224 26.8675 99.7516 26.9412 99.3314C27.0303 98.8236 27.0339 98.391 26.9522 98.0338C26.8736 97.659 26.7445 97.3656 26.5651 97.1536C26.3682 96.9386 26.1647 96.8127 25.9546 96.7758C25.7444 96.7389 25.5097 96.8422 25.2505 97.0855C24.9767 97.3082 24.6892 97.6097 24.3879 97.99C24.069 98.3673 23.7383 98.7605 23.3958 99.1697C22.9442 99.6861 22.4705 100.226 21.9747 100.789C21.482 101.334 20.9516 101.836 20.3836 102.296C19.8156 102.756 19.2047 103.1 18.551 103.329C17.8798 103.554 17.1677 103.6 16.4148 103.468C15.4373 103.279 14.6094 102.854 13.931 102.193C13.2558 101.515 12.7868 100.639 12.5242 99.5639C12.244 98.4859 12.2221 97.2728 12.4587 95.9245C12.6153 95.0315 12.9079 94.1352 13.3364 93.2357C13.7505 92.3157 14.2554 91.5469 14.851 90.9294L17.8329 92.9145C17.4947 93.5049 17.2362 94.001 17.0574 94.4029C16.8817 94.7872 16.7471 95.1426 16.6538 95.4692C16.5429 95.7926 16.4521 96.1558 16.3815 96.5585C16.2862 97.1013 16.3423 97.5534 16.5497 97.9146C16.7395 98.2728 17.0008 98.4811 17.3335 98.5395C17.5787 98.5825 17.8278 98.4998 18.0809 98.2915C18.3371 98.0657 18.6056 97.7699 18.8864 97.404C19.1527 97.0175 19.4674 96.6125 19.8305 96.1889C20.3088 95.623 20.8046 95.0602 21.318 94.5005C21.8343 93.9232 22.3838 93.415 22.9662 92.9757C23.5486 92.5363 24.1652 92.2113 24.8158 92.0006C25.452 91.7692 26.1378 91.7181 26.8733 91.8471C27.8714 92.0222 28.7225 92.4693 29.4266 93.1884C30.1163 93.887 30.5951 94.8103 30.863 95.9582C31.1309 97.1062 31.1358 98.4157 30.8778 99.8866C30.7979 100.342 30.6754 100.835 30.5101 101.365C30.3479 101.878 30.1579 102.395 29.9401 102.917C29.7079 103.418 29.4612 103.898 29.2001 104.357C28.9421 104.799 28.6773 105.177 28.4057 105.49Z" fill="#FFEAE0"/>
<path d="M21.8945 69.8388L24.3992 72.3998C23.9458 72.9072 23.5899 73.3388 23.3316 73.6947C23.0799 74.0342 22.8745 74.3539 22.7153 74.654C22.5397 74.9474 22.3755 75.2837 22.2228 75.663C21.9571 76.3227 21.9125 77.0521 22.089 77.8515C22.2555 78.6276 22.6467 79.3697 23.2624 80.0776C23.8616 80.7788 24.6724 81.3353 25.6948 81.747C26.4864 82.0658 27.242 82.2359 27.9616 82.2574C28.6714 82.2557 29.3204 82.1433 29.9085 81.9202C30.4966 81.697 31.0057 81.3846 31.4358 80.9828C31.8561 80.558 32.1725 80.0817 32.385 79.5539C32.6307 78.9438 32.7806 78.3334 32.8349 77.7228C32.8726 77.1055 32.8459 76.5294 32.7547 75.9944L36.8061 75.6423C36.8973 76.1773 36.9174 76.7699 36.8664 77.4201C36.822 78.0539 36.7264 78.6957 36.5797 79.3458C36.4396 79.9793 36.2533 80.5846 36.0209 81.1618C35.4697 82.5306 34.7688 83.6761 33.9183 84.5985C33.0579 85.4978 32.0874 86.1706 31.0069 86.6171C29.933 87.0471 28.7886 87.2475 27.5738 87.2182C26.359 87.189 25.1167 86.9188 23.8469 86.4074C22.5606 85.8895 21.4678 85.2003 20.5686 84.3399C19.6528 83.4728 18.9635 82.4957 18.5005 81.4085C18.0211 80.3147 17.7795 79.1537 17.7757 77.9257C17.7719 76.6976 18.0191 75.4651 18.5171 74.2283C18.7429 73.6676 19.033 73.1137 19.3875 72.5665C19.7255 72.0127 20.1146 71.4986 20.5548 71.0242C20.9785 70.5432 21.4251 70.1481 21.8945 69.8388Z" fill="#FFEAE0"/>
<path d="M32.4556 57.0388L30.9638 59.1845L34.9048 61.9246L36.4271 59.7351C36.7112 59.3264 36.8796 58.913 36.9322 58.4948C36.9803 58.0519 36.912 57.6363 36.7272 57.2481C36.5526 56.8452 36.2756 56.5118 35.8961 56.248C35.4582 55.9435 35.0324 55.7774 34.6187 55.7495C34.2049 55.7217 33.8208 55.8227 33.4661 56.0525C33.107 56.2575 32.7702 56.5863 32.4556 57.0388ZM25.0623 60.9924L29.416 54.7306C30.1873 53.6212 31.0678 52.7286 32.0575 52.0525C33.0573 51.3619 34.1222 50.9981 35.2523 50.961C36.3925 50.9093 37.5611 51.2996 38.758 52.1318C39.6629 52.761 40.3119 53.4937 40.7049 54.3299C41.108 55.1515 41.3059 56.0036 41.2985 56.8862L49.4497 57.6817L46.2377 62.3015L39.8777 61.4522C39.7255 61.6712 39.5732 61.8901 39.421 62.1091C39.2688 62.328 39.1165 62.5469 38.9643 62.7659L38.0357 64.1015L42.7212 67.3592L39.9506 71.344L25.0623 60.9924Z" fill="#FFEAE0"/>
<path d="M56.7448 51.3578C55.3047 52.6277 53.7817 53.4138 52.1757 53.716C50.5696 54.0182 49.0096 53.8888 47.4956 53.3277C45.9949 52.7548 44.6743 51.8217 43.5337 50.5283C42.2991 49.1283 41.5115 47.6303 41.1708 46.0345C40.8184 44.4253 40.9044 42.8563 41.4286 41.3273C41.9544 39.7733 42.8974 38.3966 44.2574 37.1973C45.7375 35.8921 47.2738 35.0943 48.8665 34.8038C50.4725 34.5016 52.02 34.6303 53.5089 35.1898C54.9979 35.7493 56.3185 36.6824 57.4708 37.9892C58.7054 39.3892 59.4989 40.8938 59.8513 42.503C60.2171 44.1004 60.137 45.6761 59.6112 47.2301C59.087 48.7591 58.1315 50.135 56.7448 51.3578ZM54.0439 48.3353C54.6705 47.7827 55.0953 47.1355 55.3183 46.3938C55.5545 45.6403 55.5489 44.8275 55.3013 43.9555C55.0538 43.0834 54.5302 42.1941 53.7307 41.2874C53.0604 40.5273 52.3333 39.9716 51.5493 39.62C50.7668 39.2434 49.976 39.0993 49.177 39.1877C48.3912 39.2643 47.6583 39.6025 46.9783 40.2021C46.3783 40.7313 45.9778 41.3926 45.7768 42.1861C45.5641 42.9662 45.5748 43.7982 45.809 44.682C46.0448 45.5407 46.5272 46.3834 47.2562 47.2101C47.9265 47.9701 48.6587 48.5451 49.4529 48.9351C50.2487 49.2999 51.0395 49.444 51.8252 49.3674C52.6243 49.2791 53.3638 48.935 54.0439 48.3353Z" fill="#FFEAE0"/>
<path d="M76.5168 33.0946L78.7395 36.2262L67.3125 42.4528L58.6362 26.5298L62.8979 24.2076L69.7496 36.7821L76.5168 33.0946Z" fill="#FFEAE0"/>
<path d="M91.6094 27.8707L93.2187 31.3574L80.842 35.3779L75.2397 18.1317L79.8556 16.6322L84.2798 30.2517L91.6094 27.8707Z" fill="#FFEAE0"/>
<path d="M105.467 29.6573C104.756 28.3967 103.714 27.2434 102.338 26.1974L102.226 24.1471C102.697 24.2992 103.134 24.4799 103.537 24.6892C103.957 24.8797 104.352 25.0895 104.72 25.3185L103.936 11.0734L106.12 10.9532L106.905 25.2249C107.247 24.9569 107.607 24.7056 107.985 24.4711C108.381 24.2179 108.805 23.9898 109.256 23.7869L109.368 25.8105C108.116 27.0011 107.197 28.2624 106.612 29.5943L105.467 29.6573Z" fill="#FFEAE0"/>
</svg>
