<svg width="32" height="32" viewBox="0 0 32 32" fill="none" xmlns="http://www.w3.org/2000/svg">
<path d="M8.83328 0.16684C4.07822 0.16684 0.222168 4.0229 0.222168 8.77795V22.5557C0.222168 27.3108 4.07822 31.1668 8.83328 31.1668H22.6111C27.3661 31.1668 31.2222 27.3108 31.2222 22.5557V8.77795C31.2222 4.0229 27.3661 0.16684 22.6111 0.16684H8.83328ZM26.0555 3.61128C27.0062 3.61128 27.7777 4.38284 27.7777 5.33351C27.7777 6.28417 27.0062 7.05573 26.0555 7.05573C25.1048 7.05573 24.3333 6.28417 24.3333 5.33351C24.3333 4.38284 25.1048 3.61128 26.0555 3.61128ZM15.7222 7.05573C20.4772 7.05573 24.3333 10.9118 24.3333 15.6668C24.3333 20.4219 20.4772 24.278 15.7222 24.278C10.9671 24.278 7.11106 20.4219 7.11106 15.6668C7.11106 10.9118 10.9671 7.05573 15.7222 7.05573ZM15.7222 10.5002C14.3519 10.5002 13.0377 11.0445 12.0688 12.0135C11.0998 12.9824 10.5555 14.2966 10.5555 15.6668C10.5555 17.0371 11.0998 18.3513 12.0688 19.3202C13.0377 20.2892 14.3519 20.8335 15.7222 20.8335C17.0925 20.8335 18.4066 20.2892 19.3756 19.3202C20.3445 18.3513 20.8888 17.0371 20.8888 15.6668C20.8888 14.2966 20.3445 12.9824 19.3756 12.0135C18.4066 11.0445 17.0925 10.5002 15.7222 10.5002Z" fill="#FFEAE0"/>
</svg>
