<svg width="309" height="75" viewBox="0 0 309 75" fill="none" xmlns="http://www.w3.org/2000/svg">
<path d="M35 73.4619V41.1619C35 38.3619 34.5 36.1286 33.5 34.4619C32.5 32.7286 30.8 31.8619 28.4 31.8619C26.8667 31.8619 25.3667 32.2619 23.9 33.0619C22.5 33.7953 21.2333 34.8952 20.1 36.3619C18.9667 37.8286 18.0333 39.6286 17.3 41.7619C16.6333 43.8286 16.3 46.1619 16.3 48.7619V73.4619H4.9V48.2619C4.9 44.2619 4.63333 40.9286 4.1 38.2619C3.56667 35.5286 3 33.3286 2.4 31.6619C1.66667 29.7286 0.866667 28.1619 0 26.9619L9 23.3619C9.66667 24.0952 10.3333 24.9952 11 26.0619C11.5333 26.9952 12.0667 28.1619 12.6 29.5619C13.1333 30.8952 13.5667 32.4286 13.9 34.1619C15.6333 30.1619 18.1333 27.2952 21.4 25.5619C24.6667 23.7619 28.1 22.8619 31.7 22.8619C36.8333 22.8619 40.5333 24.4286 42.8 27.5619C45.1333 30.6286 46.3 34.7952 46.3 40.0619V73.4619H35Z" fill="#FF7425"/>
<path d="M145.569 73.4619V40.8619C145.569 38.0619 145.135 35.8619 144.269 34.2619C143.402 32.5952 141.902 31.7619 139.769 31.7619C138.502 31.7619 137.202 32.1286 135.869 32.8619C134.602 33.5286 133.435 34.5286 132.369 35.8619C131.302 37.1952 130.435 38.7952 129.769 40.6619C129.102 42.5286 128.769 44.5952 128.769 46.8619V73.4619H117.469V40.8619C117.469 38.0619 117.035 35.8619 116.169 34.2619C115.302 32.5952 113.802 31.7619 111.669 31.7619C110.335 31.7619 109.002 32.1619 107.669 32.9619C106.402 33.6952 105.235 34.7952 104.169 36.2619C103.169 37.7286 102.335 39.5286 101.669 41.6619C101.069 43.7286 100.769 46.0619 100.769 48.6619V73.4619H89.3688V48.2619C89.3688 44.2619 89.1021 40.9286 88.5687 38.2619C88.0354 35.5286 87.4688 33.3286 86.8688 31.6619C86.1354 29.7286 85.3354 28.1619 84.4688 26.9619L93.4688 23.3619C94.1354 24.0952 94.8021 24.9952 95.4688 26.0619C96.0021 26.9952 96.5354 28.1619 97.0687 29.5619C97.6021 30.8952 98.0354 32.4286 98.3688 34.1619C100.035 30.1619 102.369 27.2952 105.369 25.5619C108.435 23.7619 111.669 22.8619 115.069 22.8619C118.469 22.8619 121.102 23.7286 122.969 25.4619C124.902 27.1952 126.335 29.4286 127.269 32.1619C129.069 28.8286 131.369 26.4619 134.169 25.0619C137.035 23.5952 140.035 22.8619 143.169 22.8619C145.769 22.8619 147.935 23.2952 149.669 24.1619C151.469 24.9619 152.869 26.1286 153.869 27.6619C154.935 29.1286 155.702 30.9286 156.169 33.0619C156.635 35.1286 156.869 37.4619 156.869 40.0619V73.4619H145.569Z" fill="#FF7425"/>
<path d="M169.328 2.96191L180.728 0.961914V31.4619C181.928 28.7286 183.595 26.6286 185.728 25.1619C187.928 23.6286 190.728 22.8619 194.128 22.8619C197.261 22.8619 199.961 23.4619 202.228 24.6619C204.561 25.7952 206.495 27.4619 208.028 29.6619C209.561 31.7952 210.695 34.3952 211.428 37.4619C212.161 40.5286 212.528 43.9286 212.528 47.6619C212.528 51.4619 211.928 54.9953 210.728 58.2619C209.595 61.4619 207.961 64.2286 205.828 66.5619C203.761 68.8952 201.261 70.7286 198.328 72.0619C195.395 73.3953 192.161 74.0619 188.628 74.0619C186.628 74.0619 184.495 73.8953 182.228 73.5619C179.961 73.2953 177.861 72.9953 175.928 72.6619C173.728 72.2619 171.528 71.7619 169.328 71.1619V2.96191ZM192.228 30.8619C190.561 30.8619 189.028 31.4286 187.628 32.5619C186.228 33.6952 184.995 35.1952 183.928 37.0619C182.928 38.9286 182.128 41.0286 181.528 43.3619C180.995 45.6952 180.728 48.0953 180.728 50.5619V65.0619C181.328 65.1952 182.295 65.3953 183.628 65.6619C184.961 65.9286 186.195 66.0619 187.328 66.0619C189.795 66.0619 191.861 65.6286 193.528 64.7619C195.195 63.8953 196.528 62.6952 197.528 61.1619C198.528 59.6286 199.228 57.7952 199.628 55.6619C200.028 53.5286 200.228 51.1952 200.228 48.6619C200.228 46.3286 200.161 44.0952 200.028 41.9619C199.895 39.8286 199.528 37.9286 198.928 36.2619C198.395 34.5953 197.595 33.2952 196.528 32.3619C195.461 31.3619 194.028 30.8619 192.228 30.8619Z" fill="#FF7425"/>
<path d="M252.151 23.6619H263.551V49.3619C263.551 53.3619 263.784 56.7286 264.251 59.4619C264.784 62.1286 265.351 64.2952 265.951 65.9619C266.684 67.9619 267.484 69.5286 268.351 70.6619L259.451 74.2619C258.651 73.5286 257.917 72.5952 257.251 71.4619C256.717 70.5286 256.151 69.3952 255.551 68.0619C255.017 66.6619 254.651 65.0286 254.451 63.1619C252.651 67.0952 250.117 69.8952 246.851 71.5619C243.584 73.2286 240.184 74.0619 236.651 74.0619C231.384 74.0619 227.617 72.5286 225.351 69.4619C223.151 66.3952 222.051 62.1952 222.051 56.8619V23.6619H233.451V56.6619C233.451 59.4619 233.951 61.6619 234.951 63.2619C235.951 64.8619 237.651 65.6619 240.051 65.6619C241.517 65.6619 242.951 65.2619 244.351 64.4619C245.817 63.5953 247.117 62.3952 248.251 60.8619C249.451 59.3286 250.384 57.4952 251.051 55.3619C251.784 53.1619 252.151 50.7286 252.151 48.0619V23.6619Z" fill="#FF7425"/>
<path d="M292.134 22.4619C294.067 22.4619 295.967 22.6619 297.834 23.0619C299.7 23.4619 301.367 23.9286 302.834 24.4619C304.567 25.0619 306.167 25.6952 307.634 26.3619L304.234 34.1619C302.9 33.5619 301.567 33.0286 300.234 32.5619C299.1 32.1619 297.834 31.7952 296.434 31.4619C295.1 31.0619 293.767 30.8619 292.434 30.8619C290.9 30.8619 289.567 31.2286 288.434 31.9619C287.367 32.6952 286.834 33.7952 286.834 35.2619C286.834 39.0619 289.6 42.0286 295.134 44.1619C297.2 44.9619 299.067 45.8286 300.734 46.7619C302.4 47.6286 303.8 48.6619 304.934 49.8619C306.134 51.0619 307.034 52.4619 307.634 54.0619C308.234 55.5952 308.534 57.4286 308.534 59.5619C308.534 61.4286 308.134 63.2619 307.334 65.0619C306.6 66.8619 305.467 68.4619 303.934 69.8619C302.467 71.2619 300.634 72.3953 298.434 73.2619C296.3 74.0619 293.867 74.4619 291.134 74.4619C288.934 74.4619 286.767 74.1953 284.634 73.6619C282.5 73.1953 280.567 72.6619 278.834 72.0619C277.167 71.4619 275.834 70.8952 274.834 70.3619L273.334 69.6619L277.034 61.2619L278.334 61.9619C279.2 62.4953 280.3 63.0619 281.634 63.6619C282.967 64.2619 284.4 64.8286 285.934 65.3619C287.467 65.8286 288.867 66.0619 290.134 66.0619C292.467 66.0619 294.2 65.5952 295.334 64.6619C296.467 63.7286 297.034 62.4953 297.034 60.9619C297.034 59.2286 296.4 57.6619 295.134 56.2619C293.934 54.7953 292.1 53.5952 289.634 52.6619C284.5 50.7286 280.8 48.5286 278.534 46.0619C276.334 43.5952 275.234 40.3952 275.234 36.4619C275.234 34.5952 275.667 32.8286 276.534 31.1619C277.4 29.4286 278.567 27.9286 280.034 26.6619C281.567 25.3286 283.367 24.2952 285.434 23.5619C287.5 22.8286 289.734 22.4619 292.134 22.4619Z" fill="#FF7425"/>
<path d="M69 24C69 34.5 63 47.9655 63 47.9655H70C70 47.9655 63.7368 63 63.7368 74" stroke="#FF7425" stroke-width="11"/>
</svg>
