<svg width="623" height="623" viewBox="0 0 623 623" fill="none" xmlns="http://www.w3.org/2000/svg">
<path d="M576.215 325.836L576.758 314.131L605.287 315.453L604.774 326.529C604.688 328.375 604.347 329.985 603.751 331.359C603.154 332.761 602.249 333.826 601.038 334.555C599.854 335.313 598.297 335.647 596.367 335.558C595.304 335.508 594.354 335.142 593.517 334.458C592.708 333.776 592.013 333.029 591.434 332.218C590.703 333.473 589.746 334.48 588.561 335.238C587.376 336.024 585.902 336.376 584.14 336.294C582.825 336.233 581.661 335.941 580.649 335.418C579.634 334.922 578.785 334.21 578.099 333.281C577.413 332.353 576.904 331.25 576.57 329.973C576.264 328.726 576.145 327.347 576.215 325.836ZM600.28 325.522L600.505 320.655L593.415 320.327L593.228 324.354C593.182 325.361 593.266 326.262 593.481 327.057C593.696 327.88 594.058 328.527 594.569 328.999C595.079 329.471 595.74 329.726 596.551 329.764C597.446 329.805 598.154 329.656 598.674 329.316C599.221 329.005 599.608 328.518 599.835 327.856C600.089 327.223 600.237 326.445 600.28 325.522ZM588.72 326.374L589.01 320.122L580.996 319.751L580.724 325.625C580.679 326.604 580.794 327.45 581.069 328.163C581.343 328.905 581.75 329.484 582.292 329.902C582.86 330.349 583.549 330.591 584.36 330.628C585.703 330.691 586.743 330.332 587.479 329.554C588.244 328.776 588.658 327.716 588.72 326.374Z" fill="#FFEAE0"/>
<path d="M584.271 355.713L594.634 353.378L585.373 348.234L584.271 355.713ZM602.349 352.307L601.675 356.878L572.136 363.732L572.184 358.22L579.621 356.726L581.202 346.006L574.921 342.533L575.717 337.131L602.349 352.307Z" fill="#FFEAE0"/>
<path d="M573.182 365.562L577.18 367.785C576.769 368.291 576.322 368.888 575.838 369.577C575.347 370.294 574.89 371.047 574.468 371.838C574.066 372.662 573.77 373.469 573.578 374.258C573.307 375.374 573.192 376.326 573.231 377.113C573.271 377.901 573.465 378.524 573.815 378.983C574.185 379.477 574.696 379.802 575.349 379.961C575.975 380.113 576.599 379.976 577.221 379.551C577.836 379.152 578.474 378.601 579.135 377.897C579.823 377.2 580.514 376.489 581.208 375.764C582.044 374.93 582.894 374.099 583.758 373.271C584.615 372.47 585.51 371.751 586.442 371.113C587.375 370.475 588.336 370.017 589.326 369.738C590.343 369.466 591.382 369.459 592.443 369.717C593.858 370.06 595.034 370.734 595.971 371.74C596.902 372.772 597.522 374.075 597.832 375.649C598.135 377.249 598.042 379.057 597.554 381.07C597.217 382.458 596.663 383.793 595.891 385.075C595.119 386.357 594.345 387.466 593.571 388.402L589.762 385.576C590.166 385.098 590.566 384.575 590.963 384.009C591.387 383.449 591.766 382.835 592.101 382.167C592.457 381.533 592.73 380.822 592.922 380.033C593.212 378.835 593.222 377.786 592.951 376.885C592.68 375.983 592.068 375.417 591.116 375.186C590.436 375.021 589.778 375.121 589.142 375.485C588.506 375.849 587.858 376.383 587.197 377.088C586.564 377.798 585.855 378.52 585.073 379.252C584.264 380.093 583.441 380.93 582.605 381.765C581.789 382.633 580.928 383.389 580.023 384.034C579.144 384.685 578.21 385.15 577.221 385.428C576.231 385.707 575.138 385.701 573.941 385.41C572.471 385.054 571.264 384.329 570.319 383.235C569.402 382.148 568.788 380.76 568.477 379.071C568.167 377.382 568.282 375.422 568.824 373.191C568.962 372.62 569.206 371.973 569.554 371.251C569.868 370.549 570.23 369.83 570.639 369.094C571.048 368.357 571.471 367.682 571.909 367.068C572.346 366.454 572.77 365.952 573.182 365.562Z" fill="#FFEAE0"/>
<path d="M570.682 406.109L558.613 412.122L557.01 408.18L569.232 401.731L570.682 406.109ZM589.358 408.814C588.369 411.642 586.899 413.812 584.946 415.324C583.01 416.872 580.81 417.778 578.344 418.043C575.896 418.344 573.39 418.046 570.826 417.149C568.024 416.169 565.76 414.755 564.034 412.905C562.308 411.056 561.179 408.94 560.647 406.559C560.142 404.187 560.329 401.658 561.21 398.97C562.19 396.168 563.647 393.993 565.583 392.445C567.509 390.924 569.71 390.018 572.185 389.726C574.659 389.435 577.179 389.738 579.743 390.634C582.518 391.605 584.768 393.015 586.495 394.864C588.221 396.714 589.345 398.842 589.868 401.25C590.39 403.657 590.221 406.178 589.358 408.814ZM577.91 396C576.06 395.353 574.284 395.088 572.582 395.205C570.907 395.331 569.456 395.832 568.23 396.708C566.995 397.611 566.1 398.855 565.545 400.441C565.028 401.921 564.922 403.368 565.229 404.78C565.553 406.228 566.317 407.563 567.522 408.785C568.716 410.034 570.424 411.046 572.644 411.823C574.521 412.479 576.283 412.739 577.932 412.604C579.572 412.495 581.01 411.99 582.245 411.087C583.498 410.22 584.406 408.98 584.97 407.368C585.459 405.967 585.507 404.515 585.113 403.013C584.719 401.511 583.925 400.135 582.73 398.887C581.526 397.665 579.919 396.703 577.91 396Z" fill="#FFEAE0"/>
<path d="M578.974 433.049L562.965 425.344C561.553 424.664 560.277 424.345 559.138 424.388C557.999 424.43 557.008 424.777 556.166 425.428C555.325 426.08 554.643 426.948 554.121 428.033C553.586 429.143 553.346 430.223 553.399 431.275C553.441 432.351 553.8 433.347 554.478 434.264C555.155 435.18 556.175 435.966 557.538 436.622L573.546 444.327L571.16 449.284L554.773 441.398C552.931 440.511 551.479 439.268 550.415 437.669C549.365 436.107 548.793 434.325 548.7 432.322C548.62 430.357 549.09 428.284 550.109 426.102C551.116 423.945 552.431 422.279 554.054 421.102C555.676 419.925 557.439 419.266 559.34 419.125C561.241 418.983 563.113 419.356 564.955 420.242L581.36 428.091L578.974 433.049Z" fill="#FFEAE0"/>
<path d="M532.112 458.977L542.532 441.915L566.906 456.802L558.017 471.354L553.924 469.838L560.425 459.193L553.866 455.186L549.006 463.144L544.855 461.641L550.174 452.932L543.328 448.75L536.213 460.399L532.112 458.977Z" fill="#FFEAE0"/>
<path d="M541.038 495.042L537.068 493.206L542.883 485.334L523.356 470.911L526.625 466.485L546.152 480.909L551.317 473.916L554.763 476.461L541.038 495.042Z" fill="#FFEAE0"/>
<path d="M502.046 496.164L515.337 481.23L536.672 500.217L525.335 512.955L521.577 510.734L529.87 501.416L524.128 496.306L517.929 503.271L514.112 501.054L520.897 493.43L514.904 488.097L505.829 498.294L502.046 496.164Z" fill="#FFEAE0"/>
<path d="M495.95 514.756C496.571 514.191 497.273 513.818 498.054 513.637C498.815 513.474 499.577 513.5 500.34 513.715C501.101 513.969 501.764 514.407 502.329 515.028C502.913 515.67 503.287 516.371 503.449 517.132C503.611 517.893 503.565 518.654 503.311 519.415C503.076 520.197 502.648 520.87 502.026 521.436C501.405 522.001 500.694 522.364 499.894 522.524C499.112 522.705 498.33 522.678 497.549 522.443C496.786 522.228 496.122 521.811 495.556 521.189C494.991 520.568 494.639 519.848 494.499 519.028C494.358 518.249 494.403 517.488 494.637 516.745C494.87 516.003 495.308 515.34 495.95 514.756Z" fill="#FFEAE0"/>
<path d="M465.337 527.441L474.814 520.548L491.614 543.644L482.647 550.166C481.153 551.253 479.683 551.994 478.238 552.387C476.77 552.797 475.373 552.757 474.048 552.267C472.716 551.816 471.482 550.81 470.345 549.247C469.719 548.387 469.411 547.416 469.421 546.336C469.448 545.277 469.597 544.269 469.869 543.309C468.432 543.524 467.048 543.405 465.716 542.955C464.361 542.52 463.165 541.59 462.127 540.164C461.353 539.099 460.854 538.008 460.629 536.891C460.382 535.789 460.407 534.681 460.703 533.565C460.999 532.449 461.542 531.362 462.33 530.304C463.112 529.285 464.115 528.331 465.337 527.441ZM480.624 546.029L484.564 543.163L480.389 537.423L477.128 539.795C476.313 540.388 475.663 541.017 475.177 541.682C474.668 542.363 474.39 543.051 474.34 543.744C474.291 544.438 474.505 545.113 474.983 545.77C475.51 546.495 476.069 546.954 476.66 547.147C477.244 547.38 477.866 547.377 478.525 547.141C479.177 546.943 479.877 546.572 480.624 546.029ZM472.734 537.538L477.795 533.857L473.076 527.369L468.321 530.828C467.528 531.405 466.939 532.023 466.555 532.684C466.147 533.362 465.949 534.042 465.962 534.725C465.968 535.448 466.21 536.138 466.688 536.794C467.478 537.881 468.408 538.469 469.476 538.557C470.561 538.668 471.647 538.328 472.734 537.538Z" fill="#FFEAE0"/>
<path d="M447.251 552.215L455.559 558.835L453.774 548.393L447.251 552.215ZM461.222 564.182L457.236 566.517L433.403 547.769L437.732 544.356L443.551 549.222L452.901 543.745L451.679 536.673L456.39 533.913L461.222 564.182Z" fill="#FFEAE0"/>
<path d="M432.412 549.77L433.176 554.281C432.525 554.276 431.779 554.3 430.939 554.353C430.072 554.418 429.199 554.533 428.318 554.698C427.423 554.9 426.608 555.173 425.872 555.517C424.832 556.003 424.018 556.508 423.428 557.031C422.838 557.554 422.473 558.096 422.333 558.656C422.179 559.253 422.245 559.856 422.53 560.465C422.802 561.048 423.299 561.449 424.02 561.669C424.715 561.9 425.544 562.053 426.507 562.129C427.481 562.229 428.468 562.324 429.468 562.413C430.642 562.544 431.822 562.688 433.008 562.844C434.169 563.012 435.289 563.261 436.371 563.59C437.452 563.919 438.41 564.383 439.246 564.981C440.094 565.604 440.75 566.411 441.212 567.4C441.829 568.719 442.038 570.058 441.839 571.418C441.616 572.79 440.986 574.089 439.952 575.315C438.893 576.552 437.424 577.61 435.547 578.487C434.254 579.092 432.865 579.494 431.382 579.693C429.899 579.892 428.55 579.982 427.335 579.963L427.159 575.223C427.785 575.24 428.443 575.226 429.133 575.181C429.835 575.162 430.551 575.074 431.282 574.918C431.999 574.799 432.725 574.568 433.461 574.224C434.577 573.702 435.402 573.053 435.936 572.278C436.47 571.503 436.529 570.671 436.114 569.784C435.817 569.15 435.328 568.698 434.646 568.43C433.964 568.162 433.142 567.99 432.18 567.914C431.229 567.864 430.223 567.763 429.163 567.61C428 567.504 426.832 567.386 425.658 567.255C424.471 567.161 423.342 566.962 422.273 566.658C421.216 566.38 420.269 565.942 419.433 565.344C418.597 564.746 417.918 563.889 417.396 562.773C416.755 561.403 416.567 560.008 416.829 558.586C417.104 557.191 417.803 555.844 418.927 554.545C420.051 553.247 421.653 552.112 423.733 551.139C424.265 550.89 424.922 550.676 425.704 550.496C426.448 550.302 427.235 550.135 428.065 549.994C428.896 549.853 429.687 549.761 430.44 549.718C431.193 549.675 431.85 549.692 432.412 549.77Z" fill="#FFEAE0"/>
<path d="M399.146 573.116L386.922 567.424L389.006 563.714L401.666 569.253L399.146 573.116ZM408.67 589.407C405.842 590.396 403.228 590.598 400.828 590.013C398.412 589.464 396.331 588.308 394.588 586.545C392.827 584.818 391.498 582.672 390.601 580.108C389.622 577.307 389.317 574.654 389.688 572.152C390.058 569.649 391.009 567.448 392.54 565.548C394.079 563.675 396.175 562.245 398.826 561.259C401.628 560.279 404.237 560.063 406.653 560.612C409.044 561.171 411.124 562.327 412.894 564.081C414.664 565.835 415.998 567.993 416.894 570.557C417.865 573.332 418.165 575.971 417.794 578.474C417.424 580.977 416.46 583.182 414.903 585.091C413.346 587 411.268 588.439 408.67 589.407ZM411.556 572.469C410.909 570.618 410.01 569.064 408.858 567.806C407.715 566.574 406.419 565.752 404.969 565.339C403.493 564.936 401.963 565.011 400.377 565.566C398.897 566.084 397.7 566.903 396.787 568.023C395.856 569.179 395.288 570.609 395.083 572.312C394.851 574.024 395.124 575.991 395.9 578.211C396.556 580.087 397.451 581.628 398.585 582.834C399.692 584.048 400.983 584.857 402.459 585.261C403.918 585.7 405.453 585.637 407.065 585.074C408.466 584.584 409.631 583.716 410.561 582.472C411.49 581.227 412.07 579.749 412.302 578.036C412.507 576.333 412.259 574.477 411.556 572.469Z" fill="#FFEAE0"/>
<path d="M383.507 596.318L379.515 579.006C379.163 577.478 378.614 576.283 377.869 575.42C377.124 574.558 376.234 574.001 375.2 573.751C374.165 573.501 373.061 573.512 371.888 573.782C370.688 574.059 369.694 574.547 368.907 575.246C368.092 575.951 367.539 576.854 367.247 577.956C366.955 579.058 366.979 580.345 367.319 581.818L371.311 599.13L365.95 600.366L361.863 582.645C361.404 580.654 361.466 578.743 362.05 576.913C362.613 575.117 363.647 573.556 365.152 572.232C366.636 570.942 368.548 570.012 370.888 569.444C373.201 568.882 375.323 568.867 377.256 569.398C379.189 569.929 380.805 570.893 382.104 572.289C383.403 573.685 384.282 575.378 384.741 577.37L388.868 595.082L383.507 596.318Z" fill="#FFEAE0"/>
<path d="M333.981 575.903L353.811 573.368L357.433 601.697L340.519 603.86L339.142 599.717L351.516 598.135L350.541 590.511L341.292 591.694L339.869 587.514L349.992 586.22L348.975 578.263L335.435 579.994L333.981 575.903Z" fill="#FFEAE0"/>
<path d="M311.143 605.381L310.096 601.135L319.875 600.757L318.938 576.499L324.436 576.287L325.373 600.545L334.06 600.209L334.226 604.49L311.143 605.381Z" fill="#FFEAE0"/>
<path d="M284.993 575.542L304.956 576.621L303.414 605.14L286.387 604.219L285.779 599.896L298.235 600.569L298.65 592.895L289.34 592.391L288.692 588.024L298.884 588.575L299.317 580.565L285.687 579.828L284.993 575.542Z" fill="#FFEAE0"/>
<path d="M266.663 582.298C267.492 582.433 268.22 582.751 268.848 583.25C269.448 583.745 269.901 584.358 270.208 585.089C270.482 585.843 270.551 586.635 270.416 587.464C270.276 588.32 269.959 589.049 269.464 589.649C268.969 590.249 268.344 590.686 267.59 590.96C266.832 591.262 266.038 591.345 265.209 591.21C264.38 591.075 263.654 590.744 263.03 590.217C262.403 589.717 261.938 589.088 261.636 588.329C261.33 587.599 261.244 586.819 261.379 585.99C261.515 585.161 261.86 584.437 262.414 583.818C262.937 583.222 263.562 582.785 264.288 582.506C265.014 582.228 265.806 582.158 266.663 582.298Z" fill="#FFEAE0"/>
<path d="M237.75 566.19L249.037 569.34L241.358 596.849L230.678 593.867C228.898 593.371 227.405 592.678 226.2 591.789C224.968 590.892 224.132 589.773 223.693 588.429C223.22 587.105 223.243 585.513 223.762 583.652C224.048 582.627 224.618 581.783 225.472 581.12C226.318 580.484 227.201 579.975 228.122 579.593C227.062 578.599 226.296 577.44 225.822 576.116C225.322 574.785 225.309 573.269 225.783 571.57C226.137 570.303 226.682 569.234 227.419 568.364C228.129 567.487 229.014 566.818 230.072 566.358C231.131 565.897 232.32 565.648 233.639 565.609C234.924 565.59 236.294 565.783 237.75 566.19ZM232.666 589.713L237.359 591.023L239.267 584.186L235.384 583.102C234.413 582.831 233.516 582.712 232.693 582.744C231.843 582.768 231.131 582.976 230.557 583.368C229.982 583.76 229.586 584.347 229.367 585.129C229.126 585.992 229.113 586.715 229.329 587.299C229.509 587.901 229.897 588.388 230.491 588.757C231.051 589.146 231.776 589.465 232.666 589.713ZM234.425 578.256L240.453 579.939L242.61 572.212L236.946 570.631C236.003 570.368 235.152 570.29 234.395 570.399C233.611 570.5 232.955 570.767 232.427 571.201C231.864 571.654 231.474 572.272 231.255 573.054C230.894 574.349 231.01 575.442 231.604 576.335C232.191 577.254 233.131 577.895 234.425 578.256Z" fill="#FFEAE0"/>
<path d="M207.132 567.369L207.069 577.992L214.17 570.13L207.132 567.369ZM206.371 585.749L202.071 584.061L202.06 553.737L207.418 555.028L207.195 562.611L217.282 566.569L222.083 561.234L227.165 563.229L206.371 585.749Z" fill="#FFEAE0"/>
<path d="M199.892 554.257L196.818 557.646C196.419 557.132 195.939 556.56 195.378 555.932C194.792 555.291 194.161 554.676 193.487 554.085C192.776 553.506 192.057 553.034 191.332 552.669C190.307 552.152 189.407 551.823 188.631 551.683C187.855 551.542 187.204 551.59 186.677 551.826C186.112 552.075 185.679 552.499 185.376 553.099C185.086 553.674 185.078 554.312 185.351 555.015C185.599 555.704 185.991 556.451 186.527 557.254C187.05 558.082 187.585 558.917 188.133 559.758C188.756 560.762 189.372 561.778 189.982 562.807C190.567 563.823 191.065 564.858 191.474 565.911C191.884 566.965 192.112 568.005 192.158 569.032C192.192 570.084 191.963 571.097 191.472 572.072C190.816 573.372 189.892 574.364 188.7 575.049C187.483 575.721 186.073 576.029 184.471 575.974C182.843 575.905 181.104 575.405 179.254 574.472C177.979 573.829 176.805 572.986 175.732 571.942C174.659 570.899 173.754 569.895 173.019 568.928L176.636 565.86C177.01 566.362 177.427 566.871 177.889 567.386C178.338 567.926 178.849 568.435 179.424 568.912C179.961 569.403 180.591 569.831 181.316 570.196C182.416 570.751 183.436 570.999 184.376 570.939C185.315 570.88 186.005 570.413 186.446 569.538C186.762 568.913 186.814 568.249 186.604 567.547C186.393 566.845 186.02 566.093 185.484 565.289C184.936 564.511 184.394 563.658 183.859 562.729C183.224 561.75 182.595 560.759 181.972 559.755C181.312 558.764 180.771 557.754 180.349 556.725C179.914 555.722 179.673 554.707 179.627 553.68C179.58 552.653 179.834 551.59 180.389 550.49C181.07 549.14 182.05 548.129 183.33 547.457C184.597 546.81 186.088 546.527 187.803 546.608C189.518 546.689 191.401 547.247 193.451 548.281C193.976 548.546 194.551 548.929 195.175 549.432C195.787 549.898 196.405 550.413 197.029 550.979C197.653 551.545 198.215 552.11 198.714 552.675C199.213 553.241 199.605 553.768 199.892 554.257Z" fill="#FFEAE0"/>
<path d="M161.07 542.693L157.922 529.582L162.123 528.906L165.662 542.264L161.07 542.693ZM154.239 560.285C151.705 558.686 149.921 556.765 148.886 554.522C147.812 552.289 147.424 549.941 147.719 547.479C147.976 545.025 148.83 542.65 150.279 540.353C151.863 537.843 153.75 535.955 155.94 534.688C158.13 533.422 160.445 532.797 162.885 532.814C165.31 532.854 167.733 533.605 170.154 535.067C172.664 536.651 174.456 538.56 175.529 540.794C176.579 543.012 176.968 545.36 176.696 547.837C176.424 550.315 175.563 552.702 174.114 554.998C172.544 557.485 170.665 559.361 168.475 560.628C166.285 561.894 163.958 562.512 161.495 562.48C159.031 562.449 156.613 561.717 154.239 560.285ZM169.296 552.008C170.342 550.35 171 548.679 171.268 546.994C171.522 545.333 171.359 543.807 170.781 542.416C170.179 541.009 169.167 539.857 167.746 538.961C166.42 538.124 165.035 537.696 163.589 537.678C162.105 537.669 160.633 538.113 159.171 539.012C157.687 539.896 156.316 541.333 155.061 543.322C154 545.003 153.35 546.662 153.112 548.299C152.849 549.922 153.019 551.436 153.621 552.843C154.185 554.258 155.189 555.421 156.633 556.333C157.888 557.125 159.292 557.498 160.845 557.451C162.397 557.404 163.916 556.939 165.401 556.055C166.862 555.156 168.16 553.807 169.296 552.008Z" fill="#FFEAE0"/>
<path d="M133.24 544.889L144.31 530.993C145.287 529.766 145.881 528.593 146.093 527.473C146.305 526.353 146.187 525.311 145.739 524.345C145.291 523.38 144.596 522.522 143.654 521.772C142.691 521.004 141.69 520.529 140.654 520.348C139.595 520.149 138.544 520.278 137.499 520.735C136.455 521.192 135.462 522.012 134.52 523.194L123.451 537.09L119.147 533.662L130.478 519.438C131.752 517.839 133.287 516.699 135.082 516.017C136.839 515.34 138.704 515.179 140.677 515.533C142.61 515.892 144.527 516.811 146.428 518.289C148.307 519.75 149.64 521.403 150.427 523.246C151.213 525.09 151.464 526.955 151.179 528.84C150.895 530.725 150.116 532.467 148.842 534.066L137.544 548.317L133.24 544.889Z" fill="#FFEAE0"/>
<path d="M118.468 493.491L132.808 507.421L112.909 527.907L100.677 516.026L103.06 512.368L112.007 521.059L117.363 515.546L110.674 509.049L113.056 505.332L120.377 512.443L125.966 506.689L116.175 497.178L118.468 493.491Z" fill="#FFEAE0"/>
<path d="M81.1624 493.923L83.8395 490.464L90.2115 497.892L108.636 482.085L112.219 486.261L93.794 502.068L99.4548 508.666L96.2034 511.455L81.1624 493.923Z" fill="#FFEAE0"/>
<path d="M88.83 455.728L100.412 472.023L77.1338 488.569L67.2547 474.67L70.2598 471.503L77.4866 481.671L83.7513 477.218L78.3495 469.618L81.3645 466.393L87.2774 474.712L93.8159 470.064L85.9078 458.938L88.83 455.728Z" fill="#FFEAE0"/>
<path d="M72.0919 445.665C72.5031 446.398 72.709 447.165 72.7098 447.967C72.6969 448.745 72.5002 449.482 72.1198 450.177C71.7013 450.861 71.1258 451.409 70.3933 451.82C69.6363 452.245 68.8689 452.451 68.0911 452.438C67.3132 452.425 66.582 452.21 65.8976 451.791C65.1887 451.386 64.6287 450.817 64.2175 450.085C63.8064 449.352 63.6126 448.578 63.6363 447.762C63.6355 446.96 63.8375 446.204 64.2423 445.495C64.6228 444.8 65.1792 444.247 65.9117 443.836C66.6442 443.425 67.4253 443.243 68.255 443.291C69.0466 443.329 69.7778 443.544 70.4485 443.939C71.1193 444.333 71.6671 444.908 72.0919 445.665Z" fill="#FFEAE0"/>
<path d="M66.5941 412.973L71.1589 423.765L44.855 434.891L40.5356 424.679C39.8157 422.977 39.4281 421.377 39.3727 419.881C39.3064 418.358 39.6621 417.007 40.4398 415.827C41.1808 414.632 42.4409 413.658 44.2203 412.905C45.2003 412.491 46.2154 412.411 47.2657 412.666C48.2902 412.932 49.2388 413.306 50.1116 413.788C50.2288 412.34 50.6579 411.019 51.3988 409.823C52.1289 408.603 53.3063 407.649 54.931 406.961C56.143 406.449 57.3188 406.21 58.4584 406.245C59.5871 406.254 60.6612 406.529 61.6807 407.071C62.7002 407.612 63.6359 408.387 64.4878 409.395C65.303 410.388 66.0051 411.58 66.5941 412.973ZM45.0242 423.647L46.922 428.134L53.4593 425.369L51.8887 421.655C51.496 420.727 51.0309 419.951 50.4934 419.327C49.945 418.677 49.3385 418.25 48.6741 418.044C48.0096 417.839 47.3034 417.894 46.5555 418.211C45.7303 418.56 45.1565 419 44.8341 419.532C44.475 420.048 44.3361 420.654 44.4174 421.35C44.4619 422.03 44.6642 422.796 45.0242 423.647ZM55.0832 417.887L57.521 423.651L64.9093 420.526L62.6187 415.11C62.2369 414.208 61.7679 413.494 61.2115 412.969C60.6443 412.419 60.0264 412.072 59.3579 411.929C58.6528 411.772 57.9263 411.851 57.1784 412.167C55.9406 412.691 55.1575 413.463 54.8291 414.483C54.4749 415.515 54.5596 416.649 55.0832 417.887Z" fill="#FFEAE0"/>
<path d="M46.6845 390.268L38.3611 396.869L48.9366 397.485L46.6845 390.268ZM31.8752 401.181L30.4989 396.771L54.1383 377.778L56.4865 382.765L50.4339 387.338L53.6619 397.682L60.8275 398.086L62.4541 403.298L31.8752 401.181Z" fill="#FFEAE0"/>
<path d="M52.2925 376.083L47.7262 375.8C47.879 375.167 48.0253 374.435 48.1651 373.605C48.2992 372.747 48.3863 371.87 48.4267 370.974C48.4338 370.057 48.3537 369.201 48.1864 368.407C47.9498 367.283 47.644 366.375 47.269 365.681C46.894 364.988 46.4498 364.509 45.9364 364.245C45.3899 363.96 44.7878 363.886 44.1302 364.025C43.5001 364.157 42.9961 364.55 42.6183 365.201C42.2348 365.826 41.8966 366.598 41.604 367.518C41.2839 368.444 40.9667 369.384 40.6524 370.337C40.2574 371.45 39.8486 372.566 39.4262 373.685C38.9979 374.777 38.5005 375.812 37.9338 376.79C37.3672 377.767 36.6974 378.595 35.9245 379.273C35.1242 379.957 34.1897 380.411 33.1212 380.636C31.6964 380.936 30.3445 380.834 29.0653 380.331C27.7804 379.801 26.6591 378.892 25.7015 377.606C24.7381 376.292 24.0429 374.622 23.6159 372.594C23.3216 371.197 23.2465 369.753 23.3906 368.264C23.5347 366.774 23.7546 365.44 24.0501 364.262L28.7052 365.17C28.5466 365.776 28.4104 366.42 28.2965 367.102C28.1552 367.79 28.0774 368.507 28.063 369.254C28.0155 369.979 28.0754 370.739 28.2427 371.534C28.4966 372.739 28.9401 373.69 29.5732 374.387C30.2064 375.083 31.0024 375.331 31.9614 375.129C32.6463 374.984 33.1972 374.611 33.6139 374.008C34.0306 373.405 34.3853 372.644 34.678 371.724C34.9433 370.81 35.2713 369.853 35.662 368.855C36.0296 367.748 36.411 366.637 36.806 365.524C37.1679 364.389 37.6185 363.336 38.1578 362.364C38.6696 361.398 39.312 360.576 40.0849 359.898C40.8578 359.22 41.847 358.754 43.0526 358.5C44.5321 358.189 45.9339 358.323 47.2577 358.902C48.5542 359.488 49.7065 360.475 50.7146 361.865C51.7227 363.255 52.4633 365.074 52.9365 367.321C53.0577 367.896 53.1168 368.585 53.114 369.386C53.1328 370.155 53.1163 370.96 53.0644 371.8C53.0126 372.641 52.9218 373.433 52.792 374.175C52.6623 374.918 52.4958 375.554 52.2925 376.083Z" fill="#FFEAE0"/>
<path d="M37.1182 338.996L45.3899 328.347L48.5424 331.205L40.3222 342.314L37.1182 338.996ZM19.1147 344.652C18.7805 341.675 19.1656 339.082 20.2701 336.873C21.3436 334.639 22.9341 332.868 25.0414 331.561C27.1178 330.229 29.5055 329.412 32.2045 329.109C35.154 328.778 37.8073 329.072 40.1645 329.99C42.5217 330.909 44.4559 332.326 45.967 334.242C47.4503 336.16 48.3775 338.521 48.7486 341.326C49.0797 344.275 48.7085 346.867 47.6349 349.1C46.5583 351.306 44.9679 353.077 42.8637 354.412C40.7595 355.747 38.3578 356.566 35.6588 356.869C32.7371 357.197 30.0977 356.901 27.7405 355.983C25.3833 355.064 23.4476 353.633 21.9334 351.69C20.4191 349.746 19.4796 347.4 19.1147 344.652ZM34.9845 351.239C36.9323 351.02 38.6478 350.489 40.1311 349.647C41.5865 348.807 42.6768 347.727 43.4019 346.406C44.124 345.057 44.3913 343.547 44.2039 341.878C44.0289 340.32 43.4971 338.971 42.6084 337.831C41.6887 336.666 40.4216 335.794 38.8068 335.214C37.189 334.607 35.2114 334.435 32.8741 334.697C30.8985 334.919 29.1969 335.448 27.7693 336.284C26.3386 337.093 25.2622 338.172 24.5402 339.521C23.7872 340.845 23.506 342.356 23.6965 344.053C23.8621 345.528 24.448 346.857 25.4542 348.04C26.4605 349.223 27.7725 350.118 29.3904 350.726C31.0051 351.305 32.8698 351.476 34.9845 351.239Z" fill="#FFEAE0"/>
<path d="M17.9205 316.735L35.6864 316.804C37.2544 316.81 38.5434 316.549 39.5535 316.02C40.5635 315.492 41.3084 314.753 41.788 313.803C42.2677 312.853 42.5099 311.776 42.5145 310.572C42.5193 309.34 42.2714 308.261 41.771 307.335C41.2707 306.381 40.5175 305.636 39.5116 305.1C38.5057 304.564 37.2467 304.293 35.7347 304.288L17.9688 304.219L17.9901 298.717L36.176 298.787C38.2199 298.795 40.066 299.292 41.7142 300.279C43.3345 301.237 44.6173 302.6 45.5625 304.368C46.4798 306.107 46.9478 308.181 46.9665 310.589C46.9853 312.969 46.5153 315.039 45.5565 316.8C44.5977 318.56 43.2905 319.913 41.6348 320.859C39.9791 321.804 38.1293 322.273 36.0853 322.265L17.8993 322.237L17.9205 316.735Z" fill="#FFEAE0"/>
<path d="M48.9457 273.749L46.9449 293.641L18.5283 290.783L20.2349 273.816L24.5814 273.409L23.333 285.821L30.9805 286.59L31.9136 277.313L36.3061 276.868L35.2847 287.023L43.2665 287.826L44.6325 274.244L48.9457 273.749Z" fill="#FFEAE0"/>
<path d="M25.4568 244.363L29.8304 244.316L27.9601 253.922L51.7887 258.561L50.7372 263.962L26.9086 259.322L25.2471 267.856L21.0421 267.037L25.4568 244.363Z" fill="#FFEAE0"/>
<path d="M60.1333 226.682L54.5395 245.875L27.1202 237.884L31.8914 221.513L36.2393 221.905L32.7491 233.881L40.1281 236.032L42.7369 227.08L47.1369 227.444L44.2813 237.242L51.9829 239.487L55.8021 226.382L60.1333 226.682Z" fill="#FFEAE0"/>
<path d="M57.3321 208.023C57.0136 208.8 56.5403 209.439 55.9121 209.938C55.2945 210.411 54.5952 210.714 53.8142 210.848C53.0178 210.945 52.231 210.835 51.4537 210.516C50.6505 210.187 50.0124 209.714 49.5392 209.096C49.066 208.479 48.7808 207.772 48.6835 206.975C48.5603 206.168 48.658 205.376 48.9765 204.599C49.2951 203.822 49.7814 203.189 50.4355 202.7C51.0636 202.201 51.7812 201.89 52.5882 201.767C53.3693 201.633 54.1484 201.725 54.9257 202.044C55.7029 202.363 56.3305 202.862 56.8083 203.542C57.2709 204.185 57.5561 204.892 57.664 205.663C57.7719 206.433 57.6613 207.22 57.3321 208.023Z" fill="#FFEAE0"/>
<path d="M79.5517 183.262L73.9297 193.543L48.8714 179.841L54.1912 170.112C55.0778 168.491 56.0904 167.194 57.2288 166.221C58.3807 165.223 59.6607 164.662 61.0686 164.539C62.4654 164.377 64.0114 164.76 65.7065 165.687C66.6401 166.197 67.3331 166.943 67.7857 167.925C68.2138 168.893 68.5099 169.868 68.6743 170.852C69.8818 170.044 71.184 169.559 72.5808 169.398C73.9911 169.212 75.4701 169.542 77.0178 170.388C78.1725 171.019 79.0901 171.792 79.7707 172.707C80.4647 173.597 80.9162 174.61 81.125 175.745C81.3339 176.881 81.308 178.095 81.0474 179.389C80.7757 180.644 80.2771 181.936 79.5517 183.262ZM57.7882 172.989L55.4507 177.263L61.6784 180.669L63.6129 177.131C64.0965 176.247 64.4158 175.4 64.5709 174.592C64.7393 173.758 64.6977 173.017 64.4458 172.369C64.194 171.721 63.7119 171.202 62.9994 170.812C62.2133 170.382 61.5118 170.206 60.895 170.284C60.267 170.323 59.7058 170.591 59.2114 171.086C58.7059 171.544 58.2315 172.178 57.7882 172.989ZM68.5501 177.294L65.5477 182.785L72.5861 186.634L75.4072 181.475C75.8774 180.615 76.1453 179.804 76.2109 179.042C76.2899 178.255 76.1778 177.556 75.8746 176.943C75.5602 176.293 75.0468 175.772 74.3343 175.383C73.1551 174.738 72.0636 174.604 71.0599 174.981C70.0315 175.344 69.195 176.115 68.5501 177.294Z" fill="#FFEAE0"/>
<path d="M85.1514 153.227L74.8118 150.788L80.885 159.468L85.1514 153.227ZM67.4075 148.372L70.0148 144.558L99.5723 151.333L97.115 156.267L89.7748 154.353L83.6596 163.298L87.785 169.171L84.7037 173.678L67.4075 148.372Z" fill="#FFEAE0"/>
<path d="M99.3057 149.32L96.6831 145.571C97.2736 145.296 97.9373 144.955 98.6742 144.547C99.429 144.117 100.169 143.639 100.895 143.113C101.617 142.548 102.237 141.952 102.754 141.326C103.486 140.441 104.006 139.636 104.315 138.911C104.624 138.186 104.722 137.54 104.609 136.974C104.492 136.368 104.174 135.852 103.656 135.423C103.16 135.013 102.539 134.863 101.794 134.973C101.066 135.062 100.252 135.279 99.3496 135.623C98.4259 135.949 97.4933 136.286 96.5518 136.634C95.4347 137.018 94.3069 137.394 93.1682 137.76C92.0474 138.105 90.9281 138.36 89.8102 138.526C88.6923 138.692 87.6275 138.683 86.6158 138.501C85.5825 138.3 84.6451 137.852 83.8035 137.156C82.6814 136.229 81.9188 135.108 81.5158 133.794C81.1306 132.458 81.143 131.015 81.5528 129.464C81.9806 127.893 82.8546 126.308 84.1749 124.711C85.0848 123.611 86.1674 122.653 87.4226 121.838C88.6778 121.023 89.8583 120.364 90.9641 119.861L93.153 124.069C92.5803 124.322 91.9917 124.616 91.3871 124.952C90.761 125.27 90.1512 125.656 89.5579 126.11C88.9608 126.525 88.4035 127.045 87.8861 127.671C87.101 128.62 86.6332 129.559 86.4827 130.489C86.3321 131.418 86.6345 132.195 87.3897 132.819C87.9292 133.265 88.5645 133.463 89.2957 133.414C90.0269 133.364 90.8435 133.168 91.7456 132.824C92.6261 132.462 93.5784 132.123 94.6026 131.807C95.698 131.405 96.8043 131.012 97.9213 130.627C99.0347 130.203 100.139 129.9 101.236 129.716C102.311 129.515 103.354 129.506 104.365 129.688C105.377 129.871 106.358 130.354 107.307 131.139C108.473 132.103 109.241 133.283 109.612 134.68C109.961 136.059 109.906 137.575 109.447 139.23C108.987 140.884 108.025 142.596 106.562 144.366C106.188 144.819 105.686 145.294 105.057 145.791C104.467 146.285 103.827 146.773 103.137 147.256C102.447 147.739 101.771 148.161 101.11 148.522C100.448 148.883 99.8464 149.149 99.3057 149.32Z" fill="#FFEAE0"/>
<path d="M119.534 113.599L133.017 113.47L132.735 117.716L118.923 118.171L119.534 113.599ZM103.921 103C106.047 100.889 108.319 99.5805 110.736 99.0745C113.154 98.5289 115.529 98.6761 117.862 99.5161C120.196 100.317 122.319 101.681 124.233 103.608C126.324 105.714 127.741 107.977 128.485 110.395C129.228 112.813 129.318 115.209 128.755 117.583C128.173 119.937 126.898 122.13 124.93 124.162C122.824 126.253 120.562 127.571 118.144 128.117C115.747 128.643 113.372 128.496 111.018 127.675C108.665 126.855 106.532 125.481 104.618 123.554C102.547 121.467 101.14 119.215 100.396 116.797C99.6525 114.379 99.5721 111.973 100.155 109.579C100.738 107.185 101.993 104.992 103.921 103ZM108.613 119.529C109.994 120.92 111.475 121.935 113.056 122.575C114.618 123.194 116.142 123.378 117.628 123.126C119.134 122.854 120.483 122.126 121.675 120.943C122.788 119.838 123.515 118.583 123.857 117.179C124.198 115.735 124.095 114.2 123.547 112.575C123.018 110.929 121.925 109.272 120.268 107.603C118.868 106.192 117.396 105.187 115.854 104.587C114.332 103.968 112.818 103.794 111.312 104.066C109.806 104.298 108.448 105.016 107.236 106.219C106.182 107.265 105.505 108.549 105.202 110.073C104.899 111.596 105.013 113.18 105.541 114.826C106.09 116.451 107.113 118.019 108.613 119.529Z" fill="#FFEAE0"/>
<path d="M123.352 86.0704L134.422 99.9664C135.399 101.193 136.409 102.035 137.454 102.491C138.498 102.948 139.54 103.066 140.582 102.846C141.623 102.625 142.614 102.139 143.556 101.389C144.52 100.621 145.206 99.7526 145.615 98.7827C146.045 97.7953 146.154 96.7417 145.943 95.6218C145.731 94.5019 145.154 93.3506 144.211 92.168L133.142 78.2721L137.445 74.8439L148.777 89.0684C150.05 90.6671 150.818 92.4179 151.081 94.3206C151.348 96.184 151.089 98.0376 150.302 99.8813C149.52 101.686 148.196 103.349 146.33 104.871C144.486 106.376 142.577 107.306 140.604 107.66C138.632 108.015 136.758 107.842 134.984 107.143C133.21 106.444 131.687 105.296 130.413 103.697L119.049 89.4986L123.352 86.0704Z" fill="#FFEAE0"/>
<path d="M176.535 83.177L159.747 94.0325L144.239 70.0497L158.558 60.7905L161.59 63.9318L151.115 70.7052L155.288 77.1594L163.118 72.0965L166.208 75.2503L157.637 80.7921L161.993 87.5284L173.456 80.1166L176.535 83.177Z" fill="#FFEAE0"/>
<path d="M185.108 46.2716L187.875 49.6589L179.204 54.1945L190.455 75.7057L185.58 78.2557L174.328 56.7446L166.625 60.7741L164.639 56.978L185.108 46.2716Z" fill="#FFEAE0"/>
<path d="M219.715 62.6207L201.244 70.2708L190.315 43.8845L206.07 37.3594L208.485 40.9959L196.96 45.7692L199.901 52.8703L208.516 49.3023L210.986 52.9616L201.557 56.867L204.627 64.2784L217.238 59.0551L219.715 62.6207Z" fill="#FFEAE0"/>
<path d="M234.078 48.2192C233.272 48.4543 232.478 48.4815 231.696 48.3011C230.941 48.1127 230.268 47.7548 229.677 47.2271C229.104 46.6648 228.701 45.9804 228.466 45.1739C228.223 44.3406 228.196 43.5465 228.384 42.7916C228.572 42.0368 228.948 41.3733 229.51 40.8011C230.065 40.202 230.745 39.7849 231.551 39.5499C232.358 39.3149 233.156 39.301 233.946 39.5084C234.727 39.6889 235.418 40.0564 236.017 40.6109C236.608 41.1386 237.021 41.8056 237.256 42.6121C237.491 43.4185 237.492 44.2204 237.257 45.0178C237.042 45.7805 236.667 46.444 236.131 47.0084C235.596 47.5728 234.911 47.9764 234.078 48.2192Z" fill="#FFEAE0"/>
<path d="M266.783 50.258L255.241 52.2772L250.32 24.1443L261.242 22.2338C263.062 21.9153 264.708 21.8975 266.178 22.1803C267.677 22.4583 268.913 23.109 269.888 24.1323C270.886 25.1232 271.551 26.5702 271.884 28.4733C272.067 29.5214 271.917 30.5284 271.432 31.4944C270.942 32.4328 270.364 33.273 269.698 34.0149C271.083 34.4549 272.274 35.1703 273.271 36.1612C274.297 37.1473 274.961 38.5092 275.265 40.2468C275.492 41.5431 275.46 42.7425 275.17 43.8451C274.907 44.9428 274.397 45.9274 273.64 46.7989C272.883 47.6704 271.917 48.4077 270.744 49.011C269.593 49.5818 268.273 49.9975 266.783 50.258ZM261.237 26.8394L256.438 27.6789L257.661 34.6707L261.633 33.976C262.626 33.8023 263.487 33.5238 264.215 33.1405C264.972 32.7523 265.525 32.2576 265.875 31.6564C266.224 31.0552 266.329 30.3546 266.189 29.5548C266.035 28.6722 265.735 28.014 265.289 27.5803C264.867 27.1141 264.308 26.8424 263.612 26.7651C262.939 26.6554 262.147 26.6802 261.237 26.8394ZM264.585 37.9365L258.421 39.0148L259.803 46.9168L265.595 45.9036C266.561 45.7348 267.362 45.4383 267.998 45.0143C268.662 44.5855 269.139 44.0615 269.429 43.4423C269.741 42.7907 269.827 42.065 269.687 41.2652C269.456 39.9413 268.88 39.0045 267.959 38.4549C267.034 37.8777 265.909 37.7049 264.585 37.9365Z" fill="#FFEAE0"/>
<path d="M294.194 35.8453L289.656 26.2398L286.654 36.3989L294.194 35.8453ZM286.931 18.9438L291.538 18.6054L304.663 45.9417L299.273 47.0955L296.195 40.1623L285.388 40.9558L283.367 47.8423L277.922 48.2421L286.931 18.9438Z" fill="#FFEAE0"/>
<path d="M306.307 44.4563L307.61 40.0706C308.193 40.3619 308.873 40.6691 309.651 40.9922C310.457 41.3158 311.292 41.5979 312.155 41.8387C313.047 42.0519 313.899 42.1664 314.711 42.182C315.859 42.2042 316.813 42.1106 317.573 41.9012C318.333 41.6918 318.899 41.3667 319.272 40.9258C319.673 40.4575 319.88 39.8874 319.893 39.2155C319.906 38.5716 319.637 37.9923 319.086 37.4776C318.564 36.9634 317.888 36.4603 317.057 35.9682C316.227 35.448 315.383 34.9277 314.525 34.407C313.529 33.7717 312.533 33.1223 311.538 32.459C310.571 31.7962 309.674 31.0788 308.849 30.3067C308.024 29.5346 307.368 28.6958 306.881 27.7903C306.395 26.8567 306.163 25.844 306.184 24.7522C306.212 23.2965 306.615 22.002 307.393 20.8688C308.199 19.7362 309.336 18.848 310.805 18.2042C312.302 17.561 314.086 17.2593 316.157 17.2993C317.585 17.3269 319.009 17.5784 320.428 18.0539C321.847 18.5293 323.097 19.0436 324.179 19.5965L322.247 23.9281C321.692 23.6373 321.095 23.3597 320.456 23.0954C319.818 22.803 319.136 22.5658 318.412 22.3838C317.716 22.1743 316.962 22.0617 316.15 22.0461C314.918 22.0223 313.892 22.2405 313.071 22.7008C312.25 23.161 311.83 23.881 311.811 24.8608C311.797 25.5607 312.037 26.1815 312.531 26.7231C313.024 27.2647 313.687 27.7816 314.517 28.2737C315.348 28.7378 316.206 29.2725 317.091 29.8777C318.087 30.485 319.083 31.1064 320.079 31.7417C321.104 32.3496 322.029 33.0256 322.855 33.7696C323.681 34.4857 324.338 35.2965 324.824 36.2021C325.311 37.1077 325.542 38.1763 325.518 39.4081C325.489 40.9198 325.043 42.2555 324.181 43.415C323.319 44.5466 322.097 45.4472 320.516 46.1168C318.935 46.7864 316.996 47.0991 314.701 47.0548C314.113 47.0434 313.429 46.9462 312.648 46.7631C311.895 46.6085 311.115 46.4114 310.307 46.1718C309.5 45.9322 308.749 45.6656 308.054 45.3722C307.36 45.0787 306.777 44.7734 306.307 44.4563Z" fill="#FFEAE0"/>
<path d="M348.276 38.1919L356.745 48.6842L353.241 51.0977L344.312 40.5503L348.276 38.1919ZM346.897 19.3714C349.872 19.7285 352.308 20.6977 354.205 22.2791C356.133 23.836 357.492 25.7899 358.281 28.1408C359.102 30.4672 359.35 32.9787 359.026 35.6753C358.672 38.6221 357.778 41.1375 356.344 43.2214C354.909 45.3052 353.086 46.8631 350.876 47.895C348.668 48.899 346.157 49.2603 343.343 48.9788C340.396 48.6251 337.958 47.6697 336.03 46.1128C334.13 44.5592 332.771 42.6054 331.954 40.2512C331.137 37.897 330.89 35.3716 331.214 32.6749C331.564 29.7559 332.457 27.2544 333.891 25.1706C335.326 23.0867 337.162 21.5305 339.401 20.502C341.639 19.4735 344.138 19.0966 346.897 19.3714ZM336.848 33.309C336.615 35.2551 336.738 37.0465 337.218 38.6835C337.702 40.2926 338.504 41.6015 339.623 42.6101C340.771 43.6221 342.179 44.2282 343.847 44.4285C345.404 44.6154 346.839 44.4069 348.152 43.8031C349.496 43.1749 350.636 42.1413 351.57 40.7024C352.532 39.2668 353.153 37.3814 353.433 35.0462C353.67 33.0724 353.545 31.2948 353.058 29.7135C352.599 28.1355 351.796 26.8405 350.648 25.8285C349.532 24.7921 348.126 24.1721 346.43 23.9685C344.956 23.7916 343.529 24.0573 342.146 24.7656C340.764 25.4739 339.592 26.5458 338.63 27.9814C337.696 29.4203 337.102 31.1962 336.848 33.309Z" fill="#FFEAE0"/>
<path d="M370.643 23.7981L366.651 41.1098C366.299 42.6377 366.269 43.9525 366.561 45.0543C366.853 46.1561 367.409 47.0458 368.23 47.7235C369.05 48.4013 370.047 48.8754 371.22 49.1459C372.421 49.4228 373.528 49.4194 374.542 49.1359C375.583 48.8587 376.475 48.2888 377.22 47.4261C377.965 46.5634 378.508 45.3954 378.847 43.9221L382.839 26.6103L388.2 27.8466L384.114 45.5676C383.655 47.5593 382.762 49.25 381.436 50.6395C380.144 52.0081 378.531 52.958 376.598 53.4893C374.699 53.9996 372.573 53.9979 370.22 53.4841C367.895 52.9766 365.98 52.0609 364.475 50.7369C362.97 49.4128 361.939 47.839 361.382 46.0153C360.826 44.1917 360.777 42.284 361.237 40.2922L365.282 22.5618L370.643 23.7981Z" fill="#FFEAE0"/>
<path d="M407.288 64.0848L388.368 57.6275L397.592 30.5983L413.73 36.106L413.142 40.4317L401.336 36.4027L398.854 43.6767L407.678 46.6883L407.115 51.0673L397.456 47.7709L394.865 55.3629L407.784 59.7718L407.288 64.0848Z" fill="#FFEAE0"/>
<path d="M440.287 47.3962L439.35 51.6686L430.41 47.689L420.538 69.8671L415.511 67.6296L425.383 45.4516L417.441 41.9161L419.183 38.0023L440.287 47.3962Z" fill="#FFEAE0"/>
<path d="M450.575 85.5828L433.141 75.7974L447.12 50.8924L461.99 59.2388L460.626 63.3857L449.748 57.2801L445.986 63.9825L454.117 68.5462L452.768 72.7503L443.869 67.7548L439.942 74.7502L451.845 81.4314L450.575 85.5828Z" fill="#FFEAE0"/>
<path d="M470.022 87.4933C469.337 87.0067 468.823 86.4008 468.479 85.6758C468.159 84.9669 468.022 84.217 468.069 83.4259C468.155 82.6283 468.441 81.8871 468.928 81.2024C469.431 80.4949 470.037 79.9809 470.745 79.6603C471.454 79.3396 472.208 79.2223 473.005 79.3084C473.819 79.3716 474.568 79.6465 475.253 80.1332C475.938 80.6198 476.444 81.2371 476.771 81.985C477.114 82.71 477.254 83.4795 477.191 84.2934C477.144 85.0844 476.877 85.8223 476.391 86.507C475.904 87.1916 475.275 87.6895 474.505 88.0005C473.773 88.3049 473.02 88.4222 472.245 88.3524C471.47 88.2825 470.729 87.9962 470.022 87.4933Z" fill="#FFEAE0"/>
<path d="M488.811 114.494L480.058 106.703L499.045 85.3689L507.328 92.7404C508.708 93.969 509.745 95.2474 510.437 96.5756C511.15 97.9223 511.408 99.2956 511.212 100.695C511.055 102.093 510.335 103.513 509.05 104.956C508.343 105.751 507.46 106.259 506.402 106.479C505.363 106.678 504.345 106.747 503.35 106.686C503.865 108.044 504.045 109.422 503.888 110.82C503.752 112.236 503.098 113.603 501.925 114.92C501.051 115.903 500.091 116.624 499.047 117.081C498.023 117.557 496.935 117.769 495.782 117.717C494.628 117.665 493.451 117.367 492.249 116.822C491.087 116.275 489.941 115.499 488.811 114.494ZM503.716 95.5983L500.077 92.3593L495.358 97.6616L498.37 100.342C499.123 101.012 499.876 101.514 500.629 101.847C501.403 102.198 502.134 102.324 502.823 102.225C503.511 102.125 504.125 101.772 504.665 101.166C505.261 100.496 505.59 99.8524 505.653 99.2339C505.756 98.6131 505.621 98.0062 505.25 97.413C504.917 96.8175 504.406 96.2126 503.716 95.5983ZM497.101 105.116L492.426 100.956L487.093 106.948L491.485 110.857C492.217 111.509 492.947 111.952 493.675 112.188C494.423 112.442 495.13 112.49 495.795 112.332C496.5 112.172 497.122 111.789 497.662 111.182C498.556 110.178 498.932 109.145 498.79 108.082C498.668 106.998 498.105 106.01 497.101 105.116Z" fill="#FFEAE0"/>
<path d="M516.707 126.57L521.398 117.039L511.579 121.015L516.707 126.57ZM525.41 110.363L528.544 113.758L515.326 141.049L511.067 137.55L514.575 130.825L507.225 122.862L500.578 125.569L496.875 121.557L525.41 110.363Z" fill="#FFEAE0"/>
<path d="M517.377 141.277L521.617 139.559C521.753 140.196 521.937 140.92 522.17 141.729C522.42 142.561 522.72 143.389 523.071 144.214C523.461 145.044 523.903 145.782 524.397 146.426C525.096 147.337 525.764 148.024 526.402 148.487C527.04 148.951 527.648 149.19 528.225 149.207C528.841 149.228 529.416 149.034 529.949 148.625C530.46 148.233 530.745 147.661 530.804 146.91C530.88 146.181 530.851 145.339 530.717 144.383C530.606 143.409 530.486 142.425 530.357 141.43C530.232 140.255 530.119 139.072 530.016 137.88C529.93 136.71 529.932 135.562 530.02 134.436C530.109 133.309 530.355 132.273 530.759 131.328C531.185 130.365 531.832 129.552 532.698 128.887C533.853 128.001 535.116 127.508 536.487 127.409C537.876 127.332 539.279 127.667 540.699 128.413C542.135 129.182 543.484 130.388 544.745 132.032C545.615 133.165 546.306 134.434 546.82 135.84C547.334 137.245 547.712 138.543 547.955 139.733L543.364 140.926C543.245 140.311 543.09 139.672 542.898 139.007C542.728 138.326 542.488 137.645 542.178 136.966C541.908 136.291 541.525 135.631 541.031 134.987C540.281 134.01 539.47 133.344 538.598 132.989C537.726 132.635 536.902 132.756 536.124 133.352C535.569 133.778 535.233 134.353 535.118 135.077C535.003 135.801 535.012 136.641 535.146 137.597C535.302 138.536 535.419 139.54 535.498 140.609C535.645 141.767 535.781 142.933 535.906 144.107C536.07 145.287 536.119 146.432 536.052 147.542C536.008 148.634 535.784 149.653 535.38 150.598C534.976 151.544 534.285 152.391 533.308 153.141C532.108 154.062 530.786 154.546 529.342 154.596C527.92 154.628 526.454 154.235 524.944 153.417C523.434 152.6 521.98 151.28 520.583 149.458C520.225 148.992 519.874 148.396 519.53 147.672C519.181 146.987 518.848 146.254 518.532 145.474C518.215 144.693 517.955 143.94 517.751 143.214C517.547 142.488 517.422 141.843 517.377 141.277Z" fill="#FFEAE0"/>
<path d="M547.76 169.147L544.863 182.316L540.788 181.089L543.442 167.527L547.76 169.147ZM561.59 156.308C563.17 158.853 563.936 161.361 563.887 163.83C563.877 166.308 563.201 168.59 561.859 170.675C560.556 172.77 558.751 174.534 556.443 175.966C553.922 177.532 551.399 178.406 548.876 178.588C546.353 178.771 543.997 178.322 541.81 177.241C539.647 176.145 537.795 174.411 536.256 172.038C534.69 169.516 533.913 167.017 533.923 164.538C533.948 162.084 534.624 159.802 535.951 157.693C537.278 155.583 539.095 153.812 541.403 152.38C543.9 150.829 546.411 149.962 548.934 149.78C551.458 149.597 553.82 150.058 556.022 151.163C558.224 152.268 560.08 153.983 561.59 156.308ZM544.429 157.175C542.764 158.208 541.443 159.424 540.465 160.822C539.511 162.206 538.991 163.649 538.903 165.154C538.83 166.682 539.237 168.16 540.123 169.587C540.95 170.919 542.01 171.909 543.302 172.557C544.633 173.214 546.152 173.458 547.859 173.288C549.581 173.141 551.441 172.448 553.439 171.207C555.128 170.158 556.437 168.95 557.367 167.581C558.312 166.237 558.821 164.8 558.894 163.272C559.005 161.753 558.61 160.267 557.709 158.816C556.926 157.556 555.827 156.607 554.41 155.971C552.993 155.334 551.424 155.089 549.702 155.236C547.995 155.406 546.237 156.052 544.429 157.175Z" fill="#FFEAE0"/>
<path d="M573.926 179.496L557.889 187.141C556.474 187.816 555.426 188.61 554.745 189.524C554.064 190.438 553.713 191.427 553.693 192.491C553.673 193.556 553.922 194.631 554.44 195.718C554.97 196.83 555.662 197.695 556.514 198.312C557.379 198.954 558.381 199.299 559.52 199.345C560.658 199.392 561.91 199.09 563.275 198.439L579.312 190.794L581.68 195.761L565.264 203.586C563.418 204.466 561.539 204.819 559.627 204.645C557.751 204.484 556.004 203.813 554.385 202.63C552.804 201.461 551.483 199.795 550.422 197.634C549.372 195.497 548.898 193.428 548.998 191.426C549.098 189.424 549.689 187.638 550.771 186.068C551.852 184.498 553.315 183.273 555.161 182.393L571.559 174.53L573.926 179.496Z" fill="#FFEAE0"/>
<path d="M564.86 232.543L558.119 213.722L585.006 204.091L590.756 220.145L587.007 222.38L582.8 210.636L575.564 213.228L578.708 222.006L574.933 224.295L571.492 214.687L563.94 217.392L568.542 230.243L564.86 232.543Z" fill="#FFEAE0"/>
<path d="M598.549 248.398L594.622 250.326L592.17 240.852L568.669 246.934L567.29 241.608L590.792 235.525L588.613 227.109L592.761 226.035L598.549 248.398Z" fill="#FFEAE0"/>
<path d="M574.899 279.453L571.681 259.722L599.868 255.124L602.613 271.954L598.52 273.472L596.512 261.161L588.926 262.398L590.427 271.601L586.3 273.168L584.657 263.095L576.739 264.386L578.937 277.858L574.899 279.453Z" fill="#FFEAE0"/>
<path d="M585.474 295.172C585.425 294.333 585.576 293.553 585.927 292.832C586.28 292.138 586.779 291.562 587.426 291.104C588.102 290.672 588.859 290.432 589.698 290.383C590.564 290.333 591.344 290.484 592.038 290.837C592.732 291.189 593.294 291.704 593.726 292.38C594.186 293.054 594.44 293.811 594.489 294.65C594.537 295.488 594.372 296.269 593.993 296.992C593.642 297.714 593.13 298.304 592.455 298.764C591.809 299.222 591.066 299.476 590.228 299.524C589.389 299.573 588.607 299.394 587.882 298.987C587.187 298.606 586.625 298.092 586.194 297.444C585.764 296.796 585.524 296.038 585.474 295.172Z" fill="#FFEAE0"/>
</svg>
