<svg width="627" height="627" viewBox="0 0 627 627" fill="none" xmlns="http://www.w3.org/2000/svg">
<path d="M577.929 327.959L578.496 315.714L608.34 317.097L607.803 328.684C607.714 330.615 607.357 332.299 606.733 333.736C606.108 335.203 605.162 336.317 603.895 337.079C602.656 337.872 601.028 338.222 599.009 338.128C597.897 338.077 596.903 337.694 596.027 336.979C595.181 336.265 594.454 335.484 593.849 334.635C593.084 335.948 592.082 337.001 590.843 337.794C589.603 338.616 588.061 338.985 586.218 338.899C584.843 338.835 583.626 338.53 582.566 337.982C581.505 337.464 580.616 336.719 579.899 335.747C579.181 334.776 578.648 333.622 578.3 332.287C577.979 330.982 577.855 329.539 577.929 327.959ZM603.102 327.63L603.338 322.539L595.921 322.196L595.725 326.409C595.677 327.462 595.765 328.405 595.99 329.236C596.214 330.097 596.593 330.774 597.128 331.268C597.662 331.762 598.353 332.028 599.202 332.068C600.138 332.111 600.878 331.955 601.422 331.599C601.995 331.274 602.399 330.765 602.637 330.072C602.902 329.41 603.057 328.596 603.102 327.63ZM591.009 328.521L591.312 321.982L582.93 321.594L582.645 327.738C582.597 328.762 582.718 329.647 583.006 330.394C583.292 331.169 583.719 331.775 584.285 332.212C584.879 332.68 585.6 332.933 586.449 332.972C587.853 333.037 588.941 332.663 589.712 331.848C590.512 331.035 590.944 329.926 591.009 328.521Z" fill="#FFEAE0"/>
<path d="M586.339 358.663L597.189 356.262L587.522 350.844L586.339 358.663ZM605.264 355.173L604.541 359.951L573.613 367.002L573.686 361.237L581.472 359.704L583.168 348.497L576.611 344.838L577.466 339.191L605.264 355.173Z" fill="#FFEAE0"/>
<path d="M574.474 369.96L578.63 372.333C578.194 372.857 577.719 373.476 577.204 374.192C576.682 374.935 576.196 375.718 575.744 376.54C575.314 377.398 574.994 378.238 574.785 379.061C574.488 380.225 574.356 381.219 574.388 382.043C574.42 382.867 574.616 383.522 574.976 384.006C575.357 384.527 575.888 384.874 576.57 385.047C577.222 385.213 577.877 385.078 578.532 384.64C579.18 384.231 579.854 383.662 580.554 382.934C581.281 382.212 582.013 381.477 582.748 380.727C583.633 379.864 584.532 379.005 585.445 378.15C586.351 377.323 587.295 376.581 588.279 375.925C589.262 375.268 590.273 374.801 591.311 374.521C592.378 374.249 593.465 374.254 594.572 374.536C596.048 374.912 597.27 375.631 598.239 376.694C599.2 377.785 599.833 379.155 600.138 380.805C600.436 382.483 600.318 384.372 599.783 386.472C599.414 387.92 598.818 389.31 597.995 390.641C597.172 391.973 596.35 393.124 595.529 394.094L591.578 391.092C592.007 390.597 592.432 390.055 592.853 389.468C593.304 388.887 593.708 388.25 594.066 387.555C594.446 386.896 594.74 386.155 594.95 385.332C595.268 384.083 595.291 382.985 595.018 382.039C594.745 381.093 594.112 380.494 593.118 380.241C592.409 380.06 591.719 380.156 591.05 380.53C590.38 380.903 589.696 381.454 588.997 382.183C588.325 382.919 587.576 383.665 586.749 384.421C585.892 385.291 585.022 386.158 584.137 387.02C583.273 387.919 582.364 388.7 581.409 389.363C580.483 390.034 579.5 390.509 578.462 390.789C577.423 391.068 576.28 391.049 575.031 390.731C573.498 390.34 572.244 389.567 571.269 388.412C570.322 387.264 569.697 385.805 569.392 384.035C569.087 382.264 569.231 380.216 569.824 377.888C569.976 377.292 570.238 376.618 570.611 375.867C570.948 375.137 571.335 374.389 571.772 373.624C572.209 372.858 572.66 372.157 573.124 371.52C573.589 370.883 574.039 370.363 574.474 369.96Z" fill="#FFEAE0"/>
<path d="M571.125 412.742L558.384 418.794L556.785 414.639L569.695 408.135L571.125 412.742ZM590.605 415.938C589.515 418.877 587.934 421.117 585.862 422.661C583.808 424.241 581.488 425.146 578.904 425.375C576.338 425.641 573.722 425.28 571.058 424.292C568.148 423.212 565.808 421.688 564.038 419.72C562.269 417.751 561.13 415.517 560.621 413.016C560.139 410.526 560.385 407.883 561.359 405.089C562.439 402.178 564.006 399.932 566.06 398.352C568.105 396.798 570.424 395.893 573.019 395.637C575.613 395.381 578.242 395.747 580.906 396.736C583.789 397.805 586.115 399.324 587.884 401.292C589.654 403.261 590.788 405.509 591.287 408.037C591.786 410.566 591.559 413.199 590.605 415.938ZM578.884 402.312C576.962 401.599 575.109 401.286 573.327 401.375C571.572 401.474 570.045 401.97 568.745 402.862C567.436 403.782 566.475 405.066 565.864 406.714C565.294 408.251 565.155 409.762 565.448 411.245C565.759 412.766 566.532 414.178 567.767 415.48C568.992 416.809 570.758 417.901 573.065 418.757C575.015 419.48 576.853 419.787 578.581 419.678C580.298 419.597 581.811 419.096 583.121 418.176C584.448 417.294 585.422 416.015 586.044 414.34C586.584 412.884 586.662 411.367 586.279 409.788C585.897 408.209 585.093 406.755 583.868 405.426C582.632 404.124 580.971 403.086 578.884 402.312Z" fill="#FFEAE0"/>
<path d="M579.281 441.001L562.719 432.571C561.257 431.827 559.93 431.464 558.738 431.482C557.546 431.499 556.502 431.839 555.606 432.501C554.711 433.162 553.977 434.054 553.406 435.177C552.821 436.325 552.545 437.45 552.576 438.55C552.594 439.677 552.947 440.728 553.634 441.702C554.322 442.676 555.37 443.522 556.78 444.239L573.342 452.67L570.731 457.799L553.777 449.17C551.872 448.2 550.381 446.866 549.306 445.168C548.244 443.51 547.688 441.633 547.637 439.537C547.6 437.48 548.139 435.322 549.256 433.064C550.359 430.832 551.773 429.12 553.497 427.927C555.222 426.734 557.08 426.086 559.072 425.982C561.064 425.879 563.012 426.312 564.918 427.282L581.892 435.872L579.281 441.001Z" fill="#FFEAE0"/>
<path d="M529.451 467.172L540.807 449.61L565.895 465.833L556.209 480.812L551.969 479.116L559.054 468.159L552.303 463.793L547.007 471.984L542.706 470.301L548.503 461.336L541.456 456.779L533.703 468.77L529.451 467.172Z" fill="#FFEAE0"/>
<path d="M537.371 505.393L533.284 503.338L539.633 495.307L519.713 479.557L523.282 475.042L543.203 490.793L548.843 483.658L552.359 486.438L537.371 505.393Z" fill="#FFEAE0"/>
<path d="M496.626 505.027L511.088 489.92L532.669 510.58L520.334 523.466L516.489 521.001L525.512 511.575L519.705 506.016L512.96 513.061L509.053 510.598L516.436 502.886L510.374 497.083L500.5 507.398L496.626 505.027Z" fill="#FFEAE0"/>
<path d="M480.537 531.348C481.234 530.813 481.998 530.486 482.828 530.365C483.636 530.263 484.428 530.356 485.204 530.647C485.975 530.978 486.628 531.492 487.163 532.189C487.716 532.91 488.043 533.674 488.146 534.481C488.249 535.288 488.134 536.078 487.803 536.849C487.489 537.643 486.984 538.308 486.287 538.842C485.59 539.377 484.817 539.693 483.968 539.791C483.138 539.911 482.325 539.814 481.531 539.501C480.755 539.211 480.099 538.717 479.564 538.02C479.029 537.323 478.725 536.541 478.651 535.675C478.572 534.849 478.686 534.06 478.994 533.307C479.302 532.554 479.816 531.901 480.537 531.348Z" fill="#FFEAE0"/>
<path d="M437.881 547.213L448.636 541.332L462.97 567.544L452.793 573.109C451.097 574.037 449.473 574.608 447.921 574.822C446.344 575.051 444.9 574.822 443.59 574.136C442.269 573.49 441.123 572.28 440.154 570.507C439.62 569.53 439.43 568.482 439.586 567.362C439.755 566.268 440.045 565.242 440.456 564.283C438.936 564.312 437.516 564.004 436.194 563.358C434.847 562.726 433.731 561.6 432.846 559.981C432.185 558.774 431.813 557.575 431.73 556.385C431.622 555.209 431.796 554.062 432.253 552.945C432.71 551.827 433.418 550.772 434.378 549.78C435.326 548.827 436.494 547.972 437.881 547.213ZM451.249 568.546L455.721 566.1L452.159 559.586L448.458 561.609C447.533 562.115 446.774 562.681 446.181 563.305C445.562 563.944 445.18 564.62 445.036 565.333C444.892 566.046 445.024 566.776 445.431 567.521C445.881 568.343 446.399 568.894 446.986 569.174C447.562 569.494 448.207 569.575 448.922 569.418C449.626 569.3 450.401 569.009 451.249 568.546ZM444.202 558.679L449.945 555.538L445.919 548.175L440.522 551.127C439.623 551.618 438.929 552.181 438.441 552.815C437.928 553.463 437.632 554.143 437.553 554.854C437.462 555.604 437.621 556.352 438.029 557.097C438.703 558.331 439.589 559.065 440.685 559.3C441.796 559.561 442.968 559.354 444.202 558.679Z" fill="#FFEAE0"/>
<path d="M415.927 570.273L423.589 578.323L423.234 567.247L415.927 570.273ZM428.692 584.674L424.227 586.523L402.213 563.684L407.187 560.768L412.522 566.643L422.994 562.305L422.74 554.802L428.016 552.616L428.692 584.674Z" fill="#FFEAE0"/>
<path d="M400.432 565.827L400.554 570.612C399.88 570.51 399.104 570.424 398.226 570.355C397.319 570.293 396.398 570.282 395.461 570.322C394.504 570.398 393.62 570.56 392.807 570.807C391.658 571.156 390.739 571.558 390.051 572.012C389.362 572.466 388.904 572.972 388.676 573.531C388.428 574.127 388.406 574.761 388.611 575.434C388.807 576.078 389.261 576.568 389.975 576.902C390.661 577.245 391.497 577.526 392.482 577.747C393.476 577.996 394.484 578.241 395.506 578.482C396.702 578.792 397.903 579.116 399.108 579.454C400.284 579.801 401.408 580.225 402.479 580.726C403.549 581.227 404.473 581.849 405.25 582.593C406.035 583.365 406.594 584.297 406.926 585.39C407.369 586.847 407.386 588.265 406.979 589.644C406.543 591.032 405.699 592.283 404.446 593.398C403.165 594.522 401.487 595.399 399.413 596.029C397.984 596.463 396.487 596.673 394.921 596.659C393.356 596.645 391.946 596.538 390.691 596.337L391.212 591.403C391.858 591.513 392.541 591.597 393.263 591.653C393.992 591.737 394.747 591.753 395.527 591.7C396.287 591.683 397.074 591.551 397.886 591.304C399.119 590.93 400.07 590.381 400.738 589.658C401.406 588.934 401.591 588.082 401.293 587.101C401.08 586.401 400.641 585.861 399.974 585.481C399.308 585.102 398.482 584.802 397.497 584.581C396.52 584.388 395.494 584.134 394.418 583.817C393.23 583.535 392.038 583.239 390.842 582.929C389.626 582.656 388.487 582.282 387.425 581.809C386.372 581.364 385.456 580.77 384.679 580.026C383.903 579.282 383.327 578.294 382.952 577.061C382.492 575.548 382.504 574.075 382.987 572.642C383.479 571.238 384.403 569.947 385.76 568.769C387.116 567.592 388.944 566.654 391.242 565.956C391.83 565.777 392.542 565.653 393.378 565.582C394.177 565.493 395.017 565.436 395.898 565.414C396.779 565.391 397.613 565.413 398.398 565.481C399.184 565.548 399.862 565.664 400.432 565.827Z" fill="#FFEAE0"/>
<path d="M362.536 585.024L350.736 577.295L353.451 573.768L365.725 581.404L362.536 585.024ZM369.947 603.321C366.871 603.92 364.135 603.736 361.739 602.77C359.319 601.839 357.339 600.329 355.799 598.242C354.236 596.189 353.182 593.768 352.639 590.98C352.046 587.932 352.129 585.141 352.889 582.606C353.649 580.07 354.964 577.935 356.834 576.198C358.709 574.49 361.093 573.324 363.986 572.701C367.033 572.108 369.767 572.277 372.186 573.209C374.577 574.146 376.557 575.655 378.126 577.737C379.695 579.818 380.751 582.254 381.294 585.042C381.882 588.061 381.796 590.838 381.036 593.373C380.276 595.908 378.947 598.047 377.048 599.79C375.149 601.532 372.783 602.709 369.947 603.321ZM375.48 586.219C375.088 584.207 374.391 582.462 373.387 580.987C372.389 579.54 371.171 578.494 369.733 577.849C368.265 577.21 366.669 577.058 364.944 577.394C363.334 577.707 361.972 578.375 360.858 579.398C359.721 580.455 358.919 581.849 358.45 583.582C357.953 585.32 357.94 587.396 358.41 589.811C358.807 591.853 359.502 593.582 360.494 595C361.458 596.424 362.673 597.456 364.141 598.095C365.585 598.769 367.184 598.935 368.938 598.594C370.461 598.297 371.798 597.574 372.947 596.425C374.096 595.277 374.919 593.833 375.416 592.095C375.884 590.363 375.906 588.404 375.48 586.219Z" fill="#FFEAE0"/>
<path d="M342.312 606.686L340.951 588.151C340.831 586.515 340.455 585.192 339.823 584.181C339.19 583.17 338.359 582.453 337.33 582.029C336.3 581.606 335.157 581.44 333.901 581.532C332.616 581.627 331.51 581.972 330.585 582.569C329.63 583.167 328.914 584.013 328.436 585.105C327.959 586.198 327.778 587.533 327.893 589.11L329.254 607.645L323.514 608.066L322.121 589.093C321.965 586.961 322.334 584.995 323.23 583.197C324.099 581.43 325.417 579.982 327.184 578.853C328.925 577.757 331.05 577.101 333.56 576.888C336.041 576.676 338.238 576.999 340.151 577.857C342.064 578.715 343.581 579.97 344.701 581.62C345.82 583.271 346.459 585.162 346.615 587.295L348.052 606.264L342.312 606.686Z" fill="#FFEAE0"/>
<path d="M292.914 577.598L313.817 578.243L312.895 608.105L295.065 607.554L294.326 603.048L307.368 603.451L307.616 595.415L297.867 595.113L297.085 590.562L307.756 590.891L308.015 582.504L293.743 582.063L292.914 577.598Z" fill="#FFEAE0"/>
<path d="M264.539 604.182L264.175 599.622L274.334 600.881L277.457 575.679L283.169 576.387L280.046 601.589L289.071 602.707L288.52 607.155L264.539 604.182Z" fill="#FFEAE0"/>
<path d="M243.869 569.119L264.283 573.663L257.792 602.825L240.38 598.95L240.496 594.385L253.233 597.22L254.98 589.371L245.459 587.252L245.542 582.635L255.963 584.954L257.786 576.763L243.849 573.661L243.869 569.119Z" fill="#FFEAE0"/>
<path d="M213.127 568.924C213.945 569.245 214.62 569.73 215.152 570.379C215.656 571.018 215.985 571.744 216.137 572.559C216.251 573.391 216.148 574.215 215.827 575.033C215.495 575.879 215.01 576.554 214.371 577.058C213.733 577.563 212.998 577.872 212.167 577.986C211.324 578.128 210.494 578.038 209.676 577.717C208.858 577.396 208.189 576.897 207.668 576.221C207.136 575.572 206.799 574.826 206.658 573.984C206.505 573.169 206.59 572.353 206.911 571.535C207.232 570.717 207.744 570.052 208.448 569.542C209.114 569.048 209.849 568.739 210.653 568.614C211.457 568.489 212.282 568.592 213.127 568.924Z" fill="#FFEAE0"/>
<path d="M177.599 540.543L188.175 546.738L173.075 572.517L163.066 566.654C161.398 565.677 160.073 564.579 159.091 563.358C158.083 562.123 157.536 560.767 157.451 559.291C157.325 557.826 157.772 556.221 158.794 554.477C159.357 553.517 160.158 552.815 161.198 552.372C162.224 551.954 163.253 551.675 164.286 551.533C163.479 550.246 163.013 548.869 162.887 547.404C162.735 545.923 163.126 544.387 164.059 542.795C164.755 541.607 165.591 540.671 166.569 539.988C167.521 539.29 168.594 538.849 169.787 538.666C170.981 538.482 172.25 538.547 173.595 538.859C174.899 539.182 176.234 539.743 177.599 540.543ZM166.185 562.982L170.583 565.558L174.336 559.151L170.696 557.019C169.786 556.486 168.911 556.126 168.07 555.939C167.204 555.738 166.428 555.758 165.742 556.002C165.057 556.245 164.499 556.733 164.07 557.466C163.596 558.275 163.39 559.003 163.452 559.65C163.474 560.308 163.737 560.903 164.24 561.435C164.703 561.978 165.351 562.494 166.185 562.982ZM171.019 551.862L176.667 555.171L180.909 547.93L175.602 544.821C174.717 544.303 173.877 543.998 173.083 543.906C172.263 543.799 171.528 543.894 170.878 544.193C170.188 544.501 169.628 545.022 169.199 545.755C168.488 546.968 168.314 548.105 168.677 549.166C169.025 550.253 169.806 551.151 171.019 551.862Z" fill="#FFEAE0"/>
<path d="M146.563 533.633L143.619 544.348L152.924 538.331L146.563 533.633ZM140.81 551.996L136.923 549.125L145.135 518.485L150.199 521.242L147.917 528.842L157.034 535.577L163.331 531.489L167.926 534.883L140.81 551.996Z" fill="#FFEAE0"/>
<path d="M142.332 518.037L138.295 520.607C138.034 519.977 137.708 519.268 137.315 518.479C136.901 517.671 136.435 516.875 135.918 516.093C135.36 515.312 134.766 514.637 134.136 514.068C133.244 513.263 132.427 512.683 131.683 512.327C130.939 511.97 130.268 511.839 129.672 511.931C129.034 512.026 128.479 512.334 128.008 512.856C127.556 513.356 127.371 513.998 127.453 514.782C127.512 515.546 127.701 516.407 128.02 517.366C128.319 518.346 128.628 519.336 128.949 520.336C129.299 521.521 129.64 522.717 129.971 523.923C130.281 525.11 130.496 526.292 130.618 527.468C130.74 528.644 130.683 529.756 130.446 530.805C130.19 531.876 129.678 532.835 128.913 533.683C127.892 534.813 126.686 535.559 125.294 535.92C123.88 536.262 122.373 536.183 120.771 535.684C119.148 535.165 117.532 534.179 115.924 532.727C114.815 531.725 113.863 530.55 113.069 529.201C112.274 527.852 111.64 526.588 111.165 525.41L115.662 523.314C115.9 523.924 116.181 524.553 116.505 525.2C116.808 525.869 117.184 526.524 117.631 527.165C118.037 527.808 118.555 528.414 119.186 528.983C120.142 529.847 121.103 530.379 122.067 530.578C123.031 530.778 123.856 530.498 124.544 529.737C125.034 529.193 125.271 528.538 125.252 527.772C125.234 527.006 125.066 526.143 124.747 525.185C124.409 524.248 124.099 523.237 123.815 522.153C123.445 520.989 123.084 519.815 122.734 518.63C122.342 517.448 122.075 516.279 121.933 515.125C121.772 513.993 121.81 512.902 122.046 511.853C122.283 510.804 122.834 509.801 123.698 508.845C124.758 507.671 126.026 506.922 127.503 506.598C128.96 506.296 130.542 506.422 132.25 506.978C133.958 507.534 135.704 508.617 137.486 510.227C137.943 510.639 138.416 511.185 138.907 511.865C139.396 512.504 139.877 513.195 140.35 513.938C140.824 514.682 141.234 515.407 141.581 516.115C141.928 516.824 142.179 517.464 142.332 518.037Z" fill="#FFEAE0"/>
<path d="M106.345 495.528L106.876 481.432L111.299 481.937L111.091 496.392L106.345 495.528ZM94.4978 511.318C92.3973 508.992 91.1424 506.554 90.7331 504.003C90.2824 501.45 90.5536 498.975 91.5466 496.578C92.4983 494.18 94.0284 492.028 96.1369 490.124C98.4411 488.043 100.875 486.674 103.439 486.017C106.002 485.359 108.51 485.383 110.963 486.089C113.394 486.814 115.622 488.254 117.649 490.411C119.729 492.715 120.995 495.144 121.446 497.697C121.877 500.228 121.606 502.703 120.632 505.121C119.659 507.539 118.118 509.7 116.009 511.605C113.727 513.666 111.304 515.025 108.74 515.683C106.177 516.34 103.659 516.305 101.187 515.578C98.7144 514.851 96.4848 513.431 94.4978 511.318ZM112.001 507.232C113.523 505.858 114.657 504.36 115.403 502.739C116.128 501.138 116.395 499.555 116.205 497.99C115.995 496.403 115.302 494.957 114.124 493.653C113.024 492.436 111.749 491.614 110.299 491.187C108.807 490.759 107.198 490.791 105.472 491.284C103.727 491.755 101.941 492.815 100.115 494.464C98.572 495.858 97.449 497.346 96.7463 498.927C96.024 500.487 95.7676 502.061 95.9772 503.648C96.1453 505.232 96.8282 506.688 98.0257 508.014C99.0661 509.166 100.375 509.937 101.952 510.329C103.529 510.72 105.19 510.68 106.935 510.209C108.661 509.716 110.349 508.724 112.001 507.232Z" fill="#FFEAE0"/>
<path d="M77.3268 489.441L92.4748 478.674C93.8117 477.724 94.7487 476.716 95.2857 475.652C95.8228 474.587 96.0057 473.505 95.8346 472.405C95.6635 471.305 95.2132 470.241 94.4835 469.215C93.7368 468.164 92.8686 467.398 91.8789 466.915C90.8722 466.409 89.778 466.235 88.5961 466.392C87.4142 466.549 86.1787 467.086 84.8895 468.002L69.7416 478.769L66.4071 474.078L81.9131 463.057C83.6559 461.818 85.5286 461.116 87.5311 460.95C89.4927 460.778 91.4139 461.155 93.2947 462.082C95.1346 463.002 96.7962 464.48 98.2794 466.517C99.7457 468.529 100.607 470.575 100.865 472.656C101.122 474.737 100.835 476.684 100.003 478.497C99.1719 480.31 97.8847 481.836 96.1419 483.075L80.6613 494.132L77.3268 489.441Z" fill="#FFEAE0"/>
<path d="M77.2655 433.265L87.5689 451.464L61.5705 466.183L52.7823 450.661L56.2491 447.688L62.6779 459.044L69.6746 455.082L64.8692 446.595L68.3526 443.562L73.6126 452.853L80.9151 448.718L73.8802 436.293L77.2655 433.265Z" fill="#FFEAE0"/>
<path d="M39.6861 422.5L43.405 419.835L47.568 429.187L70.7679 418.86L73.1085 424.118L49.9085 434.445L53.6069 442.754L49.5128 444.576L39.6861 422.5Z" fill="#FFEAE0"/>
<path d="M59.0057 386.904L65.686 406.722L37.3751 416.265L31.6773 399.362L35.6432 397.098L39.8114 409.463L47.4303 406.895L44.3147 397.652L48.3082 395.332L51.7185 405.449L59.6706 402.769L55.1094 389.238L59.0057 386.904Z" fill="#FFEAE0"/>
<path d="M43.2753 361.083C43.4267 361.949 43.3635 362.778 43.0858 363.57C42.803 364.333 42.3532 364.991 41.7364 365.545C41.0858 366.075 40.3277 366.416 39.4621 366.568C38.5677 366.724 37.7389 366.661 36.9758 366.378C36.2127 366.095 35.5661 365.628 35.036 364.978C34.4771 364.332 34.1219 363.577 33.9705 362.711C33.8191 361.846 33.8967 361.014 34.2033 360.217C34.481 359.425 34.9427 358.75 35.5883 358.191C36.2051 357.637 36.9462 357.284 37.8118 357.133C38.6773 356.981 39.5111 357.073 40.3132 357.409C41.0813 357.721 41.728 358.187 42.253 358.809C42.7781 359.431 43.1188 360.189 43.2753 361.083Z" fill="#FFEAE0"/>
<path d="M48.9515 315.576L49.1407 327.832L19.2683 328.294L19.0892 316.696C19.0594 314.763 19.3114 313.06 19.8452 311.587C20.3786 310.085 21.254 308.914 22.4713 308.075C23.659 307.208 25.2632 306.758 27.284 306.727C28.3969 306.71 29.4125 307.031 30.3307 307.69C31.2197 308.35 31.9927 309.086 32.6497 309.896C33.3318 308.538 34.2666 307.425 35.4543 306.557C36.6415 305.66 38.1576 305.197 40.0027 305.168C41.3791 305.147 42.613 305.377 43.7043 305.858C44.7952 306.31 45.7285 306.999 46.5045 307.924C47.2804 308.849 47.8835 309.968 48.3139 311.28C48.7145 312.562 48.927 313.994 48.9515 315.576ZM23.8465 317.457L23.9252 322.553L31.3494 322.439L31.2843 318.221C31.268 317.167 31.1217 316.232 30.8455 315.416C30.5688 314.571 30.1486 313.918 29.5849 313.458C29.0213 312.998 28.3148 312.775 27.4654 312.788C26.5283 312.802 25.799 313.004 25.2778 313.393C24.7267 313.753 24.3541 314.286 24.16 314.992C23.9361 315.669 23.8316 316.491 23.8465 317.457ZM35.861 315.822L35.9621 322.368L44.3527 322.238L44.2577 316.088C44.2419 315.063 44.0673 314.187 43.7338 313.459C43.3999 312.703 42.9369 312.124 42.3448 311.723C41.723 311.293 40.9875 311.085 40.1382 311.098C38.7324 311.12 37.67 311.561 36.9509 312.422C36.2026 313.283 35.8393 314.416 35.861 315.822Z" fill="#FFEAE0"/>
<path d="M38.773 284.171L28.0792 287.194L38.0421 292.046L38.773 284.171ZM20.081 288.746L20.5277 283.934L50.9978 275.113L51.2574 280.873L43.5726 282.852L42.5251 294.138L49.281 297.413L48.7532 303.1L20.081 288.746Z" fill="#FFEAE0"/>
<path d="M49.8092 273.088L45.5164 270.972C45.9193 270.423 46.3559 269.776 46.826 269.03C47.3017 268.256 47.7396 267.445 48.1399 266.597C48.5169 265.715 48.785 264.857 48.9441 264.022C49.1691 262.843 49.2406 261.843 49.1586 261.022C49.0766 260.201 48.8411 259.56 48.4521 259.098C48.0398 258.602 47.4884 258.288 46.7979 258.156C46.1362 258.03 45.4915 258.205 44.8638 258.682C44.2417 259.13 43.6037 259.739 42.95 260.509C42.2675 261.273 41.5822 262.052 40.8942 262.845C40.0637 263.76 39.2187 264.672 38.3594 265.582C37.5056 266.463 36.608 267.26 35.6665 267.975C34.7251 268.69 33.7446 269.219 32.7251 269.561C31.6769 269.898 30.5917 269.959 29.4696 269.745C27.9735 269.46 26.7097 268.816 25.6783 267.815C24.6523 266.784 23.9367 265.455 23.5316 263.827C23.1319 262.17 23.1351 260.278 23.5412 258.148C23.8211 256.681 24.3311 255.258 25.0714 253.878C25.8116 252.499 26.562 251.3 27.3227 250.282L31.4489 253.037C31.0514 253.558 30.6601 254.124 30.2749 254.736C29.861 255.343 29.4964 256.004 29.1811 256.719C28.8425 257.4 28.5936 258.158 28.4345 258.992C28.193 260.258 28.2372 261.355 28.5672 262.283C28.8972 263.21 29.5657 263.77 30.5727 263.962C31.292 264.1 31.9743 263.961 32.6198 263.548C33.2652 263.134 33.9148 262.542 34.5685 261.773C35.1935 260.997 35.8959 260.207 36.6757 259.401C37.4775 258.481 38.2936 257.563 39.1242 256.648C39.9314 255.699 40.7914 254.864 41.7041 254.143C42.588 253.417 43.5397 252.883 44.5592 252.541C45.5786 252.199 46.7213 252.148 47.9873 252.39C49.5409 252.686 50.8397 253.381 51.8834 254.475C52.8984 255.563 53.6119 256.981 54.0239 258.73C54.4359 260.478 54.4168 262.532 53.9668 264.891C53.8516 265.495 53.6308 266.184 53.3046 266.956C53.0125 267.706 52.6719 268.476 52.2825 269.266C51.8932 270.057 51.4861 270.784 51.0612 271.448C50.6363 272.113 50.2189 272.659 49.8092 273.088Z" fill="#FFEAE0"/>
<path d="M50.2666 230.948L62.5947 224.093L64.456 228.136L51.9892 235.454L50.2666 230.948ZM30.622 229.005C31.5216 226.003 32.9559 223.666 34.9249 221.993C36.8742 220.284 39.1309 219.232 41.695 218.839C44.2394 218.409 46.8724 218.602 49.594 219.417C52.5681 220.308 55.0009 221.68 56.8924 223.531C58.7838 225.382 60.0638 227.539 60.7322 230.002C61.3726 232.456 61.2963 235.109 60.5032 237.96C59.612 240.934 58.1917 243.275 56.2424 244.984C54.3015 246.666 52.0448 247.717 49.4723 248.138C46.8998 248.56 44.2528 248.363 41.5312 247.548C38.5852 246.665 36.1664 245.298 34.2749 243.447C32.3835 241.596 31.1077 239.425 30.4477 236.934C29.7876 234.442 29.8457 231.8 30.622 229.005ZM43.1917 241.853C45.1557 242.442 47.0242 242.635 48.7973 242.432C50.5422 242.221 52.0346 241.629 53.2743 240.655C54.5224 239.653 55.3987 238.31 55.9032 236.627C56.374 235.056 56.4157 233.539 56.0281 232.078C55.6208 230.58 54.7591 229.221 53.443 228.001C52.1352 226.753 50.3029 225.776 47.9461 225.069C45.954 224.472 44.0995 224.284 42.3827 224.503C40.6742 224.694 39.1959 225.291 37.9477 226.293C36.6799 227.258 35.7896 228.597 35.2767 230.308C34.8311 231.795 34.8498 233.315 35.3328 234.866C35.8158 236.417 36.7112 237.817 38.0189 239.065C39.3351 240.285 41.0593 241.214 43.1917 241.853Z" fill="#FFEAE0"/>
<path d="M40.753 202.108L57.7874 209.539C59.2908 210.195 60.637 210.479 61.826 210.39C63.015 210.302 64.0368 209.901 64.8914 209.187C65.746 208.473 66.4251 207.539 66.9287 206.385C67.444 205.203 67.6532 204.064 67.5565 202.968C67.4714 201.844 67.0569 200.816 66.3129 199.885C65.5689 198.953 64.4721 198.171 63.0224 197.538L45.988 190.108L48.2892 184.832L65.7263 192.439C67.6862 193.294 69.2531 194.536 70.4272 196.167C71.5861 197.759 72.2531 199.6 72.4281 201.689C72.5879 203.74 72.1777 205.926 71.1973 208.247C70.2287 210.54 68.9191 212.334 67.2685 213.627C65.6179 214.92 63.8015 215.678 61.8193 215.9C59.8372 216.121 57.8662 215.805 55.9064 214.95L38.4517 207.384L40.753 202.108Z" fill="#FFEAE0"/>
<path d="M88.7461 173.315L78.4426 191.514L52.4442 176.794L61.2324 161.272L65.5651 162.715L59.1362 174.07L66.1329 178.031L70.9383 169.544L75.3308 170.97L70.0709 180.261L77.3734 184.395L84.4083 171.97L88.7461 173.315Z" fill="#FFEAE0"/>
<path d="M78.7563 135.276L82.9569 137.09L77.0873 145.477L97.893 160.037L94.5929 164.753L73.7873 150.192L68.5727 157.643L64.9011 155.074L78.7563 135.276Z" fill="#FFEAE0"/>
<path d="M118.578 134.17L105.077 150.141L82.2608 130.853L93.7766 117.231L97.7663 119.453L89.3421 129.418L95.4823 134.609L101.779 127.16L105.831 129.377L98.9382 137.53L105.347 142.948L114.565 132.043L118.578 134.17Z" fill="#FFEAE0"/>
<path d="M132.91 106.835C132.247 107.412 131.505 107.786 130.683 107.958C129.884 108.11 129.088 108.066 128.295 107.824C127.505 107.541 126.821 107.068 126.244 106.405C125.648 105.72 125.274 104.978 125.121 104.179C124.969 103.379 125.034 102.585 125.317 101.795C125.581 100.982 126.044 100.288 126.707 99.7108C127.37 99.1339 128.122 98.7706 128.962 98.6212C129.784 98.4496 130.601 98.4958 131.413 98.7595C132.206 99.0012 132.891 99.4534 133.468 100.116C134.045 100.779 134.397 101.54 134.524 102.4C134.655 103.219 134.589 104.014 134.328 104.785C134.067 105.555 133.595 106.239 132.91 106.835Z" fill="#FFEAE0"/>
<path d="M174.717 88.0808L164.327 94.585L148.475 69.2616L158.306 63.1071C159.945 62.0813 161.532 61.4158 163.069 61.1104C164.63 60.7895 166.085 60.9328 167.433 61.5404C168.79 62.1076 170.005 63.2477 171.077 64.9607C171.668 65.9042 171.918 66.9394 171.829 68.0665C171.724 69.1688 171.495 70.2106 171.142 71.1919C172.657 71.0729 174.093 71.2969 175.451 71.8641C176.833 72.4158 178.013 73.4736 178.992 75.0377C179.723 76.2046 180.164 77.3794 180.317 78.5622C180.495 79.7295 180.389 80.8845 179.999 82.0274C179.608 83.1702 178.963 84.2651 178.064 85.312C177.173 86.3186 176.058 87.2415 174.717 88.0808ZM160.116 67.572L155.796 70.2762L159.736 76.5698L163.311 74.3318C164.205 73.7723 164.929 73.1633 165.485 72.5047C166.065 71.8305 166.406 71.1332 166.508 70.4129C166.61 69.6925 166.435 68.9723 165.985 68.2523C165.487 67.4579 164.937 66.9382 164.335 66.6934C163.742 66.4082 163.093 66.3652 162.388 66.5644C161.693 66.7232 160.935 67.0591 160.116 67.572ZM167.733 77.0065L162.184 80.48L166.637 87.5929L171.85 84.3292C172.719 83.7852 173.379 83.1824 173.828 82.5208C174.303 81.8436 174.558 81.148 174.595 80.4339C174.641 79.6794 174.439 78.9421 173.988 78.2222C173.242 77.0305 172.315 76.3496 171.206 76.1797C170.082 75.9849 168.924 76.2605 167.733 77.0065Z" fill="#FFEAE0"/>
<path d="M194.425 64.006L186.27 56.4572L187.325 67.4884L194.425 64.006ZM180.775 50.4418L185.114 48.3137L208.529 69.7141L203.749 72.9392L198.054 67.4135L187.877 72.4049L188.605 79.8771L183.477 82.3922L180.775 50.4418Z" fill="#FFEAE0"/>
<path d="M211.36 66.8734L210.95 62.105C211.629 62.1657 212.408 62.2045 213.289 62.2213C214.198 62.228 215.118 62.1833 216.051 62.0872C217.001 61.9534 217.875 61.7388 218.671 61.4434C219.797 61.0258 220.69 60.5696 221.35 60.0748C222.01 59.5801 222.437 59.0468 222.631 58.475C222.842 57.8655 222.825 57.2312 222.581 56.5722C222.347 55.9405 221.863 55.4795 221.131 55.1889C220.425 54.8881 219.574 54.6571 218.577 54.4959C217.57 54.3072 216.549 54.1236 215.515 53.945C214.302 53.7076 213.084 53.4564 211.861 53.1916C210.666 52.9165 209.518 52.561 208.42 52.1251C207.321 51.6893 206.361 51.1237 205.541 50.4282C204.71 49.7054 204.096 48.8084 203.699 47.7374C203.169 46.3094 203.066 44.8949 203.39 43.494C203.741 42.0828 204.509 40.7828 205.692 39.594C206.903 38.395 208.525 37.4186 210.557 36.6648C211.958 36.1453 213.44 35.8454 215.003 35.7653C216.567 35.6852 217.981 35.7073 219.245 35.8318L219.022 40.7882C218.371 40.7173 217.684 40.6754 216.96 40.6626C216.227 40.6222 215.473 40.6521 214.698 40.7522C213.94 40.8147 213.163 40.9936 212.366 41.289C211.158 41.7372 210.242 42.3425 209.619 43.1047C208.996 43.867 208.862 44.7287 209.219 45.6899C209.474 46.3764 209.945 46.8889 210.633 47.2273C211.321 47.5657 212.163 47.8155 213.16 47.9768C214.147 48.1106 215.187 48.3028 216.279 48.5535C217.482 48.7635 218.69 48.9872 219.902 49.2246C221.132 49.4244 222.292 49.7285 223.38 50.1369C224.459 50.5178 225.408 51.056 226.229 51.7514C227.049 52.4468 227.683 53.3987 228.131 54.607C228.681 56.0899 228.758 57.5609 228.362 59.0199C227.956 60.4514 227.112 61.7957 225.828 63.0527C224.545 64.3097 222.778 65.3559 220.526 66.1912C219.949 66.4051 219.246 66.5723 218.416 66.6928C217.623 66.8305 216.788 66.9372 215.91 67.013C215.032 67.0887 214.199 67.1166 213.411 67.0966C212.622 67.0767 211.939 67.0023 211.36 66.8734Z" fill="#FFEAE0"/>
<path d="M247.142 45.5927L259.391 52.5884L256.896 56.2748L244.179 49.4001L247.142 45.5927ZM238.63 27.7819C241.664 26.9967 244.406 27.0131 246.857 27.8311C249.328 28.6134 251.396 29.9994 253.061 31.989C254.747 33.9429 255.945 36.2951 256.657 39.0456C257.435 42.0513 257.522 44.8425 256.918 47.4192C256.315 49.9959 255.132 52.208 253.371 54.0555C251.603 55.8745 249.295 57.183 246.445 57.981C243.44 58.7589 240.701 58.7567 238.229 57.9743C235.786 57.1847 233.718 55.7987 232.025 53.8165C230.332 51.8342 229.13 49.4678 228.418 46.7173C227.647 43.7399 227.564 40.9629 228.168 38.3862C228.772 35.8095 229.968 33.5937 231.757 31.7389C233.546 29.8842 235.837 28.5652 238.63 27.7819ZM234.149 45.1886C234.663 47.1736 235.465 48.8719 236.557 50.2837C237.641 51.6672 238.921 52.637 240.396 53.1931C241.899 53.7419 243.502 53.7961 245.203 53.3558C246.791 52.9448 248.11 52.1951 249.159 51.1066C250.23 49.9823 250.946 48.5414 251.308 46.7837C251.698 45.0186 251.585 42.9451 250.969 40.5632C250.448 38.55 249.649 36.8658 248.572 35.5107C247.523 34.1483 246.247 33.1926 244.744 32.6439C243.261 32.0594 241.655 31.991 239.926 32.4386C238.423 32.8276 237.133 33.6304 236.056 34.847C234.979 36.0636 234.246 37.5544 233.855 39.3195C233.493 41.0772 233.591 43.0336 234.149 45.1886Z" fill="#FFEAE0"/>
<path d="M266.561 22.5265L269.059 40.9424C269.28 42.5678 269.736 43.8655 270.43 44.8356C271.123 45.8056 271.996 46.4704 273.05 46.83C274.104 47.1895 275.255 47.2846 276.503 47.1153C277.78 46.9421 278.862 46.5293 279.749 45.8769C280.665 45.2206 281.328 44.3326 281.737 43.2129C282.147 42.0932 282.246 40.7497 282.033 39.1824L279.535 20.7664L285.238 19.9927L287.795 38.844C288.083 40.9628 287.835 42.9473 287.051 44.7976C286.293 46.6148 285.066 48.1409 283.371 49.3758C281.702 50.5777 279.621 51.3625 277.129 51.7302C274.666 52.0939 272.453 51.9064 270.491 51.1676C268.528 50.4288 266.937 49.2702 265.718 47.6916C264.499 46.1131 263.746 44.2644 263.458 42.1456L260.857 23.3002L266.561 22.5265Z" fill="#FFEAE0"/>
<path d="M316.624 48.5268L295.72 49.1724L294.798 19.3107L312.627 18.76L313.644 23.2121L300.601 23.615L300.85 31.6513L310.599 31.3502L311.661 35.8449L300.989 36.1745L301.248 44.5621L315.521 44.1213L316.624 48.5268Z" fill="#FFEAE0"/>
<path d="M344.466 20.2522L345.093 24.7845L334.878 24.1136L333.214 49.4535L327.471 49.0763L329.135 23.7363L320.06 23.1403L320.354 18.6685L344.466 20.2522Z" fill="#FFEAE0"/>
<path d="M366.342 53.7641L345.689 50.4765L350.385 20.972L368.001 23.7761L368.165 28.3399L355.278 26.2886L354.014 34.2288L363.647 35.7621L363.846 40.3762L353.303 38.6979L351.984 46.9852L366.085 49.2298L366.342 53.7641Z" fill="#FFEAE0"/>
<path d="M397.981 52.1535C397.145 51.8822 396.442 51.4386 395.872 50.8225C395.33 50.2154 394.958 49.5098 394.758 48.7055C394.594 47.8825 394.647 47.053 394.918 46.2172C395.199 45.3536 395.642 44.6507 396.249 44.1087C396.857 43.5666 397.572 43.2136 398.395 43.0496C399.227 42.8578 400.061 42.8975 400.896 43.1687C401.732 43.4399 402.431 43.8975 402.991 44.5415C403.561 45.1576 403.942 45.8816 404.134 46.7138C404.335 47.518 404.3 48.338 404.029 49.1738C403.757 50.0096 403.286 50.7034 402.614 51.2553C401.979 51.7883 401.264 52.1413 400.469 52.3143C399.674 52.4874 398.844 52.4338 397.981 52.1535Z" fill="#FFEAE0"/>
<path d="M434.915 78.1005L423.991 72.5401L437.543 45.9147L447.88 51.1761C449.603 52.053 450.991 53.0715 452.043 54.2318C453.122 55.4054 453.748 56.7264 453.921 58.1947C454.133 59.6503 453.781 61.2786 452.864 63.0797C452.359 64.0717 451.601 64.8194 450.588 65.3231C449.589 65.8006 448.578 66.1405 447.555 66.3427C448.437 67.5804 448.984 68.927 449.196 70.3825C449.435 71.8514 449.135 73.408 448.298 75.0525C447.674 76.2794 446.894 77.2628 445.959 78.0028C445.049 78.756 444.004 79.2594 442.824 79.5129C441.643 79.7665 440.372 79.777 439.011 79.5446C437.69 79.2993 436.325 78.8179 434.915 78.1005ZM444.984 55.0261L440.442 52.7143L437.074 59.3315L440.832 61.2448C441.772 61.7231 442.667 62.0308 443.518 62.1679C444.394 62.3182 445.168 62.2517 445.838 61.9684C446.508 61.685 447.036 61.1648 447.421 60.4078C447.846 59.5725 448.008 58.8335 447.908 58.1909C447.847 57.5355 447.55 56.957 447.017 56.4554C446.523 55.941 445.845 55.4646 444.984 55.0261ZM440.815 66.4123L434.981 63.4428L431.174 70.9215L436.656 73.7116C437.57 74.1766 438.426 74.4316 439.225 74.4767C440.049 74.535 440.777 74.3961 441.409 74.06C442.079 73.7111 442.607 73.1582 442.992 72.4012C443.63 71.1482 443.737 70.0028 443.312 68.9649C442.9 67.9009 442.068 67.0501 440.815 66.4123Z" fill="#FFEAE0"/>
<path d="M465.728 82.6251L468.001 71.7472L459.087 78.331L465.728 82.6251ZM470.329 63.9395L474.387 66.5637L468.095 97.6547L462.87 95.2174L464.675 87.4902L455.156 81.3352L449.125 85.8068L444.329 82.7055L470.329 63.9395Z" fill="#FFEAE0"/>
<path d="M471.511 98.2589L475.382 95.4445C475.681 96.0568 476.051 96.7445 476.491 97.5075C476.955 98.2888 477.469 99.0539 478.033 99.8029C478.638 100.547 479.273 101.184 479.938 101.713C480.877 102.462 481.729 102.99 482.493 103.3C483.258 103.609 483.935 103.699 484.525 103.57C485.156 103.436 485.69 103.094 486.128 102.544C486.548 102.018 486.693 101.365 486.564 100.588C486.457 99.8289 486.215 98.9808 485.838 98.0439C485.479 97.084 485.109 96.115 484.727 95.1369C484.304 93.9759 483.89 92.8034 483.485 91.6195C483.103 90.4538 482.814 89.288 482.62 88.1219C482.425 86.9558 482.414 85.842 482.585 84.7804C482.775 83.6959 483.226 82.7069 483.938 81.8134C484.887 80.6221 486.045 79.8032 487.411 79.3566C488.801 78.9283 490.311 78.9137 491.94 79.3129C493.592 79.7303 495.266 80.6143 496.961 81.9647C498.13 82.8955 499.152 84.0095 500.028 85.3068C500.905 86.6041 501.616 87.8263 502.163 88.9733L497.804 91.3427C497.528 90.7486 497.209 90.1386 496.847 89.5127C496.502 88.8638 496.087 88.2334 495.601 87.6215C495.156 87.0049 494.601 86.4319 493.937 85.9027C492.929 85.0997 491.937 84.6283 490.963 84.4885C489.988 84.3488 489.181 84.6798 488.543 85.4816C488.086 86.0544 487.891 86.7226 487.957 87.4864C488.022 88.2502 488.244 89.1006 488.621 90.0375C489.016 90.9516 489.389 91.9412 489.738 93.0063C490.18 94.1444 490.612 95.2939 491.036 96.4549C491.5 97.6113 491.839 98.761 492.051 99.9042C492.282 101.024 492.312 102.115 492.141 103.177C491.969 104.239 491.482 105.273 490.679 106.281C489.693 107.519 488.473 108.344 487.02 108.759C485.584 109.151 483.997 109.122 482.258 108.673C480.518 108.224 478.709 107.251 476.831 105.754C476.35 105.371 475.843 104.855 475.311 104.207C474.784 103.6 474.261 102.94 473.743 102.227C473.224 101.515 472.77 100.816 472.38 100.13C471.99 99.445 471.7 98.8212 471.511 98.2589Z" fill="#FFEAE0"/>
<path d="M508.78 118.392L509.12 132.494L504.674 132.263L503.989 117.823L508.78 118.392ZM519.629 101.901C521.87 104.093 523.273 106.449 523.839 108.97C524.446 111.49 524.328 113.977 523.485 116.43C522.683 118.883 521.289 121.125 519.302 123.155C517.13 125.375 514.786 126.891 512.268 127.706C509.75 128.52 507.245 128.651 504.753 128.099C502.282 127.525 499.969 126.224 497.814 124.197C495.594 122.026 494.181 119.68 493.574 117.16C492.987 114.66 493.105 112.173 493.927 109.7C494.75 107.226 496.154 104.974 498.141 102.943C500.292 100.745 502.626 99.2381 505.144 98.4236C507.663 97.6091 510.178 97.4885 512.69 98.0617C515.203 98.635 517.516 99.9147 519.629 101.901ZM502.411 107.059C500.977 108.525 499.938 110.09 499.294 111.754C498.669 113.397 498.5 114.994 498.786 116.544C499.094 118.115 499.875 119.515 501.131 120.744C502.304 121.891 503.627 122.632 505.101 122.968C506.617 123.304 508.221 123.173 509.913 122.574C511.626 121.996 513.342 120.828 515.063 119.069C516.517 117.583 517.546 116.029 518.15 114.407C518.775 112.805 518.934 111.219 518.626 109.648C518.361 108.077 517.589 106.666 516.312 105.417C515.203 104.331 513.849 103.641 512.251 103.348C510.653 103.055 508.997 103.197 507.284 103.775C505.593 104.374 503.968 105.468 502.411 107.059Z" fill="#FFEAE0"/>
<path d="M538.265 122.749L523.813 134.434C522.538 135.466 521.665 136.529 521.195 137.625C520.725 138.721 520.61 139.812 520.848 140.9C521.087 141.987 521.603 143.021 522.395 144C523.205 145.002 524.119 145.713 525.137 146.133C526.173 146.576 527.276 146.683 528.446 146.452C529.616 146.222 530.815 145.61 532.045 144.615L546.497 132.93L550.116 137.406L535.323 149.367C533.66 150.711 531.834 151.528 529.846 151.818C527.899 152.112 525.958 151.854 524.023 151.045C522.13 150.241 520.38 148.869 518.773 146.928C517.185 145.011 516.198 143.021 515.812 140.96C515.426 138.899 515.592 136.938 516.31 135.077C517.028 133.216 518.218 131.614 519.88 130.269L534.646 118.274L538.265 122.749Z" fill="#FFEAE0"/>
<path d="M542.358 179.646L531.002 162.084L556.09 145.861L565.776 160.84L562.49 164.012L555.404 153.054L548.653 157.42L553.949 165.61L550.65 168.842L544.853 159.877L537.806 164.434L545.559 176.424L542.358 179.646Z" fill="#FFEAE0"/>
<path d="M580.031 187.09L576.487 189.985L571.743 180.914L549.24 192.684L546.573 187.584L569.075 175.814L564.86 167.755L568.831 165.678L580.031 187.09Z" fill="#FFEAE0"/>
<path d="M563.386 224.802L555.528 205.422L583.215 194.196L589.917 210.727L586.094 213.225L581.191 201.132L573.74 204.153L577.405 213.192L573.558 215.748L569.546 205.854L561.77 209.007L567.135 222.239L563.386 224.802Z" fill="#FFEAE0"/>
<path d="M580.52 249.054C580.316 248.199 580.328 247.368 580.557 246.56C580.793 245.781 581.202 245.097 581.784 244.506C582.401 243.937 583.136 243.551 583.991 243.347C584.874 243.136 585.705 243.149 586.484 243.384C587.263 243.62 587.937 244.047 588.506 244.664C589.103 245.274 589.504 246.006 589.708 246.861C589.912 247.716 589.885 248.55 589.628 249.364C589.399 250.172 588.979 250.874 588.369 251.472C587.787 252.062 587.069 252.459 586.214 252.663C585.36 252.867 584.522 252.826 583.701 252.54C582.915 252.276 582.241 251.85 581.679 251.261C581.117 250.673 580.731 249.937 580.52 249.054Z" fill="#FFEAE0"/>
<path d="M577.665 294.667L576.72 282.445L606.508 280.143L607.401 291.707C607.55 293.634 607.404 295.35 606.962 296.853C606.522 298.385 605.721 299.607 604.557 300.52C603.425 301.459 601.852 302.007 599.837 302.163C598.727 302.248 597.694 301.99 596.737 301.389C595.809 300.785 594.992 300.099 594.286 299.331C593.689 300.728 592.825 301.897 591.693 302.836C590.563 303.805 589.078 304.36 587.239 304.503C585.866 304.609 584.62 304.455 583.502 304.042C582.385 303.659 581.411 303.029 580.579 302.153C579.748 301.277 579.077 300.198 578.566 298.916C578.087 297.66 577.787 296.244 577.665 294.667ZM602.606 291.24L602.213 286.159L594.81 286.731L595.136 290.937C595.217 291.988 595.42 292.912 595.746 293.71C596.075 294.536 596.534 295.162 597.125 295.586C597.716 296.01 598.435 296.19 599.282 296.124C600.217 296.052 600.932 295.806 601.428 295.386C601.956 294.992 602.295 294.437 602.445 293.721C602.627 293.031 602.681 292.204 602.606 291.24ZM590.715 293.614L590.211 287.087L581.844 287.734L582.318 293.866C582.397 294.888 582.626 295.752 583.003 296.457C583.383 297.192 583.881 297.741 584.497 298.105C585.144 298.495 585.891 298.658 586.738 298.592C588.139 298.484 589.173 297.978 589.837 297.075C590.531 296.169 590.824 295.016 590.715 293.614Z" fill="#FFEAE0"/>
</svg>
