<svg width="100" height="98" viewBox="0 0 100 98" fill="none" xmlns="http://www.w3.org/2000/svg">
<path fill-rule="evenodd" clip-rule="evenodd" d="M46.2832 0.0954946C34.2113 1.06181 23.2421 6.11609 14.7184 14.64C1.861 27.4974 -3.00299 46.0224 1.83931 63.6905C5.81709 78.2039 16.5094 90.4024 30.5166 96.4078C31.7846 96.9513 33.3413 97.5403 33.9761 97.7169C35.0579 98.0176 35.1862 98.0165 36.022 97.6972C37.5369 97.1187 37.594 96.8839 37.5192 91.5311C37.484 89.0059 37.4389 86.9226 37.4189 86.9017C37.399 86.8808 37.0335 86.948 36.6068 87.051C36.1799 87.154 34.7754 87.2933 33.4855 87.3607C29.1057 87.5892 25.747 86.4606 23.1767 83.8963C22.0228 82.7452 21.693 82.2372 20.5931 79.9166C18.8195 76.1752 17.5132 74.3913 15.6142 73.117C13.3899 71.6244 12.6997 70.4442 13.8025 70.0184C14.6594 69.6877 16.3947 69.7715 17.5136 70.1976C19.947 71.1244 21.5322 72.4807 23.272 75.1245C25.3221 78.2397 27.5868 79.8339 30.5735 80.2641C32.2728 80.5089 34.3076 80.277 36.3547 79.605L37.6577 79.1773L37.9697 77.7751C38.3636 76.0044 39.2046 74.2148 40.1182 73.2036L40.8272 72.4188L40.2827 72.3146C39.9832 72.2574 39.0788 72.1099 38.2729 71.987C24.795 69.9299 18.1531 61.9914 18.1502 47.9357C18.149 42.7169 19.472 38.7098 22.3718 35.15L23.2416 34.0821L22.9483 33.2185C21.9449 30.2629 22.0252 26.3 23.1652 22.5191C23.6489 20.9144 23.7155 20.8061 24.2846 20.6998C26.4226 20.3005 31.2215 22.0313 35.7587 24.8378L37.4865 25.9067L39.687 25.4196C43.5925 24.5549 44.9775 24.4207 49.9952 24.4207C55.0122 24.4207 56.3982 24.5549 60.3007 25.4189L62.4981 25.9053L64.4057 24.7331C68.817 22.0223 73.5794 20.3263 75.6758 20.7196C76.2916 20.835 76.3414 20.913 76.831 22.5328C77.1125 23.4638 77.4425 24.8847 77.5642 25.6906C77.8614 27.6551 77.675 31.0999 77.1784 32.8217L76.7839 34.1893L77.3388 34.7754C79.1055 36.6418 80.8105 40.189 81.4709 43.3718C81.8943 45.4119 81.9658 49.5659 81.6258 52.3589C81.153 56.2427 79.6598 60.5952 77.9458 63.0864C77.015 64.4392 75.2405 66.2825 73.8701 67.3203C70.7508 69.682 65.6637 71.533 60.7407 72.0976C59.0658 72.2896 59.0564 72.3006 59.8336 73.161C60.712 74.1332 61.3899 75.4639 61.9428 77.3004C62.3545 78.668 62.3779 79.1402 62.4512 87.5146C62.5376 97.4129 62.4965 97.1351 63.955 97.6921C65.0325 98.1036 65.6975 97.966 68.8483 96.6805C89.3612 88.3106 102.063 67.0513 99.7235 45.0057C99.0612 38.7655 97.4879 33.3398 94.7335 27.7977C87.2797 12.8002 72.9347 2.53882 56.4425 0.407113C53.5295 0.030631 48.8775 -0.111991 46.2832 0.0954946Z" fill="#FFEAE0"/>
</svg>
