<svg width="100" height="101" viewBox="0 0 100 101" fill="none" xmlns="http://www.w3.org/2000/svg">
<path fill-rule="evenodd" clip-rule="evenodd" d="M29.6012 0.183372C19.5388 0.72876 12.9691 3.35971 7.75221 8.93289C3.36404 13.621 1.13841 19.0604 0.278794 27.1963C-0.0914586 30.7024 -0.0936135 69.6962 0.276443 73.233C1.15917 81.671 3.83302 87.6621 8.82516 92.3876C13.4988 96.8116 19.1967 99.1325 27.2947 99.9102C31.1612 100.282 69.2337 100.282 72.8947 99.9112C75.92 99.6044 77.9991 99.2314 80.1812 98.6039C90.5115 95.6333 97.4438 87.7103 99.3313 76.7171C99.9905 72.8778 100.053 70.0702 99.9721 48.0598C99.9016 28.9332 99.853 26.0907 99.5674 24.4537C98.6945 19.4496 97.2377 15.5101 95.0483 12.2317C92.5336 8.46625 88.5517 5.05503 84.5514 3.23942C80.3705 1.34193 76.4632 0.5309 69.7609 0.169071C65.4403 -0.0642465 33.9628 -0.0528842 29.6012 0.183372ZM72.3076 9.55566C79.1259 10.283 83.3407 12.2466 86.5182 16.1765C88.642 18.803 89.9475 22.1809 90.5395 26.5822C90.9754 29.8234 91.2169 47.5347 91.0059 60.7933C90.8406 71.1821 90.7142 73.4162 90.1369 76.1606C88.3871 84.4781 82.8185 89.3936 73.807 90.5749C67.6136 91.3869 33.4009 91.4526 27.0149 90.6649C21.2854 89.958 17.7212 88.3855 14.6148 85.1939C11.6328 82.1302 10.1639 78.4828 9.48202 72.4494C9.11588 69.208 9.11686 31.2693 9.48319 27.8395C9.96413 23.3385 11.1644 19.5991 12.9162 17.1443C14.3335 15.1578 16.6851 13.0795 18.669 12.0597C21.9648 10.3657 25.1423 9.67379 30.9725 9.38072C35.9355 9.13114 69.6672 9.27395 72.3076 9.55566ZM75.4879 17.4079C74.2476 17.7181 73.2846 18.315 72.3525 19.3517C69.6708 22.3345 70.5817 26.9401 74.2121 28.7543C76.4483 29.8717 79.0205 29.4927 80.9084 27.7672C82.2856 26.5085 82.8582 25.2234 82.8645 23.3763C82.8698 21.8608 82.3309 20.3933 81.3382 19.2196C80.1875 17.8591 77.2821 16.9593 75.4879 17.4079ZM47.6241 24.3808C37.353 25.4953 28.6607 32.4804 25.5016 42.1581C20.9261 56.1746 29.2449 71.3827 43.5155 75.0905C56.7772 78.5362 70.3744 71.0869 74.619 58.0507C75.569 55.1335 75.7987 53.5873 75.7987 50.1167C75.7987 46.6822 75.5895 45.2742 74.6204 42.1884C71.857 33.3889 64.1993 26.6198 54.8918 24.7491C53.3389 24.4371 49.0904 24.2218 47.6241 24.3808ZM54.2847 34.0464C62.4963 36.176 67.9016 44.5173 66.4513 52.8217C65.1012 60.5528 58.8755 66.1961 51.1344 66.7058C44.6317 67.134 38.4722 63.7032 35.4199 57.9528C30.1229 47.9732 35.9566 35.8722 47.0822 33.7617C49.0683 33.385 52.2141 33.5094 54.2847 34.0464Z" fill="#FFEAE0"/>
</svg>
