<svg width="888" height="212" viewBox="0 0 888 212" fill="none" xmlns="http://www.w3.org/2000/svg">
<path d="M100.638 208.464L100.638 115.59C100.638 107.539 99.2003 101.117 96.3249 96.325C93.4496 91.341 88.5614 88.849 81.6606 88.849C77.2517 88.849 72.9386 89.9991 68.7214 92.2994C64.6959 94.4081 61.0537 97.571 57.795 101.788C54.5362 106.005 51.8525 111.181 49.7439 117.315C47.827 123.258 46.8686 129.967 46.8686 137.443L46.8686 208.464H14.0893L14.0893 136.005C14.0893 124.504 13.3226 114.919 11.789 107.251C10.2555 99.392 8.62611 93.0662 6.90089 88.2739C4.79229 82.7149 2.49199 78.2101 0 74.7597L25.8783 64.4083C27.7953 66.5169 29.7122 69.1048 31.6291 72.1718C33.1626 74.8555 34.6961 78.2101 36.2297 82.2356C37.7632 86.0695 39.0092 90.4784 39.9677 95.4624C44.9516 83.9609 52.1401 75.7181 61.533 70.7341C70.9258 65.5585 80.7979 62.9706 91.1493 62.9706C105.91 62.9706 116.548 67.4754 123.066 76.4849C129.775 85.3027 133.13 97.2834 133.13 112.427V208.464H100.638Z" fill="#FCDAC7"/>
<path d="M418.564 208.464L418.564 114.727C418.564 106.676 417.318 100.35 414.826 95.7499C412.334 90.9576 408.021 88.5615 401.887 88.5615C398.245 88.5615 394.507 89.6158 390.673 91.7244C387.031 93.6413 383.676 96.5167 380.609 100.35C377.542 104.184 375.05 108.785 373.133 114.152C371.216 119.52 370.258 125.462 370.258 131.98L370.258 208.464H337.766L337.766 114.727C337.766 106.676 336.52 100.35 334.028 95.7499C331.536 90.9576 327.223 88.5615 321.089 88.5615C317.255 88.5615 313.421 89.7116 309.588 92.0119C305.946 94.1205 302.591 97.2834 299.524 101.501C296.648 105.718 294.252 110.894 292.335 117.028C290.61 122.97 289.748 129.679 289.748 137.155L289.748 208.464L256.968 208.464L256.968 136.005C256.968 124.504 256.202 114.919 254.668 107.251C253.135 99.392 251.505 93.0662 249.78 88.2739C247.671 82.7149 245.371 78.2101 242.879 74.7597L268.757 64.4083C270.674 66.5169 272.591 69.1048 274.508 72.1718C276.042 74.8555 277.575 78.2101 279.109 82.2356C280.642 86.0695 281.888 90.4784 282.847 95.4624C287.639 83.9609 294.348 75.7181 302.974 70.7341C311.792 65.5585 321.089 62.9706 330.865 62.9706C340.642 62.9706 348.213 65.4626 353.581 70.4466C359.14 75.4306 363.261 81.8523 365.945 89.7116C371.121 80.127 377.734 73.322 385.785 69.2965C394.028 65.0792 402.654 62.9706 411.663 62.9706C419.139 62.9706 425.369 64.2166 430.353 66.7086C435.529 69.0089 439.554 72.3635 442.43 76.7724C445.497 80.9896 447.701 86.1653 449.043 92.2994C450.385 98.2419 451.056 104.951 451.056 112.427L451.056 208.464L418.564 208.464Z" fill="#FCDAC7"/>
<path d="M486.881 5.75074L519.66 0V87.6988C523.111 79.8395 527.903 73.8012 534.037 69.584C540.363 65.1751 548.414 62.9706 558.19 62.9706C567.2 62.9706 574.963 64.6959 581.481 68.1463C588.19 71.4051 593.749 76.1974 598.158 82.5232C602.567 88.6573 605.826 96.1333 607.934 104.951C610.043 113.769 611.097 123.545 611.097 134.28C611.097 145.206 609.372 155.366 605.922 164.759C602.663 173.96 597.966 181.915 591.832 188.624C585.89 195.334 578.701 200.605 570.267 204.439C561.833 208.273 552.536 210.19 542.376 210.19C536.625 210.19 530.491 209.71 523.974 208.752C517.456 207.985 511.418 207.123 505.859 206.164C499.533 205.014 493.207 203.576 486.881 201.851L486.881 5.75074ZM552.727 85.9736C547.935 85.9736 543.526 87.603 539.501 90.8618C535.475 94.1205 531.929 98.4336 528.862 103.801C525.986 109.168 523.686 115.207 521.961 121.916C520.427 128.625 519.66 135.526 519.66 142.618V184.311C521.386 184.695 524.165 185.27 527.999 186.037C531.833 186.803 535.379 187.187 538.638 187.187C545.731 187.187 551.673 185.941 556.465 183.449C561.258 180.957 565.091 177.506 567.967 173.097C570.842 168.688 572.855 163.417 574.005 157.283C575.155 151.149 575.73 144.44 575.73 137.155C575.73 130.446 575.539 124.024 575.155 117.89C574.772 111.756 573.717 106.293 571.992 101.501C570.459 96.7084 568.158 92.9704 565.091 90.2867C562.024 87.4113 557.903 85.9736 552.727 85.9736Z" fill="#FCDAC7"/>
<path d="M725.027 65.2709L757.806 65.2709V139.168C757.806 150.669 758.477 160.35 759.819 168.209C761.353 175.877 762.982 182.107 764.707 186.899C766.816 192.65 769.116 197.155 771.608 200.413L746.017 210.765C743.717 208.656 741.609 205.972 739.692 202.714C738.158 200.03 736.529 196.771 734.803 192.937C733.27 188.912 732.216 184.215 731.64 178.848C726.465 190.158 719.181 198.209 709.788 203.001C700.395 207.794 690.619 210.19 680.459 210.19C665.315 210.19 654.485 205.781 647.967 196.963C641.641 188.145 638.478 176.069 638.478 160.733V65.2709L671.258 65.2709V160.158C671.258 168.209 672.695 174.535 675.571 179.136C678.446 183.736 683.334 186.037 690.235 186.037C694.452 186.037 698.574 184.886 702.599 182.586C706.816 180.094 710.554 176.644 713.813 172.235C717.264 167.826 719.947 162.554 721.864 156.42C723.973 150.094 725.027 143.098 725.027 135.43V65.2709Z" fill="#FCDAC7"/>
<path d="M839.993 61.8205C845.552 61.8205 851.015 62.3956 856.382 63.5457C861.75 64.6959 866.542 66.0377 870.759 67.5712C875.743 69.2965 880.344 71.1175 884.561 73.0345L874.785 95.4624C870.951 93.7371 867.117 92.2036 863.283 90.8618C860.024 89.7116 856.382 88.6573 852.357 87.6988C848.523 86.5487 844.689 85.9736 840.855 85.9736C836.446 85.9736 832.612 87.0279 829.354 89.1365C826.287 91.2451 824.753 94.408 824.753 98.6253C824.753 109.552 832.708 118.082 848.619 124.216C854.561 126.516 859.928 129.008 864.721 131.692C869.513 134.184 873.539 137.155 876.797 140.606C880.248 144.056 882.836 148.082 884.561 152.682C886.286 157.091 887.149 162.363 887.149 168.497C887.149 173.864 885.999 179.136 883.698 184.311C881.59 189.487 878.331 194.088 873.922 198.113C869.705 202.139 864.433 205.397 858.107 207.889C851.973 210.19 844.977 211.34 837.117 211.34C830.791 211.34 824.561 210.573 818.427 209.04C812.293 207.698 806.734 206.164 801.75 204.439C796.958 202.714 793.124 201.084 790.249 199.551L785.936 197.538L796.575 173.385L800.312 175.398C802.804 176.931 805.967 178.561 809.801 180.286C813.635 182.011 817.756 183.64 822.165 185.174C826.574 186.516 830.6 187.187 834.242 187.187C840.951 187.187 845.935 185.845 849.194 183.161C852.453 180.478 854.082 176.931 854.082 172.522C854.082 167.538 852.261 163.034 848.619 159.008C845.168 154.791 839.897 151.34 832.804 148.657C818.044 143.098 807.405 136.772 800.888 129.679C794.562 122.587 791.399 113.385 791.399 102.076C791.399 96.7083 792.645 91.6285 795.137 86.8362C797.629 81.8523 800.983 77.5392 805.201 73.8971C809.61 70.0632 814.785 67.092 820.728 64.9834C826.67 62.8748 833.092 61.8205 839.993 61.8205Z" fill="#FCDAC7"/>
<path d="M198.401 66.243C198.401 96.4344 181.148 135.153 181.148 135.153H201.276C201.276 135.153 183.267 178.382 183.267 210.012" stroke="#FCDAC7" stroke-width="31.6291"/>
</svg>
