<svg width="1523" height="219" viewBox="0 0 1523 219" fill="none" xmlns="http://www.w3.org/2000/svg">
<path d="M56.8702 38.5951L52.6049 43.0765C51.6624 42.3366 50.8062 41.7156 50.0364 41.2134C49.2806 40.673 48.5299 40.1779 47.7841 39.7281C47.0383 39.2783 46.0924 38.8412 44.9461 38.4169C42.9212 37.6674 40.8751 37.5616 38.8079 38.0997C36.7407 38.6378 34.8406 39.7807 33.1075 41.5285C31.3886 43.2382 29.9776 45.5831 28.8745 48.5632C28.1815 50.4354 27.7531 52.2969 27.5893 54.1477C27.4637 56.0127 27.5808 57.7502 27.9405 59.3604C28.3384 60.9848 29.0525 62.4003 30.0828 63.6071C31.1132 64.8139 32.4689 65.7284 34.15 66.3507C35.7929 66.9589 37.3848 67.3526 38.9258 67.5321C40.4668 67.7115 41.9214 67.772 43.2896 67.7138L44.0613 74.2551C42.8841 74.3841 41.5752 74.3992 40.1347 74.3004C38.6943 74.2016 37.27 74.0003 35.8621 73.6963C34.4782 73.4447 33.2513 73.1209 32.1815 72.7249C29.1632 71.6076 26.6796 70.1018 24.7308 68.2075C22.8202 66.3273 21.4211 64.1804 20.5335 61.7666C19.6458 59.3528 19.2534 56.7747 19.3562 54.0325C19.4972 51.3044 20.0839 48.5457 21.1163 45.7566C22.2195 42.7764 23.6701 40.2073 25.4681 38.0491C27.2803 35.8527 29.3473 34.1416 31.669 32.9158C34.029 31.7041 36.5391 31.0259 39.1992 30.8811C41.8593 30.7363 44.6222 31.1942 47.4877 32.2549C48.2519 32.5378 49.1908 32.9939 50.3045 33.6234C51.4324 34.2146 52.5751 34.9417 53.7327 35.8047C54.9045 36.6294 55.9503 37.5595 56.8702 38.5951Z" fill="white"/>
<path d="M62.9421 83.7441C58.8621 82.3288 55.6924 80.2159 53.4332 77.4055C51.2124 74.6084 49.8855 71.4098 49.4526 67.8098C49.0196 64.2099 49.4507 60.5431 50.7458 56.8095C52.1478 52.768 54.1911 49.488 56.8759 46.9695C59.5607 44.451 62.6536 42.8072 66.1546 42.038C69.6555 41.2689 73.3247 41.5067 77.162 42.7516C81.2805 44.1802 84.4434 46.3124 86.6508 49.148C88.9101 51.9584 90.2436 55.1377 90.6515 58.6859C91.0978 62.2474 90.6667 65.9142 89.3582 69.6862C87.9429 73.7663 85.8929 77.0655 83.2081 79.584C80.5233 82.1024 77.4497 83.7529 73.9872 84.5355C70.538 85.2795 66.8563 85.0157 62.9421 83.7441ZM65.1251 77.4509C67.2421 78.1853 69.3277 78.3266 71.3818 77.8748C73.4877 77.3979 75.4275 76.2812 77.2011 74.5247C79.0132 72.7816 80.48 70.2934 81.6016 67.0602C82.5496 64.3274 82.9222 61.7615 82.7194 59.3626C82.5551 56.977 81.8139 54.8871 80.4957 53.0931C79.2294 51.2739 77.4223 49.9571 75.0744 49.1426C73.0343 48.4349 70.9221 48.3706 68.7376 48.9496C66.5531 49.5287 64.5548 50.6897 62.7427 52.4329C60.9691 54.1893 59.575 56.5302 58.5602 59.4555C57.6122 62.1884 57.2329 64.7735 57.4223 67.2109C57.6118 69.6484 58.3463 71.7574 59.626 73.5381C60.9442 75.3322 62.7772 76.6364 65.1251 77.4509Z" fill="white"/>
<path d="M114.435 86.3074L111.412 85.7274L105.789 70.5889L98.0759 94.7486L90.566 92.3509L103.205 52.764L107.92 54.2695L115.532 76.8428L133.535 62.4475L138.134 63.9158L125.496 103.503L117.928 101.087L125.213 78.2658L114.435 86.3074Z" fill="white"/>
<path d="M155.848 69.2802L148.591 94.0906C147.951 96.2803 147.796 98.1877 148.127 99.8127C148.458 101.438 149.191 102.777 150.326 103.831C151.461 104.884 152.87 105.657 154.551 106.149C156.272 106.652 157.88 106.74 159.376 106.414C160.912 106.099 162.257 105.346 163.411 104.156C164.566 102.966 165.452 101.315 166.07 99.2032L173.327 74.3927L181.01 76.6402L173.582 102.037C172.747 104.892 171.308 107.272 169.264 109.179C167.271 111.058 164.849 112.302 161.997 112.911C159.195 113.492 156.107 113.311 152.733 112.366C149.397 111.433 146.693 109.941 144.618 107.891C142.543 105.841 141.179 103.468 140.524 100.772C139.869 98.0765 139.96 95.3013 140.794 92.4468L148.164 67.0327L155.848 69.2802Z" fill="white"/>
<path d="M189.792 122.189L182.175 120.158L192.877 80.0046L200.495 82.035L210.371 109.523L211.95 113.801L219.095 86.9929L226.772 89.0391L216.069 129.193L208.393 127.147L197.875 98.0333L196.953 95.3211L189.792 122.189Z" fill="white"/>
<path d="M231.569 133.325L223.921 131.41L234.017 91.0996L241.664 93.0148L231.569 133.325Z" fill="white"/>
<path d="M278.867 103.52L275.189 108.495C274.162 107.877 273.235 107.367 272.409 106.964C271.593 106.521 270.786 106.123 269.991 105.769C269.195 105.415 268.202 105.098 267.012 104.819C264.91 104.326 262.867 104.474 260.882 105.264C258.897 106.053 257.153 107.423 255.65 109.372C254.156 111.281 253.046 113.782 252.32 116.876C251.864 118.82 251.669 120.72 251.735 122.577C251.842 124.443 252.173 126.153 252.729 127.706C253.325 129.268 254.209 130.585 255.38 131.655C256.552 132.725 258.011 133.465 259.756 133.874C261.461 134.274 263.09 134.468 264.641 134.455C266.192 134.443 267.643 134.323 268.994 134.096L270.569 140.491C269.417 140.765 268.12 140.942 266.678 141.022C265.237 141.102 263.798 141.079 262.364 140.951C260.959 140.873 259.702 140.703 258.591 140.443C255.458 139.708 252.807 138.521 250.639 136.882C248.51 135.253 246.856 133.295 245.677 131.01C244.497 128.725 243.789 126.215 243.551 123.481C243.354 120.757 243.594 117.947 244.274 115.051C245 111.957 246.121 109.228 247.638 106.864C249.165 104.461 251.004 102.507 253.156 101.003C255.348 99.5087 257.755 98.5251 260.377 98.0522C262.999 97.5793 265.797 97.6918 268.772 98.3898C269.565 98.5759 270.553 98.9123 271.736 99.3992C272.929 99.8463 274.152 100.426 275.408 101.139C276.673 101.813 277.826 102.606 278.867 103.52Z" fill="white"/>
<path d="M298.368 131.81L295.959 116.542L287.613 129.501L298.368 131.81ZM295.136 105.24L301.708 106.651L308.86 150.189L300.862 149.597L299.398 138.657L283.983 135.347L278.345 144.137L270.578 142.469L295.136 105.24Z" fill="white"/>
<path d="M355.691 119.379L352.213 124.496C351.163 123.919 350.217 123.446 349.375 123.076C348.542 122.666 347.72 122.3 346.911 121.978C346.102 121.655 345.098 121.378 343.897 121.147C341.777 120.737 339.741 120.966 337.79 121.834C335.838 122.702 334.149 124.139 332.724 126.146C331.307 128.113 330.297 130.657 329.694 133.777C329.316 135.737 329.197 137.643 329.337 139.496C329.517 141.356 329.915 143.052 330.533 144.582C331.19 146.12 332.125 147.4 333.339 148.423C334.552 149.445 336.039 150.127 337.799 150.467C339.519 150.799 341.154 150.928 342.703 150.854C344.253 150.78 345.698 150.602 347.038 150.322L348.866 156.65C347.725 156.969 346.436 157.197 344.999 157.334C343.562 157.472 342.124 157.505 340.685 157.435C339.279 157.412 338.015 157.293 336.895 157.076C333.735 156.466 331.039 155.385 328.808 153.834C326.617 152.29 324.886 150.4 323.617 148.163C322.348 145.926 321.54 143.447 321.195 140.724C320.889 138.01 321.019 135.192 321.583 132.272C322.185 129.152 323.198 126.381 324.62 123.958C326.05 121.496 327.81 119.471 329.901 117.883C332.032 116.303 334.398 115.225 336.999 114.648C339.6 114.072 342.401 114.073 345.401 114.653C346.201 114.807 347.202 115.104 348.403 115.544C349.612 115.943 350.858 116.474 352.141 117.137C353.431 117.76 354.615 118.507 355.691 119.379ZM331.508 159.832L334.688 154.969L340.268 156.047L338.69 158.419C339.436 158.853 340.075 159.412 340.607 160.096C341.171 160.827 341.547 161.564 341.736 162.306C341.965 163.055 342.009 163.79 341.87 164.51C341.608 165.87 341.027 166.941 340.13 167.722C339.224 168.543 338.149 169.061 336.904 169.277C335.699 169.501 334.436 169.485 333.116 169.23C332.356 169.083 331.407 168.734 330.269 168.182C329.123 167.67 328.28 167.093 327.741 166.449L330.421 162.237C330.887 162.617 331.477 163.001 332.191 163.388C332.937 163.822 333.57 164.09 334.09 164.19C334.57 164.283 335.045 164.292 335.516 164.217C336.019 164.189 336.31 163.976 336.387 163.576C336.48 163.096 336.301 162.625 335.85 162.165C335.4 161.704 334.802 161.257 334.056 160.822C333.302 160.428 332.453 160.098 331.508 159.832Z" fill="white"/>
<path d="M375.39 146.7L372.387 131.537L364.554 144.812L375.39 146.7ZM371.123 120.275L377.746 121.429L386.592 164.655L378.576 164.375L376.687 153.501L361.154 150.795L355.864 159.798L348.037 158.435L371.123 120.275ZM380.72 110.409L385.536 111.248C385.222 113.054 384.649 114.443 383.818 115.415C383.034 116.354 382.098 116.976 381.011 117.283C379.971 117.557 378.909 117.599 377.825 117.411C376.942 117.257 376.281 117.018 375.841 116.693C375.402 116.368 374.985 116.027 374.593 115.669C374.281 115.325 373.921 115.014 373.515 114.737C373.148 114.466 372.584 114.264 371.821 114.132C371.42 114.062 371 114.216 370.562 114.595C370.171 114.94 369.92 115.31 369.81 115.704L364.633 114.802C364.947 112.996 365.497 111.624 366.28 110.685C367.104 109.753 368.057 109.154 369.137 108.888C370.224 108.581 371.29 108.518 372.333 108.7C373.136 108.84 373.781 109.056 374.267 109.347C374.761 109.599 375.181 109.92 375.526 110.311C375.919 110.669 376.335 111.01 376.775 111.335C377.261 111.626 377.906 111.842 378.709 111.982C379.15 112.059 379.563 111.944 379.947 111.639C380.338 111.294 380.596 110.884 380.72 110.409Z" fill="white"/>
<path d="M412.612 170.09C408.342 169.443 404.841 167.943 402.107 165.592C399.413 163.247 397.525 160.344 396.442 156.884C395.36 153.423 395.115 149.739 395.707 145.832C396.349 141.602 397.759 138.005 399.94 135.039C402.12 132.073 404.861 129.892 408.163 128.498C411.465 127.103 415.116 126.667 419.116 127.191C423.426 127.845 426.925 129.364 429.613 131.75C432.347 134.101 434.238 136.983 435.286 140.398C436.374 143.818 436.619 147.502 436.021 151.449C435.373 155.719 433.96 159.337 431.779 162.303C429.599 165.269 426.878 167.452 423.616 168.853C420.361 170.214 416.693 170.626 412.612 170.09ZM413.611 163.504C415.826 163.84 417.902 163.598 419.84 162.78C421.823 161.927 423.527 160.475 424.95 158.424C426.414 156.38 427.402 153.666 427.915 150.282C428.349 147.422 428.247 144.832 427.61 142.51C427.014 140.194 425.904 138.275 424.28 136.751C422.703 135.194 420.686 134.228 418.229 133.856C416.094 133.532 414.006 133.854 411.964 134.822C409.921 135.79 408.168 137.296 406.705 139.34C405.281 141.391 404.337 143.947 403.873 147.008C403.44 149.868 403.538 152.479 404.169 154.841C404.8 157.203 405.907 159.143 407.49 160.66C409.113 162.184 411.153 163.132 413.611 163.504Z" fill="white"/>
<path d="M479.524 164.589C478.31 164.444 477.232 164.027 476.288 163.34C475.385 162.657 474.689 161.794 474.198 160.75C473.753 159.671 473.603 158.525 473.748 157.311C473.899 156.057 474.315 154.979 474.998 154.076C475.68 153.173 476.561 152.499 477.64 152.054C478.724 151.568 479.873 151.398 481.087 151.543C482.3 151.689 483.376 152.125 484.315 152.853C485.258 153.541 485.973 154.427 486.458 155.511C486.949 156.554 487.121 157.683 486.976 158.896C486.831 160.11 486.374 161.183 485.605 162.117C484.882 163.015 484.001 163.689 482.963 164.139C481.924 164.589 480.778 164.739 479.524 164.589Z" fill="white"/>
<path d="M550.797 145.767L547.837 151.2C546.735 150.729 545.747 150.351 544.873 150.065C544.003 149.738 543.15 149.455 542.313 149.213C541.477 148.972 540.45 148.794 539.233 148.681C537.083 148.481 535.079 148.909 533.222 149.964C531.364 151.019 529.825 152.614 528.603 154.751C527.385 156.848 526.629 159.478 526.335 162.642C526.15 164.63 526.219 166.539 526.539 168.369C526.901 170.203 527.464 171.851 528.228 173.313C529.033 174.779 530.089 175.961 531.397 176.86C532.704 177.759 534.25 178.292 536.035 178.458C537.78 178.62 539.419 178.588 540.954 178.362C542.489 178.137 543.91 177.819 545.216 177.408L547.655 183.527C546.551 183.956 545.291 184.31 543.874 184.587C542.457 184.865 541.029 185.039 539.59 185.11C538.189 185.225 536.92 185.23 535.784 185.124C532.579 184.826 529.79 184.015 527.418 182.689C525.086 181.368 523.178 179.656 521.696 177.554C520.214 175.453 519.168 173.064 518.557 170.389C517.987 167.717 517.84 164.901 518.115 161.939C518.409 158.775 519.145 155.918 520.323 153.368C521.505 150.777 523.059 148.59 524.984 146.804C526.95 145.023 529.199 143.718 531.731 142.89C534.263 142.061 537.05 141.789 540.093 142.071C540.904 142.147 541.929 142.344 543.168 142.664C544.41 142.943 545.702 143.35 547.044 143.884C548.389 144.377 549.64 145.005 550.797 145.767Z" fill="white"/>
<path d="M569.722 187.984C565.415 187.664 561.809 186.436 558.904 184.3C556.039 182.167 553.935 179.417 552.592 176.049C551.249 172.681 550.724 169.026 551.017 165.085C551.334 160.819 552.466 157.124 554.414 154.001C556.362 150.877 558.929 148.494 562.115 146.852C565.301 145.209 568.908 144.497 572.936 144.714C577.283 145.037 580.888 146.285 583.749 148.459C586.655 150.595 588.76 153.325 590.066 156.649C591.412 159.976 591.937 163.631 591.641 167.613C591.321 171.919 590.187 175.634 588.239 178.758C586.292 181.881 583.745 184.266 580.6 185.912C577.457 187.517 573.831 188.207 569.722 187.984ZM570.215 181.341C572.45 181.507 574.502 181.108 576.371 180.144C578.284 179.142 579.872 177.564 581.134 175.411C582.438 173.261 583.217 170.48 583.47 167.067C583.684 164.182 583.386 161.607 582.573 159.34C581.802 157.077 580.549 155.248 578.814 153.852C577.123 152.419 575.038 151.611 572.56 151.427C570.407 151.267 568.349 151.747 566.386 152.868C564.424 153.989 562.791 155.624 561.487 157.774C560.224 159.927 559.478 162.548 559.249 165.635C559.034 168.52 559.332 171.116 560.141 173.423C560.95 175.73 562.201 177.58 563.896 178.972C565.63 180.367 567.737 181.157 570.215 181.341Z" fill="white"/>
<path d="M620.239 177.341L617.168 177.547L607.886 164.332L606.559 189.658L598.686 189.245L600.861 147.747L605.805 148.006L618.898 167.907L632.657 149.413L637.478 149.666L635.303 191.165L627.369 190.749L628.623 166.826L620.239 177.341Z" fill="white"/>
<path d="M656.099 150.424L655.296 176.262C655.225 178.542 655.553 180.427 656.281 181.917C657.01 183.408 658.055 184.52 659.418 185.255C660.781 185.991 662.338 186.386 664.089 186.44C665.881 186.496 667.46 186.178 668.827 185.487C670.234 184.797 671.347 183.731 672.166 182.289C672.986 180.847 673.43 179.027 673.498 176.828L674.301 150.99L682.303 151.239L681.481 177.688C681.388 180.66 680.592 183.326 679.092 185.684C677.634 188.003 675.601 189.814 672.992 191.119C670.426 192.384 667.391 192.983 663.888 192.915C660.425 192.848 657.433 192.082 654.91 190.618C652.388 189.154 650.472 187.199 649.162 184.753C647.852 182.308 647.244 179.598 647.336 176.626L648.097 150.176L656.099 150.424Z" fill="white"/>
<path d="M702.131 193.194L694.248 193.113L694.676 151.559L702.559 151.641L718.933 175.827L721.522 179.582L721.808 151.839L729.752 151.921L729.324 193.474L721.38 193.392L703.982 167.79L702.418 165.39L702.131 193.194Z" fill="white"/>
<path d="M751.986 193.389L744.102 193.428L743.896 151.873L751.779 151.834L751.986 193.389Z" fill="white"/>
<path d="M788.997 153.159L786.648 158.883C785.501 158.535 784.478 158.267 783.578 158.078C782.678 157.849 781.799 157.66 780.941 157.511C780.083 157.362 779.043 157.298 777.821 157.319C775.662 157.355 773.717 157.998 771.985 159.249C770.254 160.501 768.898 162.255 767.917 164.512C766.935 166.729 766.471 169.426 766.524 172.603C766.557 174.599 766.833 176.49 767.352 178.274C767.911 180.057 768.651 181.634 769.57 183.004C770.53 184.373 771.709 185.434 773.107 186.184C774.505 186.935 776.1 187.296 777.892 187.266C779.644 187.237 781.27 187.026 782.771 186.635C784.272 186.243 785.65 185.772 786.904 185.221L789.995 191.037C788.945 191.584 787.731 192.073 786.353 192.503C784.975 192.934 783.574 193.263 782.152 193.49C780.771 193.758 779.51 193.901 778.37 193.92C775.152 193.974 772.291 193.471 769.788 192.413C767.325 191.354 765.243 189.86 763.54 187.933C761.837 186.006 760.537 183.746 759.638 181.153C758.779 178.559 758.326 175.776 758.276 172.802C758.223 169.625 758.643 166.704 759.536 164.041C760.428 161.337 761.733 158.992 763.452 157.008C765.212 155.023 767.305 153.48 769.732 152.38C772.158 151.281 774.899 150.705 777.954 150.654C778.769 150.641 779.809 150.725 781.075 150.908C782.341 151.05 783.669 151.313 785.061 151.697C786.452 152.041 787.764 152.528 788.997 153.159Z" fill="white"/>
<path d="M815.727 175.821L809.691 161.591L804.733 176.185L815.727 175.821ZM806.155 150.824L812.874 150.601L830.358 191.112L822.454 192.474L818.384 182.214L802.626 182.736L799.285 192.63L791.345 192.893L806.155 150.824Z" fill="white"/>
<path d="M861.077 150.339L858.915 156.135C857.757 155.825 856.726 155.591 855.821 155.431C854.914 155.231 854.029 155.071 853.166 154.95C852.304 154.83 851.262 154.799 850.041 154.859C847.885 154.966 845.961 155.672 844.272 156.979C842.582 158.286 841.284 160.084 840.377 162.372C839.468 164.62 839.092 167.33 839.248 170.504C839.346 172.498 839.684 174.378 840.26 176.144C840.878 177.909 841.668 179.461 842.631 180.8C843.635 182.137 844.848 183.159 846.27 183.864C847.691 184.569 849.297 184.877 851.088 184.789C852.837 184.702 854.456 184.439 855.944 183.999C857.431 183.558 858.793 183.043 860.028 182.451L863.308 188.164C862.276 188.745 861.078 189.273 859.715 189.748C858.351 190.223 856.962 190.597 855.548 190.871C854.177 191.183 852.921 191.368 851.782 191.424C848.567 191.582 845.692 191.173 843.155 190.197C840.66 189.218 838.53 187.794 836.765 185.923C835.001 184.052 833.627 181.835 832.644 179.273C831.702 176.709 831.158 173.942 831.011 170.971C830.855 167.797 831.179 164.865 831.985 162.174C832.788 159.442 834.017 157.056 835.67 155.017C837.365 152.976 839.406 151.366 841.796 150.187C844.185 149.009 846.906 148.345 849.957 148.194C850.771 148.154 851.814 148.205 853.085 148.346C854.355 148.447 855.691 148.666 857.095 149.005C858.496 149.303 859.824 149.748 861.077 150.339ZM847.204 195.382L849.137 189.902L854.814 189.622L853.844 192.301C854.672 192.546 855.426 192.937 856.105 193.475C856.827 194.051 857.367 194.677 857.727 195.353C858.127 196.026 858.345 196.729 858.381 197.462C858.45 198.845 858.141 200.023 857.454 200.995C856.77 202.008 855.849 202.767 854.691 203.273C853.573 203.776 852.343 204.061 851.001 204.128C850.227 204.166 849.223 204.052 847.986 203.787C846.751 203.562 845.795 203.201 845.118 202.704L846.72 197.975C847.263 198.234 847.928 198.466 848.713 198.672C849.541 198.917 850.219 199.027 850.748 199C851.236 198.976 851.7 198.872 852.14 198.687C852.622 198.541 852.853 198.264 852.833 197.858C852.809 197.369 852.523 196.955 851.976 196.615C851.429 196.275 850.742 195.982 849.914 195.738C849.088 195.533 848.185 195.415 847.204 195.382Z" fill="white"/>
<path d="M894.57 171.751L888.061 157.731L883.594 172.483L894.57 171.751ZM884.166 147.089L890.873 146.641L909.705 186.542L901.851 188.169L897.44 178.051L881.708 179.101L878.701 189.101L870.774 189.63L884.166 147.089ZM891.153 135.23L896.031 134.905C896.153 136.734 895.925 138.219 895.348 139.36C894.809 140.458 894.047 141.284 893.064 141.84C892.118 142.352 891.096 142.645 889.999 142.718C889.104 142.778 888.405 142.702 887.901 142.491C887.397 142.279 886.912 142.046 886.446 141.792C886.061 141.531 885.638 141.315 885.177 141.141C884.757 140.965 884.161 140.903 883.389 140.954C882.982 140.982 882.611 141.231 882.275 141.702C881.977 142.131 881.821 142.549 881.808 142.959L876.564 143.308C876.442 141.479 876.65 140.016 877.189 138.918C877.769 137.818 878.552 137.01 879.539 136.495C880.523 135.94 881.543 135.627 882.6 135.556C883.413 135.502 884.09 135.559 884.632 135.727C885.172 135.854 885.655 136.067 886.084 136.365C886.55 136.619 887.035 136.853 887.539 137.064C888.081 137.232 888.758 137.289 889.571 137.234C890.019 137.205 890.393 136.996 890.693 136.608C890.991 136.18 891.144 135.721 891.153 135.23Z" fill="white"/>
<path d="M934.89 185.805C930.587 186.172 926.832 185.532 923.625 183.884C920.458 182.233 917.944 179.851 916.084 176.739C914.223 173.627 913.125 170.102 912.789 166.164C912.425 161.902 912.956 158.075 914.384 154.681C915.812 151.288 917.968 148.528 920.853 146.401C923.738 144.274 927.186 142.998 931.198 142.573C935.541 142.202 939.298 142.863 942.469 144.555C945.676 146.203 948.188 148.564 950.004 151.639C951.861 154.711 952.96 158.236 953.299 162.214C953.667 166.517 953.137 170.365 951.709 173.758C950.282 177.151 948.146 179.909 945.302 182.033C942.454 184.116 938.983 185.373 934.89 185.805ZM934.323 179.168C936.556 178.977 938.519 178.258 940.211 177.009C941.941 175.716 943.258 173.907 944.163 171.581C945.109 169.251 945.437 166.381 945.146 162.972C944.899 160.089 944.196 157.594 943.034 155.485C941.913 153.373 940.386 151.766 938.452 150.663C936.555 149.517 934.368 149.049 931.892 149.261C929.74 149.445 927.785 150.245 926.025 151.663C924.265 153.081 922.912 154.955 921.966 157.285C921.061 159.611 920.74 162.316 921.004 165.401C921.25 168.284 921.955 170.799 923.12 172.949C924.285 175.098 925.814 176.726 927.708 177.832C929.642 178.934 931.847 179.379 934.323 179.168Z" fill="white"/>
<path d="M992.84 165.587C991.625 165.722 990.48 165.563 989.405 165.108C988.37 164.65 987.495 163.968 986.779 163.064C986.1 162.115 985.693 161.033 985.557 159.818C985.418 158.563 985.577 157.418 986.036 156.383C986.495 155.348 987.199 154.491 988.148 153.811C989.092 153.091 990.172 152.664 991.387 152.529C992.602 152.393 993.749 152.573 994.829 153.068C995.904 153.522 996.802 154.222 997.522 155.166C998.237 156.07 998.663 157.13 998.798 158.345C998.933 159.559 998.733 160.709 998.198 161.793C997.699 162.833 996.995 163.69 996.086 164.365C995.177 165.04 994.095 165.447 992.84 165.587Z" fill="white"/>
<path d="M1060.11 130.889L1058.45 136.849C1057.27 136.638 1056.22 136.492 1055.31 136.41C1054.38 136.288 1053.49 136.203 1052.62 136.156C1051.75 136.109 1050.71 136.167 1049.5 136.331C1047.36 136.62 1045.5 137.488 1043.93 138.933C1042.36 140.379 1041.22 142.28 1040.51 144.637C1039.79 146.954 1039.65 149.687 1040.07 152.836C1040.34 154.814 1040.84 156.659 1041.56 158.37C1042.33 160.075 1043.24 161.555 1044.32 162.807C1045.43 164.055 1046.73 164.969 1048.2 165.551C1049.68 166.132 1051.31 166.303 1053.08 166.063C1054.82 165.829 1056.41 165.429 1057.85 164.864C1059.3 164.299 1060.61 163.669 1061.79 162.975L1065.55 168.388C1064.57 169.055 1063.42 169.683 1062.1 170.272C1060.78 170.861 1059.43 171.352 1058.04 171.745C1056.7 172.172 1055.47 172.463 1054.34 172.615C1051.15 173.046 1048.25 172.883 1045.64 172.125C1043.07 171.363 1040.83 170.124 1038.91 168.41C1036.99 166.695 1035.43 164.603 1034.24 162.134C1033.08 159.659 1032.3 156.948 1031.91 154.001C1031.48 150.852 1031.55 147.902 1032.13 145.152C1032.7 142.362 1033.72 139.881 1035.19 137.709C1036.71 135.531 1038.61 133.753 1040.89 132.376C1043.17 130.999 1045.82 130.106 1048.85 129.697C1049.66 129.588 1050.7 129.55 1051.98 129.583C1053.25 129.575 1054.6 129.681 1056.03 129.899C1057.45 130.077 1058.81 130.407 1060.11 130.889Z" fill="white"/>
<path d="M1092.82 167.086C1088.55 167.737 1084.76 167.347 1081.45 165.915C1078.18 164.477 1075.52 162.267 1073.45 159.285C1071.39 156.303 1070.06 152.858 1069.47 148.952C1068.82 144.723 1069.1 140.868 1070.3 137.388C1071.5 133.908 1073.47 131.011 1076.2 128.698C1078.94 126.384 1082.3 124.883 1086.27 124.194C1090.58 123.536 1094.38 123.946 1097.65 125.425C1100.96 126.857 1103.62 129.047 1105.64 131.995C1107.69 134.937 1109.02 138.381 1109.63 142.328C1110.28 146.597 1110 150.472 1108.8 153.952C1107.6 157.432 1105.66 160.326 1102.96 162.633C1100.25 164.9 1096.87 166.385 1092.82 167.086ZM1091.81 160.501C1094.03 160.163 1095.94 159.315 1097.55 157.957C1099.19 156.553 1100.38 154.66 1101.13 152.279C1101.92 149.892 1102.06 147.007 1101.54 143.624C1101.1 140.764 1100.24 138.321 1098.94 136.294C1097.68 134.26 1096.05 132.758 1094.05 131.786C1092.08 130.767 1089.87 130.446 1087.41 130.821C1085.27 131.146 1083.38 132.075 1081.71 133.606C1080.05 135.137 1078.83 137.097 1078.04 139.484C1077.29 141.865 1077.15 144.586 1077.61 147.647C1078.05 150.506 1078.92 152.97 1080.22 155.037C1081.53 157.105 1083.16 158.628 1085.13 159.606C1087.13 160.578 1089.36 160.876 1091.81 160.501Z" fill="white"/>
<path d="M1141.87 145.054L1138.92 145.935L1126.94 135.105L1131.26 160.096L1123.49 161.438L1116.42 120.49L1121.29 119.647L1138.47 136.152L1147.79 115.069L1152.55 114.247L1159.62 155.196L1151.79 156.548L1147.72 132.943L1141.87 145.054Z" fill="white"/>
<path d="M1165.75 111.799L1170.6 137.189C1171.03 139.43 1171.76 141.198 1172.8 142.493C1173.83 143.788 1175.1 144.646 1176.59 145.066C1178.08 145.486 1179.68 145.532 1181.41 145.203C1183.17 144.866 1184.64 144.211 1185.82 143.238C1187.04 142.258 1187.9 140.975 1188.38 139.389C1188.87 137.803 1188.9 135.929 1188.49 133.768L1183.63 108.379L1191.5 106.875L1196.47 132.865C1197.03 135.786 1196.83 138.561 1195.88 141.19C1194.96 143.771 1193.38 145.983 1191.12 147.825C1188.89 149.62 1186.06 150.867 1182.62 151.565C1179.23 152.256 1176.14 152.162 1173.36 151.283C1170.58 150.405 1168.28 148.915 1166.47 146.815C1164.66 144.714 1163.47 142.203 1162.91 139.282L1157.88 113.303L1165.75 111.799Z" fill="white"/>
<path d="M1220.43 143.417L1212.72 145.044L1204.14 104.383L1211.85 102.756L1233.07 122.825L1236.41 125.93L1230.69 98.7831L1238.46 97.1436L1247.04 137.805L1239.26 139.444L1216.74 118.214L1214.69 116.21L1220.43 143.417Z" fill="white"/>
<path d="M1265.66 133.623L1257.97 135.352L1248.85 94.8088L1256.54 93.0794L1265.66 133.623Z" fill="white"/>
<path d="M1291.61 86.8017L1290.53 92.8945C1289.34 92.7996 1288.28 92.756 1287.36 92.7635C1286.43 92.7315 1285.53 92.7343 1284.66 92.7722C1283.79 92.8101 1282.76 92.9693 1281.57 93.25C1279.47 93.7459 1277.71 94.7897 1276.29 96.3816C1274.86 97.9735 1273.91 99.9768 1273.43 102.392C1272.95 104.767 1273.07 107.501 1273.8 110.593C1274.26 112.536 1274.93 114.324 1275.82 115.956C1276.75 117.58 1277.8 118.962 1279 120.105C1280.23 121.238 1281.6 122.022 1283.13 122.457C1284.66 122.892 1286.29 122.904 1288.04 122.492C1289.74 122.09 1291.28 121.537 1292.67 120.834C1294.05 120.131 1295.3 119.377 1296.4 118.572L1300.66 123.594C1299.76 124.353 1298.67 125.089 1297.42 125.804C1296.16 126.518 1294.87 127.139 1293.52 127.664C1292.23 128.22 1291.03 128.629 1289.92 128.891C1286.79 129.63 1283.89 129.75 1281.22 129.25C1278.58 128.741 1276.23 127.726 1274.16 126.207C1272.08 124.687 1270.33 122.757 1268.9 120.415C1267.5 118.065 1266.47 115.442 1265.78 112.547C1265.05 109.455 1264.84 106.512 1265.15 103.719C1265.44 100.887 1266.22 98.3182 1267.47 96.0126C1268.77 93.6977 1270.48 91.7441 1272.62 90.1518C1274.75 88.5595 1277.31 87.4125 1280.28 86.7108C1281.08 86.5237 1282.11 86.3842 1283.39 86.2925C1284.65 86.161 1286.01 86.1345 1287.45 86.213C1288.88 86.2517 1290.27 86.448 1291.61 86.8017Z" fill="white"/>
<path d="M1329.05 101.639L1320.11 89.029L1318.39 104.346L1329.05 101.639ZM1314.35 79.2679L1320.87 77.6135L1346.61 113.446L1339.18 116.468L1333.01 107.316L1317.73 111.196L1316.58 121.576L1308.88 123.531L1314.35 79.2679Z" fill="white"/>
<path d="M1367.45 67.1642L1366.58 73.2886C1365.38 73.2325 1364.32 73.2231 1363.4 73.2605C1362.47 73.2586 1361.58 73.2906 1360.71 73.3567C1359.84 73.4228 1358.81 73.6154 1357.63 73.9345C1355.55 74.4982 1353.82 75.5987 1352.45 77.236C1351.08 78.8732 1350.19 80.9063 1349.79 83.3352C1349.39 85.7249 1349.6 88.4534 1350.43 91.521C1350.95 93.448 1351.68 95.2129 1352.62 96.8157C1353.6 98.4078 1354.7 99.7555 1355.93 100.859C1357.19 101.951 1358.6 102.69 1360.14 103.076C1361.67 103.461 1363.31 103.42 1365.04 102.952C1366.73 102.495 1368.26 101.892 1369.62 101.145C1370.97 100.397 1372.2 99.6027 1373.28 98.7617L1377.7 103.643C1376.81 104.431 1375.76 105.202 1374.53 105.957C1373.3 106.712 1372.02 107.374 1370.69 107.943C1369.42 108.541 1368.23 108.988 1367.13 109.286C1364.03 110.127 1361.13 110.34 1358.44 109.927C1355.8 109.504 1353.41 108.566 1351.29 107.114C1349.17 105.663 1347.35 103.79 1345.84 101.497C1344.38 99.1925 1343.25 96.6049 1342.48 93.734C1341.65 90.6665 1341.34 87.7322 1341.55 84.9313C1341.76 82.091 1342.45 79.4983 1343.63 77.1532C1344.85 74.7974 1346.5 72.7892 1348.58 71.1284C1350.67 69.4677 1353.18 68.2384 1356.13 67.4406C1356.92 67.2278 1357.95 67.0549 1359.22 66.9218C1360.48 66.7494 1361.83 66.6789 1363.28 66.7106C1364.71 66.7028 1366.1 66.854 1367.45 67.1642ZM1363.51 114.129L1364.22 108.364L1369.71 106.88L1369.34 109.704C1370.2 109.766 1371.02 109.988 1371.79 110.368C1372.62 110.777 1373.28 111.273 1373.78 111.857C1374.31 112.43 1374.68 113.07 1374.87 113.778C1375.23 115.115 1375.18 116.332 1374.72 117.428C1374.26 118.563 1373.53 119.501 1372.5 120.242C1371.52 120.973 1370.38 121.513 1369.08 121.864C1368.33 122.067 1367.33 122.17 1366.06 122.174C1364.81 122.218 1363.8 122.07 1363.03 121.728L1363.59 116.766C1364.17 116.903 1364.87 116.989 1365.68 117.023C1366.54 117.085 1367.23 117.047 1367.74 116.909C1368.21 116.782 1368.64 116.581 1369.03 116.306C1369.47 116.061 1369.64 115.741 1369.53 115.348C1369.4 114.876 1369.04 114.532 1368.43 114.316C1367.82 114.101 1367.09 113.962 1366.23 113.899C1365.38 113.876 1364.47 113.953 1363.51 114.129Z" fill="white"/>
<path d="M1401.95 81.7333L1392.61 69.4171L1391.38 84.7817L1401.95 81.7333ZM1386.54 59.8461L1393 57.9831L1419.89 92.9701L1412.56 96.2287L1406.1 87.2799L1390.95 91.6494L1390.13 102.06L1382.5 104.262L1386.54 59.8461ZM1390.85 46.7738L1395.55 45.4189C1396.06 47.1804 1396.15 48.6799 1395.83 49.9175C1395.54 51.1046 1394.97 52.0742 1394.12 52.8262C1393.31 53.5278 1392.37 54.031 1391.32 54.3358C1390.45 54.5842 1389.76 54.6587 1389.22 54.5594C1388.68 54.46 1388.16 54.3354 1387.65 54.1856C1387.22 54.0132 1386.76 53.8912 1386.27 53.8197C1385.82 53.7369 1385.23 53.8027 1384.48 54.0172C1384.09 54.1301 1383.78 54.4527 1383.55 54.9849C1383.35 55.4667 1383.29 55.9089 1383.36 56.3117L1378.31 57.7682C1377.81 56.0067 1377.7 54.5323 1377.99 53.3452C1378.32 52.1468 1378.92 51.1911 1379.77 50.4783C1380.62 49.7263 1381.55 49.2035 1382.56 48.9099C1383.35 48.6841 1384.02 48.5957 1384.59 48.6446C1385.14 48.6544 1385.66 48.7595 1386.14 48.9597C1386.65 49.1095 1387.17 49.2341 1387.71 49.3335C1388.28 49.3825 1388.95 49.294 1389.73 49.0682C1390.16 48.944 1390.48 48.6606 1390.7 48.218C1390.9 47.7362 1390.95 47.2548 1390.85 46.7738Z" fill="white"/>
<path d="M1444.57 86.8211C1440.45 88.097 1436.64 88.2717 1433.16 87.3451C1429.71 86.4065 1426.75 84.615 1424.27 81.9707C1421.79 79.3264 1419.96 76.1165 1418.79 72.341C1417.53 68.2542 1417.23 64.4012 1417.91 60.7819C1418.58 57.1626 1420.1 54.0063 1422.46 51.3131C1424.83 48.62 1427.92 46.6386 1431.75 45.3691C1435.92 44.0812 1439.73 43.926 1443.19 44.9035C1446.67 45.8301 1449.63 47.6021 1452.06 50.2195C1454.53 52.825 1456.35 56.0348 1457.53 59.8492C1458.81 63.9749 1459.11 67.8474 1458.44 71.4667C1457.77 75.0861 1456.27 78.2363 1453.94 80.9174C1451.6 83.5596 1448.48 85.5275 1444.57 86.8211ZM1442.61 80.4573C1444.75 79.7953 1446.51 78.674 1447.9 77.0935C1449.31 75.4621 1450.21 73.4135 1450.6 70.9478C1451.03 68.47 1450.74 65.5964 1449.73 62.327C1448.87 59.5635 1447.65 57.2753 1446.07 55.4624C1444.52 53.6375 1442.69 52.3925 1440.56 51.7276C1438.47 51.0117 1436.23 51.0209 1433.86 51.7552C1431.79 52.3931 1430.05 53.5922 1428.64 55.3525C1427.22 57.1128 1426.3 59.2318 1425.87 61.7095C1425.48 64.1752 1425.74 66.8871 1426.66 69.8452C1427.51 72.6087 1428.74 74.9163 1430.33 76.7681C1431.93 78.62 1433.77 79.8844 1435.86 80.5613C1437.98 81.2262 1440.23 81.1916 1442.61 80.4573Z" fill="white"/>
</svg>
